<svg width="14" height="14" viewBox="0 0 14 14" fill="none" xmlns="http://www.w3.org/2000/svg">
<path d="M12.7441 6.01172H7.50586V0.755859C7.50586 0.544922 7.42969 0.369141 7.27734 0.228516C7.13672 0.0761719 6.96094 0 6.75 0C6.53906 0 6.35742 0.0761719 6.20508 0.228516C6.06445 0.369141 5.99414 0.544922 5.99414 0.755859V6.01172H0.755859C0.544922 6.01172 0.363281 6.08789 0.210938 6.24023C0.0703125 6.38086 0 6.55078 0 6.75C0 6.96094 0.0703125 7.14258 0.210938 7.29492C0.363281 7.43555 0.544922 7.50586 0.755859 7.50586H5.99414V12.7617C5.99414 12.9609 6.06445 13.1367 6.20508 13.2891C6.35742 13.4297 6.53906 13.5 6.75 13.5C6.96094 13.5 7.13672 13.4297 7.27734 13.2891C7.42969 13.1367 7.50586 12.9609 7.50586 12.7617V7.50586H12.7441C12.9551 7.50586 13.1309 7.43555 13.2715 7.29492C13.4238 7.14258 13.5 6.96094 13.5 6.75C13.5 6.55078 13.4238 6.38086 13.2715 6.24023C13.1309 6.08789 12.9551 6.01172 12.7441 6.01172Z" fill="white"/>
</svg>
