<svg width="21" height="21" viewBox="0 0 21 21" fill="none" xmlns="http://www.w3.org/2000/svg">
<path d="M15 13.2188C15.2188 13.2188 15.3984 13.1484 15.5391 13.0078C15.6797 12.8516 15.75 12.6719 15.75 12.4688C15.75 12.25 15.6797 12.0703 15.5391 11.9297C15.3984 11.7891 15.2188 11.7188 15 11.7188H9C8.79688 11.7188 8.61719 11.7891 8.46094 11.9297C8.32031 12.0703 8.25 12.25 8.25 12.4688C8.25 12.6719 8.32031 12.8516 8.46094 13.0078C8.61719 13.1484 8.79688 13.2188 9 13.2188H15ZM15.75 15.4688C15.75 15.6719 15.6797 15.8516 15.5391 16.0078C15.3984 16.1484 15.2188 16.2188 15 16.2188H9C8.79688 16.2188 8.61719 16.1484 8.46094 16.0078C8.32031 15.8516 8.25 15.6719 8.25 15.4688C8.25 15.25 8.32031 15.0703 8.46094 14.9297C8.61719 14.7891 8.79688 14.7188 9 14.7188H15C15.2188 14.7188 15.3984 14.7891 15.5391 14.9297C15.6797 15.0703 15.75 15.25 15.75 15.4688ZM10.7578 9.46875C10.7578 9.67188 10.6797 9.85156 10.5234 10.0078C10.3828 10.1484 10.2109 10.2188 10.0078 10.2188H8.97656C8.77344 10.2188 8.59375 10.1484 8.4375 10.0078C8.29688 9.85156 8.22656 9.67188 8.22656 9.46875C8.22656 9.25 8.29688 9.07031 8.4375 8.92969C8.59375 8.78906 8.77344 8.71875 8.97656 8.71875H10.0078C10.2109 8.71875 10.3828 8.78906 10.5234 8.92969C10.6797 9.07031 10.7578 9.25 10.7578 9.46875ZM20.0156 17.6719V17.6484C20.0156 17.6641 20.0156 17.6719 20.0156 17.6719C20.0156 18.4375 19.7422 19.0938 19.1953 19.6406C18.6641 20.1719 18.0156 20.4453 17.25 20.4609H6.75C6 20.4453 5.35156 20.1719 4.80469 19.6406C4.27344 19.0938 4.00781 18.4375 4.00781 17.6719V3.25781C4.00781 3.24219 4.00781 3.23438 4.00781 3.23438C4.00781 2.46875 4.27344 1.82031 4.80469 1.28906C5.35156 0.742187 6 0.46875 6.75 0.46875H13.7578C13.8984 0.46875 14.0312 0.5 14.1562 0.5625C14.2812 0.609375 14.3906 0.679688 14.4844 0.773438L19.7344 6.16406C19.8125 6.25781 19.875 6.36719 19.9219 6.49219C19.9844 6.60156 20.0156 6.72656 20.0156 6.86719V17.6719ZM12 2.46094H6.75C6.54688 2.46094 6.36719 2.53906 6.21094 2.69531C6.07031 2.85156 6 3.03125 6 3.23438C6 3.23438 6 3.24219 6 3.25781V17.6719V17.6484C6 17.6641 6 17.6719 6 17.6719C6 17.6719 6 17.6797 6 17.6953C6 17.8984 6.07031 18.0781 6.21094 18.2344C6.36719 18.375 6.54688 18.4531 6.75 18.4688H17.25C17.4688 18.4531 17.6484 18.375 17.7891 18.2344C17.9297 18.0781 18 17.8984 18 17.6953C18 17.6797 18 17.6719 18 17.6719V8.46094H13.0078C12.7266 8.46094 12.4844 8.36719 12.2812 8.17969C12.0938 7.97656 12 7.73438 12 7.45312V2.46094ZM14.0156 3.16406V6.46875H17.2266L14.0156 3.16406ZM2.90625 20.4375C2.82812 20.6094 2.70312 20.7422 2.53125 20.8359C2.375 20.9453 2.20312 21 2.01562 21C1.9375 21 1.85938 20.9922 1.78125 20.9766C1.70312 20.9609 1.63281 20.9375 1.57031 20.9062H1.54688C1.40625 20.8281 1.26562 20.7344 1.125 20.625C1 20.5312 0.882812 20.4219 0.773438 20.2969C0.539062 20.0156 0.351562 19.7031 0.210938 19.3594C0.0703125 19.0156 0 18.6406 0 18.2344C0 18.2188 0 18.2109 0 18.2109V2.71875C0 2.70313 0 2.69531 0 2.69531C0 2.69531 0 2.6875 0 2.67188C0 2.29688 0.0625 1.94531 0.1875 1.61719C0.3125 1.27344 0.484375 0.96875 0.703125 0.703125C0.78125 0.59375 0.867188 0.5 0.960938 0.421875C1.07031 0.328125 1.17969 0.242188 1.28906 0.164062C1.36719 0.117188 1.45312 0.078125 1.54688 0.046875C1.64062 0.015625 1.74219 0 1.85156 0C2.11719 0 2.34375 0.101563 2.53125 0.304688C2.73438 0.492188 2.83594 0.726562 2.83594 1.00781C2.83594 1.17969 2.79688 1.34375 2.71875 1.5C2.64062 1.64062 2.53125 1.75781 2.39062 1.85156C2.35938 1.86719 2.32812 1.89062 2.29688 1.92188C2.28125 1.9375 2.26562 1.95313 2.25 1.96875C2.17188 2.0625 2.10938 2.17187 2.0625 2.29688C2.03125 2.42188 2.01562 2.54687 2.01562 2.67188C2.01562 2.6875 2.01562 2.69531 2.01562 2.69531C2.01562 2.69531 2.01562 2.70313 2.01562 2.71875V18.2109C2.01562 18.2109 2.01562 18.2188 2.01562 18.2344C2.01562 18.375 2.03906 18.5078 2.08594 18.6328C2.13281 18.7578 2.19531 18.8672 2.27344 18.9609C2.28906 18.9922 2.3125 19.0234 2.34375 19.0547C2.375 19.0703 2.40625 19.0859 2.4375 19.1016H2.46094C2.61719 19.1953 2.74219 19.3203 2.83594 19.4766C2.94531 19.6328 3 19.8125 3 20.0156C3 20.0938 2.99219 20.1719 2.97656 20.25C2.96094 20.3125 2.9375 20.375 2.90625 20.4375Z" fill="#8091A7"/>
</svg>
