<svg width="14" height="14" viewBox="0 0 14 14" fill="none" xmlns="http://www.w3.org/2000/svg">
<path d="M12.5 5.85938H2.83203L7.24609 1.44531C7.32422 1.36719 7.38281 1.27604 7.42188 1.17188C7.47396 1.06771 7.5 0.957031 7.5 0.839844C7.5 0.605469 7.41536 0.410156 7.24609 0.253906C7.08984 0.0846354 6.90104 0 6.67969 0C6.54948 0 6.43229 0.0260417 6.32812 0.078125C6.23698 0.117188 6.15234 0.175781 6.07422 0.253906L0.234375 6.09375C0.15625 6.17188 0.0976562 6.26302 0.0585938 6.36719C0.0195312 6.47135 0 6.57552 0 6.67969C0 6.79688 0.0195312 6.90755 0.0585938 7.01172C0.0976562 7.11589 0.15625 7.20703 0.234375 7.28516L6.07422 13.1055C6.15234 13.1836 6.23698 13.2422 6.32812 13.2812C6.43229 13.3203 6.53646 13.3398 6.64062 13.3398C6.875 13.3398 7.07031 13.2617 7.22656 13.1055C7.39583 12.9362 7.48047 12.7409 7.48047 12.5195C7.48047 12.4023 7.46094 12.2982 7.42188 12.207C7.38281 12.1029 7.32422 12.0117 7.24609 11.9336L2.83203 7.51953H12.5C12.7214 7.51953 12.9102 7.44141 13.0664 7.28516C13.2357 7.11589 13.3203 6.91406 13.3203 6.67969C13.3203 6.45833 13.2357 6.26953 13.0664 6.11328C12.9102 5.94401 12.7214 5.85938 12.5 5.85938Z" fill="#526484"/>
</svg>
