<svg width="22" height="18" viewBox="0 0 22 18" fill="none" xmlns="http://www.w3.org/2000/svg">
<path d="M0.046875 3C0.171875 2.15625 0.554688 1.45312 1.19531 0.890625C1.85156 0.3125 2.61719 0.015625 3.49219 0H18.4922C19.3672 0 20.125 0.289063 20.7656 0.867188C21.4219 1.44531 21.8125 2.15625 21.9375 3H0.046875ZM0 5.01562H21.9844V14.5078C21.9844 15.4766 21.6406 16.3047 20.9531 16.9922C20.2812 17.6641 19.4609 18 18.4922 18H3.49219C2.52344 18 1.69531 17.6641 1.00781 16.9922C0.335938 16.3047 0 15.4766 0 14.5078V5.01562ZM10.9922 14.0156C10.9922 13.7344 10.8906 13.5 10.6875 13.3125C10.5 13.1094 10.2656 13.0078 9.98438 13.0078H9C8.71875 13.0078 8.47656 13.1094 8.27344 13.3125C8.08594 13.5 7.99219 13.7344 7.99219 14.0156C7.99219 14.2812 8.08594 14.5156 8.27344 14.7188C8.47656 14.9062 8.71875 15 9 15H9.98438C10.2656 15 10.5 14.9062 10.6875 14.7188C10.8906 14.5156 10.9922 14.2812 10.9922 14.0156ZM3 10.0078C3 10.2891 3.09375 10.5312 3.28125 10.7344C3.48438 10.9219 3.71875 11.0156 3.98438 11.0156H15.9844C16.2656 11.0156 16.5 10.9219 16.6875 10.7344C16.8906 10.5312 16.9922 10.2891 16.9922 10.0078C16.9922 9.72656 16.8906 9.49219 16.6875 9.30469C16.5 9.10156 16.2656 9 15.9844 9H3.98438C3.71875 9 3.48438 9.10156 3.28125 9.30469C3.09375 9.49219 3 9.72656 3 10.0078ZM3 14.0156C3 14.2812 3.09375 14.5156 3.28125 14.7188C3.48438 14.9062 3.71875 15 3.98438 15H6C6.26562 15 6.49219 14.9062 6.67969 14.7188C6.88281 14.5156 6.98438 14.2812 6.98438 14.0156C6.98438 13.7344 6.88281 13.5 6.67969 13.3125C6.49219 13.1094 6.26562 13.0078 6 13.0078H3.98438C3.71875 13.0078 3.48438 13.1094 3.28125 13.3125C3.09375 13.5 3 13.7344 3 14.0156Z" fill="#8091A7"/>
</svg>
