<svg width="18" height="16" viewBox="0 0 18 16" fill="none" xmlns="http://www.w3.org/2000/svg">
<path d="M2.25 0H5.74219C6.36719 0 6.89844 0.21875 7.33594 0.65625C7.77344 1.09375 7.99219 1.625 7.99219 2.25V5.74219C7.99219 6.36719 7.77344 6.89844 7.33594 7.33594C6.89844 7.77344 6.36719 7.99219 5.74219 7.99219H2.25C1.625 7.99219 1.09375 7.77344 0.65625 7.33594C0.21875 6.89844 0 6.36719 0 5.74219V2.25C0 1.625 0.21875 1.09375 0.65625 0.65625C1.09375 0.21875 1.625 0 2.25 0ZM6.49219 10.0078H1.5C1.21875 10.0078 0.976562 10.1094 0.773438 10.3125C0.585938 10.5 0.492188 10.7266 0.492188 10.9922C0.492188 11.2734 0.585938 11.5156 0.773438 11.7188C0.976562 11.9062 1.21875 12 1.5 12H6.49219C6.77344 12 7.00781 11.9062 7.19531 11.7188C7.39844 11.5156 7.5 11.2734 7.5 10.9922C7.5 10.7266 7.39844 10.5 7.19531 10.3125C7.00781 10.1094 6.77344 10.0078 6.49219 10.0078ZM4.5 13.9922H1.5C1.21875 13.9922 0.976562 14.0938 0.773438 14.2969C0.585938 14.4844 0.492188 14.7188 0.492188 15C0.492188 15.2812 0.585938 15.5234 0.773438 15.7266C0.976562 15.9141 1.21875 16.0078 1.5 16.0078H4.5C4.78125 16.0078 5.01562 15.9141 5.20312 15.7266C5.40625 15.5234 5.50781 15.2812 5.50781 15C5.50781 14.7188 5.40625 14.4844 5.20312 14.2969C5.01562 14.0938 4.78125 13.9922 4.5 13.9922ZM16.5 10.0078H11.5078C11.2266 10.0078 10.9844 10.1094 10.7812 10.3125C10.5938 10.5 10.5 10.7266 10.5 10.9922C10.5 11.2734 10.5938 11.5156 10.7812 11.7188C10.9844 11.9062 11.2266 12 11.5078 12H16.5C16.7812 12 17.0156 11.9062 17.2031 11.7188C17.4062 11.5156 17.5078 11.2734 17.5078 10.9922C17.5078 10.7266 17.4062 10.5 17.2031 10.3125C17.0156 10.1094 16.7812 10.0078 16.5 10.0078ZM14.5078 13.9922H11.5078C11.2266 13.9922 10.9844 14.0938 10.7812 14.2969C10.5938 14.4844 10.5 14.7188 10.5 15C10.5 15.2812 10.5938 15.5234 10.7812 15.7266C10.9844 15.9141 11.2266 16.0078 11.5078 16.0078H14.5078C14.7734 16.0078 15 15.9141 15.1875 15.7266C15.3906 15.5234 15.4922 15.2812 15.4922 15C15.4922 14.7188 15.3906 14.4844 15.1875 14.2969C15 14.0938 14.7734 13.9922 14.5078 13.9922ZM12.2578 0H15.75C16.375 0 16.9062 0.21875 17.3438 0.65625C17.7812 1.09375 18 1.625 18 2.25V5.74219C18 6.36719 17.7812 6.89844 17.3438 7.33594C16.9062 7.77344 16.375 7.99219 15.75 7.99219H12.2578C11.6328 7.99219 11.1016 7.77344 10.6641 7.33594C10.2266 6.89844 10.0078 6.36719 10.0078 5.74219V2.25C10.0078 1.625 10.2266 1.09375 10.6641 0.65625C11.1016 0.21875 11.6328 0 12.2578 0Z" fill="#8091A7"/>
</svg>
