<svg width="21" height="20" viewBox="0 0 21 20" fill="none" xmlns="http://www.w3.org/2000/svg">
<path d="M4.64062 6.35156C5.03125 6.71094 5.48438 7 6 7.21875C6.53125 7.42188 7.09375 7.52344 7.6875 7.52344C7.73438 7.52344 7.78906 7.52344 7.85156 7.52344C7.91406 7.52344 7.96875 7.52344 8.01562 7.52344C8.04688 7.52344 8.07812 7.52344 8.10938 7.52344C8.15625 7.52344 8.20312 7.52344 8.25 7.52344H8.22656C8.25781 7.52344 8.28125 7.52344 8.29688 7.52344C8.32812 7.52344 8.35938 7.52344 8.39062 7.52344C8.96875 7.52344 9.50781 7.42188 10.0078 7.21875C10.5234 7 10.9766 6.71094 11.3672 6.35156C11.6484 6.07031 11.8672 5.75 12.0234 5.39062C12.1797 5.03125 12.2578 4.64062 12.2578 4.21875C12.2578 4.15625 12.25 4.10156 12.2344 4.05469C12.2344 4.00781 12.2344 3.96094 12.2344 3.91406V3.89062C12.125 2.8125 11.6641 1.90625 10.8516 1.17188C10.0547 0.421875 9.10938 0.03125 8.01562 0H7.99219C6.88281 0.03125 5.92969 0.429688 5.13281 1.19531C4.33594 1.94531 3.88281 2.86719 3.77344 3.96094C3.77344 3.99219 3.77344 4.03125 3.77344 4.07812C3.77344 4.125 3.77344 4.17188 3.77344 4.21875C3.77344 4.64062 3.85156 5.03906 4.00781 5.41406C4.16406 5.77344 4.375 6.08594 4.64062 6.35156ZM17.4844 9.11719C18.25 9.52344 18.8594 10.2891 19.3125 11.4141C19.7812 12.5234 20.0156 13.8047 20.0156 15.2578V16.9922C20.0156 17.2734 19.9141 17.5156 19.7109 17.7188C19.5234 17.9062 19.2891 18 19.0078 18C18.7266 18 18.4844 17.9062 18.2812 17.7188C18.0938 17.5156 18 17.2734 18 16.9922V15.2578C18 14.1328 17.8438 13.1719 17.5312 12.375C17.2344 11.5625 16.9062 11.0625 16.5469 10.875C16.375 10.7969 16.2422 10.6797 16.1484 10.5234C16.0547 10.3672 16.0078 10.1875 16.0078 9.98438C16.0078 9.71875 16.1016 9.49219 16.2891 9.30469C16.4922 9.10156 16.7344 9 17.0156 9C17.0938 9 17.1719 9.00781 17.25 9.02344C17.3281 9.03906 17.4062 9.07031 17.4844 9.11719ZM14.1797 6.39844V6.375C14.4297 6.28125 14.6562 6.14844 14.8594 5.97656C15.0781 5.80469 15.2656 5.60156 15.4219 5.36719V5.39062C15.4219 5.375 15.4219 5.35938 15.4219 5.34375C15.4219 5.3125 15.4219 5.28906 15.4219 5.27344C15.4219 4.85156 15.2891 4.47656 15.0234 4.14844C14.7578 3.80469 14.4219 3.57812 14.0156 3.46875C13.7969 3.40625 13.6172 3.28906 13.4766 3.11719C13.3359 2.92969 13.2656 2.72656 13.2656 2.50781C13.2656 2.22656 13.3594 1.99219 13.5469 1.80469C13.75 1.60156 13.9844 1.5 14.25 1.5C14.2969 1.5 14.3438 1.50781 14.3906 1.52344C14.4375 1.52344 14.4766 1.52344 14.5078 1.52344H14.5312C15.3594 1.74219 16.0469 2.19531 16.5938 2.88281C17.1406 3.57031 17.4141 4.35938 17.4141 5.25C17.4141 5.35938 17.4062 5.46875 17.3906 5.57812C17.375 5.6875 17.3594 5.78906 17.3438 5.88281V5.90625C17.3438 5.92188 17.3359 5.9375 17.3203 5.95312C17.3203 5.96875 17.3203 5.98438 17.3203 6V6.02344C17.1016 6.49219 16.8047 6.90625 16.4297 7.26562C16.0703 7.625 15.6484 7.90625 15.1641 8.10938C15.1016 8.15625 15.0391 8.20312 14.9766 8.25C14.9141 8.28125 14.8516 8.3125 14.7891 8.34375C14.7109 8.39062 14.625 8.42969 14.5312 8.46094C14.4531 8.49219 14.3672 8.50781 14.2734 8.50781C13.9922 8.50781 13.75 8.41406 13.5469 8.22656C13.3594 8.02344 13.2656 7.78125 13.2656 7.5C13.2656 7.3125 13.3047 7.14844 13.3828 7.00781C13.4766 6.85156 13.5938 6.72656 13.7344 6.63281C13.8125 6.60156 13.8828 6.5625 13.9453 6.51562C14.0234 6.46875 14.1016 6.42969 14.1797 6.39844ZM11.5078 9.98438C12.1328 9.98438 12.7188 10.1484 13.2656 10.4766C13.8125 10.8047 14.2891 11.2578 14.6953 11.8359C15.1016 12.3984 15.4219 13.0625 15.6562 13.8281C15.8906 14.6094 16.0078 15.4453 16.0078 16.3359V17.4844C16.0078 17.5469 16 17.6016 15.9844 17.6484C15.9844 17.6953 15.9688 17.7422 15.9375 17.7891C15.9062 17.8828 15.8594 17.9766 15.7969 18.0703C15.75 18.1484 15.6875 18.2188 15.6094 18.2812C15.3438 18.5312 14.9609 18.7578 14.4609 18.9609C13.9766 19.1797 13.3984 19.3672 12.7266 19.5234C12.0703 19.6641 11.3438 19.7812 10.5469 19.875C9.73438 19.9531 8.89062 19.9922 8.01562 19.9922C7.125 19.9922 6.28125 19.9531 5.48438 19.875C4.67188 19.7812 3.9375 19.6641 3.28125 19.5234C2.625 19.3672 2.04688 19.1797 1.54688 18.9609C1.0625 18.7578 0.6875 18.5312 0.421875 18.2812C0.34375 18.2188 0.273438 18.1484 0.210938 18.0703C0.148438 17.9766 0.101562 17.8828 0.0703125 17.7891C0.0546875 17.7422 0.0390625 17.6953 0.0234375 17.6484C0.0078125 17.6016 0 17.5469 0 17.4844V16.3359C0 15.4453 0.117188 14.6094 0.351562 13.8281C0.585938 13.0625 0.90625 12.3984 1.3125 11.8359C1.71875 11.2578 2.19531 10.8047 2.74219 10.4766C3.28906 10.1484 3.875 9.98438 4.5 9.98438H11.5078Z" fill="#8091A7"/>
</svg>
