<svg width="21" height="20" viewBox="0 0 21 20" fill="none" xmlns="http://www.w3.org/2000/svg">
<path d="M18 12.9844C18 12.4375 17.8047 11.9688 17.4141 11.5781C17.0234 11.1875 16.5547 10.9922 16.0078 10.9922H13.0078C12.4609 10.9922 11.9922 11.1875 11.6016 11.5781C11.2109 11.9688 11.0156 12.4375 11.0156 12.9844V15.9844C11.0156 16.5469 11.2109 17.0234 11.6016 17.4141C11.9922 17.8047 12.4609 18 13.0078 18H16.0078C16.5547 18 17.0234 17.8047 17.4141 17.4141C17.8047 17.0234 18 16.5469 18 15.9844V12.9844ZM7.00781 0C7.55469 0 8.02344 0.195313 8.41406 0.585938C8.80469 0.976562 9 1.44531 9 1.99219V6.98438C9 7.54688 8.80469 8.02344 8.41406 8.41406C8.02344 8.80469 7.55469 9 7.00781 9H2.01562C1.45312 9 0.976562 8.80469 0.585938 8.41406C0.195312 8.02344 0 7.54688 0 6.98438V1.99219C0 1.44531 0.195312 0.976562 0.585938 0.585938C0.976562 0.195313 1.45312 0 2.01562 0H7.00781ZM18 0C18.5625 0 19.0391 0.195313 19.4297 0.585938C19.8203 0.976562 20.0156 1.44531 20.0156 1.99219V6.98438C20.0156 7.54688 19.8203 8.02344 19.4297 8.41406C19.0391 8.80469 18.5625 9 18 9H13.0078C12.4609 9 11.9922 8.80469 11.6016 8.41406C11.2109 8.02344 11.0156 7.54688 11.0156 6.98438V1.99219C11.0156 1.44531 11.2109 0.976562 11.6016 0.585938C11.9922 0.195313 12.4609 0 13.0078 0H18ZM7.00781 10.9922C7.55469 10.9922 8.02344 11.1875 8.41406 11.5781C8.80469 11.9688 9 12.4375 9 12.9844V18C9 18.5469 8.80469 19.0156 8.41406 19.4062C8.02344 19.7969 7.55469 19.9922 7.00781 19.9922H2.01562C1.45312 19.9922 0.976562 19.7969 0.585938 19.4062C0.195312 19.0156 0 18.5469 0 18V12.9844C0 12.4375 0.195312 11.9688 0.585938 11.5781C0.976562 11.1875 1.45312 10.9922 2.01562 10.9922H7.00781Z" fill="#8091A7"/>
</svg>
