<svg width="8" height="7" viewBox="0 0 8 7" fill="none" xmlns="http://www.w3.org/2000/svg">
<path d="M3.25098 6.5C3.1748 6.5 3.10286 6.4873 3.03516 6.46191C2.97591 6.43652 2.9209 6.39844 2.87012 6.34766L0.166016 3.63086C0.115234 3.58854 0.0729167 3.53353 0.0390625 3.46582C0.0136719 3.39811 0.000976562 3.32617 0.000976562 3.25C0.000976562 3.17383 0.0136719 3.10612 0.0390625 3.04688C0.0729167 2.97917 0.115234 2.91992 0.166016 2.86914L2.87012 0.165039C2.9209 0.114258 2.98014 0.0761719 3.04785 0.0507812C3.11556 0.0169271 3.1875 0 3.26367 0C3.41602 0 3.54297 0.055013 3.64453 0.165039C3.75456 0.266602 3.80957 0.389323 3.80957 0.533203C3.80957 0.617839 3.79264 0.69401 3.75879 0.761719C3.7334 0.820964 3.69531 0.875977 3.64453 0.926758L1.30859 3.25L3.63184 5.58594C3.68262 5.62826 3.7207 5.68327 3.74609 5.75098C3.77995 5.81868 3.79688 5.89062 3.79688 5.9668C3.79688 6.11068 3.74186 6.23763 3.63184 6.34766C3.53027 6.44922 3.40332 6.5 3.25098 6.5ZM7.42773 6.34766C7.47852 6.29688 7.5166 6.24186 7.54199 6.18262C7.57585 6.11491 7.59277 6.04297 7.59277 5.9668C7.59277 5.89062 7.57585 5.81868 7.54199 5.75098C7.5166 5.68327 7.47852 5.62826 7.42773 5.58594L5.10449 3.25L7.42773 0.926758C7.47852 0.875977 7.5166 0.820964 7.54199 0.761719C7.57585 0.69401 7.59277 0.617839 7.59277 0.533203C7.59277 0.389323 7.53776 0.266602 7.42773 0.165039C7.32617 0.055013 7.20345 0 7.05957 0C6.97493 0 6.89876 0.0169271 6.83105 0.0507812C6.77181 0.0761719 6.7168 0.114258 6.66602 0.165039L3.96191 2.86914C3.91113 2.91992 3.86882 2.97917 3.83496 3.04688C3.80957 3.10612 3.79688 3.17383 3.79688 3.25C3.79688 3.32617 3.80957 3.39811 3.83496 3.46582C3.86882 3.53353 3.91113 3.58854 3.96191 3.63086L6.66602 6.34766C6.7168 6.39844 6.77181 6.43652 6.83105 6.46191C6.89876 6.4873 6.9707 6.5 7.04688 6.5C7.12305 6.5 7.19076 6.4873 7.25 6.46191C7.31771 6.43652 7.37695 6.39844 7.42773 6.34766Z" fill="#526484"/>
</svg>
