<svg width="14" height="14" viewBox="0 0 14 14" fill="none" xmlns="http://www.w3.org/2000/svg">
<path d="M5.50195 12.7617C5.50195 12.9609 5.42578 13.1367 5.27344 13.2891C5.13281 13.4297 4.95703 13.5 4.74609 13.5H2.0918C1.50586 13.5 1.00781 13.3008 0.597656 12.9023C0.199219 12.4922 0 12 0 11.4258V2.0918C0 1.51758 0.199219 1.02539 0.597656 0.615234C1.00781 0.205078 1.50586 0 2.0918 0H4.74609C4.95703 0 5.13281 0.0761719 5.27344 0.228516C5.42578 0.369141 5.50195 0.544922 5.50195 0.755859C5.50195 0.966797 5.42578 1.14844 5.27344 1.30078C5.13281 1.44141 4.95703 1.51172 4.74609 1.51172H2.0918C1.92773 1.51172 1.78711 1.57031 1.66992 1.6875C1.55273 1.79297 1.49414 1.92773 1.49414 2.0918V11.4258C1.49414 11.5898 1.55273 11.7305 1.66992 11.8477C1.78711 11.9531 1.92773 12.0059 2.0918 12.0059H4.74609C4.95703 12.0059 5.13281 12.082 5.27344 12.2344C5.42578 12.375 5.50195 12.5508 5.50195 12.7617ZM13.4473 7.04883C13.459 7.00195 13.4707 6.95508 13.4824 6.9082C13.4941 6.86133 13.5 6.80859 13.5 6.75C13.5 6.65625 13.4766 6.5625 13.4297 6.46875C13.3945 6.375 13.3418 6.29297 13.2715 6.22266L9.94922 2.90039C9.87891 2.83008 9.79688 2.77734 9.70312 2.74219C9.62109 2.69531 9.52734 2.67188 9.42188 2.67188C9.21094 2.67188 9.0293 2.74805 8.87695 2.90039C8.73633 3.04102 8.66602 3.2168 8.66602 3.42773C8.66602 3.5332 8.68359 3.63281 8.71875 3.72656C8.76562 3.80859 8.82422 3.88477 8.89453 3.95508L10.9336 6.01172H4.74609C4.54688 6.01172 4.37109 6.08789 4.21875 6.24023C4.07812 6.38086 4.00781 6.55078 4.00781 6.75C4.00781 6.96094 4.07812 7.14258 4.21875 7.29492C4.37109 7.43555 4.54688 7.50586 4.74609 7.50586H10.9336L8.89453 9.5625C8.82422 9.63281 8.76562 9.71484 8.71875 9.80859C8.68359 9.89062 8.66602 9.98438 8.66602 10.0898C8.66602 10.3008 8.73633 10.4824 8.87695 10.6348C9.0293 10.7754 9.20508 10.8457 9.4043 10.8457C9.50977 10.8457 9.60938 10.8281 9.70312 10.793C9.79688 10.7461 9.87891 10.6875 9.94922 10.6172L13.2715 7.29492C13.3066 7.25977 13.3359 7.22461 13.3594 7.18945C13.3945 7.14258 13.4238 7.0957 13.4473 7.04883Z" fill="#E85347"/>
</svg>
