<svg width="14" height="14" viewBox="0 0 14 14" fill="none" xmlns="http://www.w3.org/2000/svg">
<path d="M8.18034 6.81315L13.3301 1.66341C13.4212 1.58745 13.4896 1.48871 13.5352 1.36719C13.5959 1.24566 13.6263 1.11653 13.6263 0.979816C13.6263 0.706378 13.5276 0.478514 13.3301 0.296222C13.1478 0.0987395 12.9275 -1.80304e-06 12.6693 -1.80304e-06C12.5174 -1.80304e-06 12.3806 0.0303801 12.2591 0.091144C12.1528 0.136717 12.054 0.205076 11.9629 0.296222L6.81315 5.44596L1.66341 0.296222C1.57227 0.220267 1.46593 0.159503 1.3444 0.113931C1.23806 0.0531666 1.12413 0.0227847 1.0026 0.0227847C0.729167 0.0227847 0.493707 0.121526 0.296225 0.319009C0.113933 0.5013 0.022787 0.729165 0.022787 1.0026C0.022787 1.12413 0.0455735 1.24566 0.0911464 1.36719C0.136719 1.48871 0.205079 1.59505 0.296225 1.6862L5.44596 6.81315L0.296225 11.9629C0.205079 12.054 0.129124 12.1604 0.0683599 12.2819C0.022787 12.4034 5.28991e-07 12.5326 5.28991e-07 12.6693C5.28991e-07 12.9427 0.0911464 13.1782 0.273438 13.3757C0.470921 13.5579 0.698785 13.6491 0.957032 13.6491C1.10894 13.6491 1.23806 13.6263 1.3444 13.5807C1.46593 13.52 1.57227 13.444 1.66341 13.3529L6.81315 8.20312L11.9629 13.3301C12.054 13.4212 12.1528 13.4896 12.2591 13.5352C12.3806 13.5807 12.5022 13.6035 12.6237 13.6035C12.8971 13.6035 13.125 13.5124 13.3073 13.3301C13.5048 13.1326 13.6035 12.9047 13.6035 12.6465C13.6035 12.5098 13.5807 12.3882 13.5352 12.2819C13.4896 12.1604 13.4212 12.054 13.3301 11.9629L8.18034 6.81315Z" fill="#526484"/>
</svg>
