<svg width="19" height="14" viewBox="0 0 19 14" fill="none" xmlns="http://www.w3.org/2000/svg">
<path d="M9.16016 13.3398C7.72786 13.3398 6.45182 13.0208 5.33203 12.3828C4.22526 11.7578 3.28776 11.0612 2.51953 10.293C1.7513 9.52474 1.16536 8.80859 0.761719 8.14453C0.345052 7.48047 0.117188 7.11589 0.078125 7.05078C0.0520833 6.9987 0.0325521 6.9401 0.0195312 6.875C0.00651042 6.8099 0 6.73828 0 6.66016C0 6.59505 0.00651042 6.52995 0.0195312 6.46484C0.0325521 6.39974 0.0585938 6.33464 0.0976562 6.26953L0.078125 6.28906C0.117188 6.22396 0.345052 5.85938 0.761719 5.19531C1.16536 4.53125 1.7513 3.8151 2.51953 3.04688C3.28776 2.27865 4.22526 1.57552 5.33203 0.9375C6.45182 0.3125 7.72786 0 9.16016 0C10.5924 0 11.8685 0.3125 12.9883 0.9375C14.0951 1.57552 15.0326 2.27865 15.8008 3.04688C16.569 3.8151 17.1549 4.53125 17.5586 5.19531C17.9753 5.85938 18.2031 6.22396 18.2422 6.28906C18.2682 6.34115 18.2878 6.39974 18.3008 6.46484C18.3138 6.52995 18.3203 6.59505 18.3203 6.66016C18.3203 6.73828 18.3138 6.8099 18.3008 6.875C18.2878 6.9401 18.2617 6.9987 18.2227 7.05078H18.2422C18.2031 7.11589 17.9753 7.48047 17.5586 8.14453C17.1549 8.80859 16.569 9.52474 15.8008 10.293C15.0326 11.0612 14.0951 11.7578 12.9883 12.3828C11.8685 13.0208 10.5924 13.3398 9.16016 13.3398ZM1.79688 6.66016C1.97917 6.97266 2.27865 7.40885 2.69531 7.96875C3.125 8.52865 3.65234 9.08203 4.27734 9.62891C4.90234 10.1758 5.625 10.651 6.44531 11.0547C7.26562 11.4583 8.17057 11.6602 9.16016 11.6602C10.1497 11.6602 11.0547 11.4583 11.875 11.0547C12.6953 10.651 13.418 10.1758 14.043 9.62891C14.668 9.08203 15.1953 8.52865 15.625 7.96875C16.0417 7.40885 16.3411 6.97266 16.5234 6.66016C16.3411 6.36068 16.0417 5.93099 15.625 5.37109C15.1953 4.8112 14.668 4.25781 14.043 3.71094C13.418 3.16406 12.6953 2.68229 11.875 2.26562C11.0547 1.86198 10.1497 1.66016 9.16016 1.66016C8.17057 1.66016 7.26562 1.86198 6.44531 2.26562C5.625 2.68229 4.90234 3.16406 4.27734 3.71094C3.65234 4.25781 3.125 4.8112 2.69531 5.37109C2.27865 5.93099 1.97917 6.36068 1.79688 6.66016ZM9.16016 9.58984C8.35286 9.58984 7.66276 9.30339 7.08984 8.73047C6.52995 8.15755 6.25 7.46745 6.25 6.66016C6.25 5.85286 6.52995 5.16927 7.08984 4.60938C7.66276 4.03646 8.35286 3.75 9.16016 3.75C9.96745 3.75 10.651 4.03646 11.2109 4.60938C11.7839 5.16927 12.0703 5.85286 12.0703 6.66016C12.0703 7.46745 11.7839 8.15755 11.2109 8.73047C10.651 9.30339 9.96745 9.58984 9.16016 9.58984ZM9.16016 5.41016C8.80859 5.41016 8.50911 5.53385 8.26172 5.78125C8.02734 6.02865 7.91016 6.32161 7.91016 6.66016C7.91016 7.01172 8.02734 7.3112 8.26172 7.55859C8.50911 7.79297 8.80859 7.91016 9.16016 7.91016C9.51172 7.91016 9.80469 7.79297 10.0391 7.55859C10.2865 7.3112 10.4102 7.01172 10.4102 6.66016C10.4102 6.32161 10.2865 6.02865 10.0391 5.78125C9.79167 5.53385 9.4987 5.41016 9.16016 5.41016Z" fill="#8091A7"/>
</svg>
