<svg width="118" height="60" viewBox="0 0 118 60" fill="none" xmlns="http://www.w3.org/2000/svg">
<g clip-path="url(#clip0_2502_4125)">
<path d="M25.973 13.1234C26.0833 13.1231 26.1937 13.1222 26.3041 13.1212C26.8987 13.1185 27.4861 13.1576 28.0639 13.3074C28.0953 13.3153 28.1266 13.3231 28.1589 13.3313C29.0698 13.5654 29.916 13.9709 30.6745 14.5289C30.7 14.5476 30.7 14.5476 30.7261 14.5667C31.1294 14.8643 31.4978 15.1972 31.8528 15.5509C31.8791 15.577 31.9054 15.6031 31.9325 15.63C32.4147 16.1159 32.8235 16.6868 33.1903 17.2644C33.205 17.2875 33.2198 17.3105 33.2349 17.3343C33.8495 18.2979 34.3581 19.3276 34.7664 20.3951C34.7795 20.4292 34.7926 20.4632 34.8061 20.4983C35.2334 21.617 35.5836 22.763 35.8879 23.921C35.8959 23.9512 35.9038 23.9814 35.912 24.0126C36.4095 25.91 36.7681 27.8322 37.0628 29.7709C37.0715 29.8278 37.0802 29.8847 37.0888 29.9415C37.1305 30.215 37.17 30.4888 37.209 30.7627C37.223 30.8606 37.2371 30.9584 37.2512 31.0563C37.433 32.3209 37.5772 33.5866 37.6979 34.8584C37.7135 35.0228 37.7295 35.1871 37.7456 35.3513C37.8448 36.3628 37.9382 37.3734 37.9964 38.3882C38.0104 38.6268 38.0304 38.8647 38.0513 39.1027C38.0946 39.5978 38.1205 40.0928 38.139 40.5895C38.1514 40.9118 38.175 41.2312 38.2073 41.5522C38.2275 41.7538 38.2404 41.9558 38.2522 42.1581C38.2753 42.1532 38.2984 42.1483 38.3221 42.1433C38.4396 42.1188 38.5571 42.0947 38.6746 42.0707C38.6976 42.066 38.7205 42.0613 38.7441 42.0565C39.0637 41.9916 39.3839 41.9321 39.7053 41.8774C39.7567 41.8686 39.7567 41.8686 39.8092 41.8597C39.8441 41.8537 39.8791 41.8478 39.915 41.8416C40.8284 41.686 41.7294 41.4963 42.6327 41.2908C42.6982 41.2759 42.7636 41.2611 42.8291 41.2462C42.862 41.2387 42.8948 41.2313 42.9287 41.2236C43.0238 41.202 43.119 41.1807 43.2143 41.1595C43.2563 41.15 43.2563 41.15 43.2992 41.1402C43.5537 41.0839 43.8137 41.035 44.0605 41.1417C44.2334 41.3196 44.2758 41.4673 44.2867 41.7128C44.2749 42.1938 44.1119 42.7212 43.7687 43.0699C43.6537 43.1732 43.5371 43.2314 43.3932 43.2831C43.3718 43.291 43.3504 43.2988 43.3284 43.3068C43.1176 43.3821 42.9033 43.4383 42.6851 43.4878C42.6639 43.4928 42.6426 43.4977 42.6207 43.5028C41.4109 43.7823 40.1824 43.9862 38.961 44.2087C38.914 44.2172 38.914 44.2172 38.866 44.226C38.8388 44.231 38.8115 44.2359 38.7835 44.241C38.7073 44.2552 38.6313 44.2703 38.5553 44.2857C38.5912 46.3294 39.6456 49.1131 41.081 50.5573C41.508 50.962 41.9868 51.171 42.5729 51.1614C43.414 51.1315 44.1072 50.7199 44.7084 50.152C44.7266 50.1353 44.7449 50.1186 44.7637 50.1014C46.7598 48.207 47.1036 44.7922 47.6445 42.0481C47.6616 41.961 47.6788 41.8738 47.696 41.7867C47.7178 41.6762 47.7396 41.5657 47.7614 41.4552C47.7657 41.4331 47.7701 41.411 47.7745 41.3883C47.8222 41.1463 47.8698 40.9043 47.917 40.6622C48.1075 39.686 48.3049 38.7125 48.5329 37.7442C48.7147 36.9705 48.8837 36.1948 49.0125 35.4103C48.9861 35.4071 48.9596 35.4039 48.9324 35.4006C48.5501 35.3229 48.247 34.9945 48.0236 34.6922C47.5744 34.0053 47.3761 33.249 47.3454 32.4316C47.3435 32.3845 47.3435 32.3845 47.3416 32.3364C47.3157 30.9894 47.681 29.6307 48.3154 28.4498C48.3263 28.4294 48.3372 28.409 48.3484 28.3879C48.4809 28.1414 48.6299 27.912 48.8003 27.69C48.8235 27.658 48.8466 27.626 48.8704 27.5931C49.1166 27.3347 49.3742 27.1732 49.7305 27.16C49.8451 27.1579 49.9042 27.1623 50.0021 27.2232C50.7458 27.9703 50.7734 29.5586 50.7767 30.5336C50.7769 30.5755 50.7771 30.6174 50.7773 30.6593C50.7778 30.7701 50.778 30.8809 50.7781 30.9917C50.7781 31.0374 50.7781 31.083 50.7782 31.1286C50.7794 31.8601 50.759 32.5853 50.6796 33.3131C52.4351 33.1952 54.3167 32.4796 55.6101 31.2521C55.6669 31.1986 55.7245 31.1483 55.7839 31.0978C55.9818 30.9249 56.1632 30.7341 56.3477 30.5471C56.776 30.1129 56.776 30.1129 56.9656 29.9518C57.0668 29.8629 57.1547 29.7605 57.2451 29.6609C57.3177 29.6049 57.3177 29.6049 57.3945 29.6045C57.716 29.7368 57.9564 30.187 58.0906 30.492C58.2386 30.912 58.1608 31.4232 57.9845 31.8237C57.8695 32.0488 57.7381 32.2593 57.5912 32.465C55.9547 34.8189 55.2233 37.7696 54.1058 46.8783C54.1048 46.9532 54.1037 47.0281 54.1026 47.1029C54.0722 49.2089 54.2076 52.1103 55.7415 53.7082C55.7815 53.7506 55.7815 53.7506 55.8223 53.7939C56.3023 54.2916 56.881 54.5419 57.57 54.56C58.1468 54.5563 58.6008 54.2097 59.0018 53.826C59.7613 53.0368 60.2316 51.9699 60.5969 50.9502C60.6253 50.8711 60.6537 50.7921 60.6822 50.713C60.7514 50.5205 60.8201 50.3277 60.8887 50.1349C60.8998 50.1035 60.911 50.0721 60.9225 50.0398C61.2957 49.0232 61.2957 49.0232 61.2237 47.9625C60.6426 45.6298 60.7579 43.1361 61.3187 40C61.3229 39.9791 61.3272 39.9582 61.3315 39.9367C61.7431 37.9141 62.4309 35.7584 63.7436 34.1337C63.7652 34.1062 63.7869 34.0786 63.8092 34.0503C64.0614 33.7334 64.3341 33.4125 64.6529 33.1611C64.6692 33.148 64.6856 33.135 64.7024 33.1215C65.07 32.8294 65.452 32.5944 65.8805 32.4031C65.8997 32.3945 65.9189 32.3859 65.9387 32.3771C66.1615 32.2815 66.4207 32.1901 66.6598 32.2723C66.818 32.345 66.818 32.345 66.8716 32.4252C66.9407 32.6164 66.9192 32.8336 66.8372 33.0167C66.7098 33.2407 66.5086 33.3788 66.3029 33.5258C65.3469 34.2169 64.9708 35.6949 64.6529 36.7781C64.6442 36.8071 64.6356 36.8362 64.6267 36.8661C63.9716 39.0926 63.5578 41.6202 63.5566 43.944C63.5565 43.9889 63.5564 44.0339 63.5563 44.0788C63.5561 44.1726 63.5561 44.2663 63.5561 44.3601C63.5561 44.4541 63.5559 44.5482 63.5555 44.6422C63.5521 45.4034 63.5655 46.1639 63.6754 46.9187C63.6805 46.9545 63.6856 46.9902 63.6908 47.0271C63.868 48.2136 64.2202 49.4543 65.0772 50.3343C65.1157 50.3738 65.1157 50.3738 65.1549 50.4141C65.1793 50.438 65.2037 50.4618 65.2288 50.4863C65.245 50.5043 65.2612 50.5223 65.2779 50.5408C65.6701 50.9635 66.2744 51.228 66.8464 51.2558C67.5935 51.278 68.2276 51.0461 68.8156 50.5864C68.8667 50.5466 68.9185 50.5081 68.9705 50.4696C69.3812 50.1615 69.734 49.7972 70.0391 49.3844C70.0785 49.3313 70.1188 49.2791 70.1593 49.2268C71.2712 47.7739 71.9621 45.8506 72.2584 44.0537C72.2768 43.9431 72.2961 43.8329 72.3169 43.7227C72.5247 42.615 72.5327 41.5241 72.5238 40.4019C72.5225 40.2308 72.522 40.0597 72.5219 39.8885C72.5225 38.331 72.5225 38.331 72.4125 36.7781C72.4085 36.7414 72.4085 36.7414 72.4045 36.704C72.3772 36.4501 72.3485 36.1964 72.3175 35.9428C72.2955 35.7603 72.2798 35.5781 72.2685 35.3946C72.2654 35.3192 72.2654 35.3192 72.2306 35.2584C72.1581 35.2478 72.0885 35.2412 72.0156 35.2367C71.9698 35.2334 71.9241 35.2301 71.8784 35.2268C71.8422 35.2243 71.8422 35.2243 71.8053 35.2218C70.7101 35.1455 69.3863 35.0239 68.5933 34.1641C68.5791 34.1497 68.5648 34.1352 68.5502 34.1203C68.1988 33.7434 68.1215 33.2541 68.1273 32.7565C68.1276 32.7177 68.1279 32.6789 68.1282 32.639C68.1328 32.357 68.1533 32.0964 68.2296 31.8237C68.2353 31.8027 68.241 31.7818 68.2468 31.7602C68.3841 31.267 68.6057 30.7723 68.957 30.3951C68.9804 30.3694 69.0037 30.3436 69.0277 30.317C69.3833 29.9407 69.8348 29.709 70.3578 29.6899C70.9868 29.6793 71.5181 29.8107 72.0184 30.2128C72.0497 30.236 72.0809 30.2592 72.1131 30.2831C72.9312 31.0498 73.3766 32.3169 73.6078 33.3853C73.6128 33.4082 73.6178 33.4311 73.6229 33.4548C73.6525 33.6024 73.6594 33.74 73.6552 33.8906C74.8543 33.7098 76.0303 33.4554 77.2046 33.1534C77.405 33.102 77.6059 33.0542 77.8078 33.0091C77.8056 32.9782 77.8035 32.9474 77.8013 32.9155C77.7704 32.4209 77.7728 31.9261 77.7735 31.4307C77.7737 31.3051 77.7736 31.1794 77.7734 31.0537C77.7733 30.9554 77.7733 30.857 77.7734 30.7586C77.7734 30.7123 77.7734 30.666 77.7733 30.6197C77.7722 29.6854 77.7722 29.6854 77.8987 29.4833C78.2641 29.1316 78.8227 29.1685 79.2904 29.1728C79.8075 29.184 80.5946 29.2282 80.9904 29.6049C81.1046 29.7332 81.0886 29.8669 81.0814 30.0304C81.0699 30.1598 81.054 30.2885 81.0379 30.4173C81.0308 30.4764 81.0236 30.5354 81.0165 30.5944C81.0088 30.658 81.0011 30.7215 80.9933 30.785C80.9651 31.0157 80.9378 31.2464 80.9106 31.4771C80.9077 31.5016 80.9048 31.5261 80.9019 31.5513C80.8301 32.1618 80.7655 32.773 80.7018 33.3844C80.6931 33.4675 80.6844 33.5507 80.6757 33.6339C80.582 34.5289 80.4916 35.4243 80.4364 36.3227C80.41 36.7479 80.3774 37.1717 80.3331 37.5954C80.2135 38.7461 80.1312 39.9066 80.1285 41.0638C80.1283 41.0935 80.1281 41.1232 80.1279 41.1537C80.125 41.8034 80.125 41.8034 80.3539 42.4012C80.3739 42.4112 80.3939 42.4213 80.4145 42.4316C80.6324 41.9843 80.7415 41.5023 80.867 41.0229C81.2412 39.6009 81.6626 38.187 82.1188 36.7894C82.1433 36.7141 82.1676 36.6389 82.1919 36.5636C82.6704 35.0836 83.2181 33.6311 83.8699 32.2188C83.8862 32.1837 83.9024 32.1486 83.9191 32.1124C84.313 31.2635 84.7356 30.438 85.4019 29.7708C85.447 29.7256 85.4915 29.6799 85.5349 29.6331C86.025 29.114 86.6021 28.8366 87.316 28.8073C87.9043 28.794 88.3953 28.9042 88.8346 29.3232C89.6868 30.2005 89.6943 31.6544 89.7199 32.7964C89.7206 32.8251 89.7214 32.8538 89.7221 32.8835C89.7812 35.5921 89.149 38.3653 87.9392 44.998C87.7447 45.9575 87.7447 45.9575 87.6588 46.9301C87.658 46.9634 87.6572 46.9968 87.6563 47.0311C87.6545 47.1557 87.6545 47.2657 87.6891 47.386C87.8361 47.3635 87.9066 47.3503 88.0131 47.2435C88.2284 46.8908 88.2993 46.42 88.4005 46.0244C88.8955 44.0952 89.4488 42.1804 90.023 40.2736C90.0289 40.254 90.0348 40.2344 90.0409 40.2142C90.4514 38.8519 90.8949 37.5026 91.366 36.1602C91.4271 35.986 91.4876 35.8115 91.5478 35.6369C93.3835 30.3193 93.3835 30.3193 95.2515 28.8979C95.6776 28.7246 96.2136 28.7744 96.6319 28.9428C97.1599 29.1838 97.4773 29.6586 97.6917 30.1824C97.9082 30.7662 98.0073 31.3873 98.0554 32.0061C98.0572 32.0282 98.0589 32.0503 98.0607 32.0731C98.2392 34.4497 97.7671 36.8622 97.4075 39.2002C97.0391 41.5957 96.6776 43.9937 96.5096 46.4134C96.5078 46.4388 96.5059 46.4642 96.5041 46.4903C96.4127 47.7829 96.3856 49.1043 96.5096 50.3951C96.5115 50.4152 96.5134 50.4352 96.5154 50.4558C96.6927 52.4616 96.6927 52.4616 97.6917 54.1337C97.7886 54.2044 97.888 54.262 97.9948 54.3161C98.013 54.3265 98.0311 54.3368 98.0498 54.3475C98.3132 54.4751 98.688 54.4361 98.9609 54.3579C99.2765 54.2452 99.5292 54.0763 99.7831 53.8602C99.8111 53.8383 99.8111 53.8383 99.8396 53.8159C100.008 53.681 100.136 53.5133 100.268 53.3435C100.29 53.3159 100.312 53.2884 100.334 53.26C101.53 51.716 102.08 49.6991 102.517 47.8248C102.545 47.7036 102.574 47.5824 102.602 47.4612C102.666 47.1891 102.729 46.9169 102.793 46.6446C102.805 46.5945 102.816 46.5444 102.828 46.4943C102.862 46.3495 102.895 46.2048 102.929 46.06C102.939 46.0155 102.95 45.9709 102.96 45.9264C103.098 45.3688 103.098 45.3688 103.169 44.8006C103.17 44.7698 103.17 44.7698 103.172 44.7383C103.176 44.6742 103.179 44.6101 103.182 44.546C103.184 44.5044 103.186 44.4629 103.188 44.4214C103.199 44.2308 103.208 44.0404 103.212 43.8496C103.225 43.3601 103.284 42.8803 103.354 42.3962C103.364 42.3319 103.373 42.2675 103.382 42.2032C103.788 39.3688 104.633 36.5477 106.563 33.8212C106.602 33.7704 106.641 33.7192 106.679 33.6677C107.113 33.0881 107.608 32.5471 108.149 32.0669C108.174 32.044 108.198 32.0211 108.224 31.9975C108.432 31.8053 108.652 31.6308 108.876 31.459C108.894 31.4452 108.912 31.4315 108.93 31.4174C110.038 30.571 111.421 29.8106 112.847 29.7872C112.906 29.786 112.906 29.786 112.965 29.7847C113.108 29.7828 113.25 29.7845 113.393 29.7872C113.421 29.7878 113.45 29.7883 113.479 29.7889C114.568 29.8132 115.861 29.9229 116.705 30.7012C116.914 30.9366 116.983 31.1597 116.98 31.4698C116.952 31.7647 116.76 31.9971 116.541 32.1825C116.033 32.5624 115.368 32.7465 114.738 32.7375C114.712 32.7372 114.687 32.7369 114.661 32.7366C114.633 32.7361 114.633 32.7361 114.605 32.7356C114.599 32.7153 114.593 32.695 114.587 32.6742C114.442 32.2261 114.126 31.8836 113.72 31.6519C113.098 31.3505 112.379 31.3445 111.726 31.5502C111.705 31.5565 111.685 31.5629 111.664 31.5694C111.148 31.7362 110.695 32.0058 110.271 32.3404C110.228 32.3736 110.228 32.3736 110.184 32.4075C109.665 32.8214 109.213 33.2982 108.816 33.8298C108.802 33.8486 108.788 33.8674 108.773 33.8868C107.156 36.0661 106.433 38.8227 106.088 47.234C106.294 48.5773 106.717 50.2317 107.836 51.1151C108.308 51.455 108.841 51.6424 109.428 51.5616C110.18 51.4089 110.721 50.8346 111.129 50.2181C112.231 48.5152 112.72 46.3799 113.09 44.4073C113.094 44.3816 113.099 44.356 113.104 44.3295C113.305 43.2589 113.408 42.2042 113.456 41.1169C113.53 39.4587 113.665 37.8028 113.808 36.1494C113.817 36.051 113.825 35.9525 113.833 35.8541C113.977 34.1589 113.977 34.1589 114.15 33.8906C114.65 33.5337 115.422 33.5748 116.003 33.6656C116.317 33.7235 116.629 33.7931 116.848 34.0426C117.002 34.2928 116.899 34.6813 116.855 34.9541C116.845 35.0181 116.836 35.0821 116.826 35.1461C116.805 35.283 116.784 35.4198 116.763 35.5566C116.658 36.2362 116.569 36.9128 116.515 37.5988C116.513 37.6214 116.511 37.6441 116.509 37.6674C116.488 37.9392 116.467 38.211 116.447 38.4829C116.427 38.7506 116.405 39.0181 116.383 39.2856C116.187 41.6853 116.054 44.1267 116.237 46.5324C116.242 46.5972 116.247 46.662 116.251 46.7269C116.37 48.835 116.37 48.835 117.365 50.603C117.548 50.7401 117.748 50.7815 117.97 50.8207C118.061 51.7513 118.061 51.7513 117.879 52.0669C117.869 52.086 117.859 52.1051 117.849 52.1248C117.708 52.359 117.43 52.5028 117.173 52.5685C116.619 52.67 116.095 52.5742 115.618 52.2713C114.512 51.4758 114.021 49.7828 113.801 48.5064C113.772 48.3259 113.748 48.145 113.726 47.9635C113.719 47.9814 113.713 47.9993 113.706 48.0177C113.188 49.4056 112.639 50.8068 111.645 51.9294C111.604 51.9758 111.564 52.0226 111.523 52.0694C110.948 52.7257 110.159 53.2673 109.27 53.3435C107.841 53.4084 106.584 53.0679 105.512 52.0973C104.451 51.1229 103.919 49.7142 103.542 48.3587C103.537 48.3765 103.531 48.3943 103.526 48.4127C102.146 53.249 102.146 53.249 100.48 55.0456C100.461 55.0665 100.442 55.0874 100.422 55.109C99.8155 55.7448 98.9925 56.0569 98.127 56.0863C97.4086 56.0994 96.8798 55.8984 96.3277 55.4407C96.3065 55.4238 96.2853 55.4068 96.2634 55.3893C94.6287 54.0494 94.2283 51.1993 94.0241 49.2401C93.9961 48.9569 93.9779 48.6732 93.9634 48.3891C93.9617 48.3577 93.96 48.3264 93.9583 48.2941C93.8184 45.6475 94.1105 43.008 94.5094 40.3962C94.5484 40.1404 94.587 39.8844 94.6248 39.6284C94.7567 38.7372 94.9008 37.8493 95.0625 36.9631C95.2817 35.7614 95.4728 34.563 95.6116 33.3492C95.6156 33.314 95.6156 33.314 95.6197 33.2782C95.6353 33.1419 95.6507 33.0055 95.6658 32.8692C95.6726 32.8078 95.6796 32.7464 95.6865 32.685C95.8362 31.6037 95.8362 31.6037 95.5699 30.5775C95.4712 30.4808 95.3902 30.4481 95.2554 30.4369C95.0875 30.4457 94.9911 30.5249 94.8728 30.6383C94.8532 30.6571 94.8335 30.6759 94.8133 30.6953C94.4885 31.0352 94.2934 31.4854 94.0898 31.9035C94.058 31.9683 94.0257 32.0327 93.993 32.0969C93.9314 32.218 93.8713 32.3398 93.8119 32.462C93.7943 32.4981 93.7943 32.4981 93.7763 32.5349C93.2313 33.6622 92.8474 34.8642 92.4479 36.0486C92.4348 36.0874 92.4217 36.1262 92.4086 36.165C92.0257 37.2999 91.656 38.4385 91.3011 39.5824C91.2712 39.6786 91.2413 39.7747 91.2114 39.8708C90.5579 41.9694 89.9365 44.0778 89.3162 46.1865C89.2354 46.4611 89.1544 46.7356 89.0732 47.01C89.0308 47.1533 88.9885 47.2967 88.9461 47.44C88.9229 47.5186 88.8997 47.5971 88.8765 47.6757C88.7698 48.0365 88.6636 48.3972 88.5663 48.7607C88.5595 48.7863 88.5526 48.8118 88.5455 48.8382C88.5153 48.9507 88.4856 49.0634 88.4572 49.1764C88.3672 49.5179 88.2309 49.9528 87.938 50.1745C87.5028 50.4228 86.9632 50.4229 86.4876 50.3033C86.0731 50.1871 85.503 49.9821 85.2642 49.6049C85.1674 49.3954 85.1197 49.1964 85.1127 48.9666C85.1109 48.9131 85.1109 48.9131 85.109 48.8586C85.0719 47.1292 85.319 45.3424 85.5808 43.6367C85.5988 43.5182 85.6166 43.3996 85.6342 43.2811C85.8004 42.1658 85.9776 41.0524 86.1616 39.9399C86.1654 39.9172 86.1691 39.8945 86.173 39.8712C86.2488 39.4126 86.3248 38.954 86.4015 38.4956C86.5602 37.5466 86.7144 36.5973 86.8554 35.6455C86.8586 35.6243 86.8617 35.6031 86.865 35.5813C87.037 34.4208 87.19 33.2644 87.2778 32.0942C87.2865 31.98 87.2967 31.8664 87.3113 31.7528C87.3618 31.3532 87.36 30.9144 87.1132 30.5775C87.0008 30.4809 86.8789 30.4315 86.7282 30.4406C86.1497 30.5679 85.7929 31.1753 85.4915 31.6416C85.3544 31.8584 85.2325 32.0833 85.1127 32.31C85.0939 32.3451 85.0939 32.3451 85.0748 32.381C84.6116 33.2528 84.2652 34.1893 83.9146 35.1109C83.8768 35.2102 83.8385 35.3093 83.8 35.4083C83.4182 36.3991 83.0985 37.4157 82.7738 38.4264C82.7133 38.6145 82.6522 38.8024 82.5908 38.9902C82.1921 40.2108 81.8224 41.439 81.4636 42.6719C81.4457 42.7335 81.4277 42.7951 81.4097 42.8567C80.9916 44.2876 80.6556 45.7148 80.4486 47.1922C80.4453 47.2155 80.4421 47.2388 80.4387 47.2628C80.3666 47.816 80.3754 48.3758 80.3698 48.9326C80.3645 49.4331 80.3459 49.9276 80.2933 50.4255C80.2876 50.4823 80.2876 50.4823 80.2818 50.5402C80.1492 51.8081 80.1492 51.8081 79.687 52.2188C79.38 52.4254 79.0215 52.4689 78.6622 52.4126C78.3605 52.3448 78.1014 52.206 77.929 51.9453C77.8251 51.7416 77.7902 51.5617 77.7929 51.3348C77.7927 51.3053 77.7926 51.2759 77.7924 51.2455C77.7921 51.1472 77.7927 51.0489 77.7932 50.9505C77.7932 50.8792 77.793 50.8078 77.7929 50.7365C77.7926 50.5612 77.793 50.3859 77.7935 50.2106C77.7942 50.0005 77.7941 49.7905 77.794 49.5804C77.7938 49.1928 77.7942 48.8051 77.795 48.4175C77.7957 48.0338 77.7961 47.6501 77.7963 47.2664C77.7963 47.2425 77.7963 47.2186 77.7963 47.194C77.7963 47.0728 77.7964 46.9516 77.7964 46.8303C77.7967 45.972 77.7975 45.1136 77.7986 44.2552C77.7998 43.4214 77.8006 42.5876 77.8011 41.7538C77.8011 41.7152 77.8011 41.7152 77.8012 41.6759C77.8013 41.4177 77.8015 41.1595 77.8016 40.9013C77.8019 40.3754 77.8023 39.8495 77.8027 39.3235C77.8027 39.2994 77.8027 39.2752 77.8027 39.2503C77.8038 37.6359 77.8057 36.0216 77.8078 34.4073C77.7572 34.4214 77.7572 34.4214 77.7056 34.4359C77.5776 34.4717 77.4495 34.5073 77.3214 34.5428C77.2665 34.5581 77.2117 34.5734 77.1568 34.5888C76.0862 34.8883 75.0044 35.093 73.8977 35.1976C73.8998 35.221 73.902 35.2444 73.9042 35.2685C73.9248 35.4941 73.9453 35.7197 73.9657 35.9453C73.9762 36.0612 73.9867 36.177 73.9973 36.2929C74.0241 36.5856 74.0498 36.8784 74.0743 37.1714C74.0792 37.2302 74.0844 37.289 74.0895 37.3478C74.1522 38.0808 74.1495 38.8139 74.1481 39.5491C74.1477 39.7248 74.1479 39.9004 74.1483 40.076C74.1494 40.7166 74.1482 41.3565 74.1128 41.9962C74.1116 42.0181 74.1104 42.0399 74.1092 42.0624C73.9896 44.1657 73.4495 46.249 72.5337 48.1459C72.5215 48.1717 72.5092 48.1975 72.4966 48.2241C72.026 49.2146 71.4328 50.1975 70.6847 51.003C70.6492 51.0441 70.6139 51.0852 70.5787 51.1265C70.3593 51.3771 70.1218 51.5869 69.8559 51.7856C69.8083 51.8217 69.7618 51.8591 69.7153 51.8966C68.7551 52.6674 67.7208 53.0051 66.5018 53.0395C66.4674 53.0408 66.4329 53.042 66.3974 53.0433C65.1497 53.0684 64.0741 52.4823 63.191 51.64C62.7135 51.1756 62.3542 50.6309 62.0159 50.0608C61.938 50.2527 61.8634 50.4458 61.7895 50.6392C61.5609 51.2363 61.329 51.8275 61.0459 52.4012C61.0241 52.4457 61.0241 52.4457 61.0019 52.491C60.7098 53.0834 60.3738 53.6526 59.9547 54.1641C59.9308 54.1943 59.9069 54.2244 59.8823 54.2554C59.1691 55.1401 58.2948 55.8267 57.1453 55.9802C57.1018 55.9836 57.0582 55.9861 57.0146 55.9878C56.9862 55.9891 56.9579 55.9903 56.9287 55.9915C55.9646 56.0118 55.119 55.6716 54.4093 55.0248C52.8522 53.5223 52.5574 51.0773 52.4419 49.0303C52.4352 48.9123 52.4283 48.7943 52.4213 48.6764C52.4158 48.5838 52.4105 48.4912 52.4052 48.3986C52.4027 48.3551 52.4002 48.3117 52.3976 48.2683C52.3838 48.0349 52.3746 47.802 52.3736 47.5682C52.3734 47.5474 52.3733 47.5267 52.3731 47.5054C52.3733 47.402 52.3787 47.3013 52.3921 47.1989C52.4047 47.1025 52.4114 47.0116 52.4121 46.9146C52.4124 46.8839 52.4127 46.8532 52.413 46.8215C52.4133 46.7888 52.4135 46.756 52.4137 46.7223C52.4146 46.6502 52.4154 46.5782 52.4163 46.5061C52.4175 46.3947 52.4187 46.2832 52.4195 46.1718C52.4242 45.5817 52.4631 45.0003 52.5218 44.4137C52.5286 44.3464 52.5352 44.279 52.5419 44.2116C52.5738 43.8885 52.6075 43.5656 52.6422 43.2428C52.6449 43.2183 52.6475 43.1939 52.6502 43.1687C52.7347 42.3861 52.8292 41.6075 52.9653 40.832C52.9819 40.7373 52.9983 40.6426 53.0147 40.5479C53.3195 38.7898 53.6854 37.0587 54.1296 35.3307C54.2346 34.9221 54.3368 34.5129 54.4381 34.1033C54.412 34.1242 54.3858 34.145 54.3588 34.1665C54.1322 34.3458 53.901 34.5064 53.6501 34.6505C53.6317 34.6612 53.6132 34.672 53.5943 34.6831C52.6499 35.2306 51.5342 35.4883 50.4552 35.5818C50.3733 35.59 50.3036 35.6019 50.2249 35.6231C50.2214 35.6411 50.2179 35.6591 50.2143 35.6777C50.1147 36.1898 50.0143 36.7018 49.9135 37.2137C49.8934 37.3158 49.8733 37.418 49.8533 37.5202C49.4806 39.419 49.0488 41.3155 48.5034 43.1722C48.2921 43.8957 48.1372 44.6334 47.9743 45.369C47.6322 46.912 47.6322 46.912 47.3757 47.6596C47.3652 47.6907 47.3546 47.7219 47.3437 47.7539C47.0292 48.67 46.5829 49.5519 46.0117 50.3343C45.999 50.3521 45.9863 50.3698 45.9731 50.388C45.2146 51.4341 44.1249 52.1216 42.8518 52.3366C42.2269 52.4288 41.5357 52.416 40.9195 52.2796C40.8959 52.2746 40.8723 52.2695 40.848 52.2643C39.6395 51.9981 38.5743 51.2546 37.8278 50.2736C37.8131 50.2542 37.7984 50.2349 37.7832 50.2149C37.4167 49.7297 37.1174 49.2123 36.8579 48.6626C36.847 48.6399 36.8362 48.6171 36.825 48.5937C36.6337 48.1906 36.4808 47.7797 36.3426 47.3556C36.3294 47.316 36.3294 47.316 36.3159 47.2757C36.0555 46.4928 35.7364 45.5125 35.7364 44.6808C35.0294 44.7416 34.3229 44.804 33.6179 44.8843C33.5962 44.8867 33.5745 44.8891 33.5522 44.8917C33.4949 44.8981 33.4376 44.9047 33.3804 44.9113C33.0271 44.9479 32.6728 44.9621 32.318 44.9728C32.2824 44.9739 32.2824 44.9739 32.2462 44.975C32.0664 44.9805 31.8867 44.9856 31.7069 44.9905C31.6805 44.9912 31.654 44.9919 31.6268 44.9927C30.8124 45.0147 30.0049 45.0155 29.1915 44.9636C29.0361 44.9539 28.8806 44.9476 28.725 44.9419C27.9449 44.9122 27.1722 44.8356 26.4019 44.7065C26.2288 44.6789 26.0604 44.6745 25.8854 44.6808C25.8759 44.699 25.8665 44.7172 25.8568 44.7359C25.5072 45.4086 25.5072 45.4086 25.3352 45.7346C25.2654 45.867 25.1968 45.9999 25.1291 46.1334C24.7549 46.8692 24.3254 47.5702 23.8848 48.2675C23.8563 48.3129 23.8563 48.3129 23.8271 48.3593C23.1589 49.4215 22.4447 50.457 21.6884 51.4581C21.6566 51.5003 21.6248 51.5425 21.593 51.5847C21.3878 51.858 21.178 52.1252 20.9551 52.3842C20.8854 52.4654 20.8166 52.5473 20.7477 52.6292C20.6637 52.7288 20.5797 52.8283 20.4955 52.9277C20.4671 52.9611 20.4388 52.9946 20.4105 53.0281C20.3895 53.0529 20.3895 53.0529 20.368 53.0781C20.2828 53.1789 20.2004 53.2815 20.1187 53.3853C19.9844 53.5513 19.835 53.6996 19.6833 53.8494C19.5677 53.9637 19.4572 54.0796 19.3524 54.204C19.2891 54.277 19.2201 54.3438 19.1512 54.4115C19.0993 54.4645 19.0513 54.519 19.0034 54.5755C18.8753 54.7232 18.7389 54.8619 18.601 55.0003C18.558 55.0434 18.5154 55.0867 18.4727 55.1301C18.2857 55.318 18.0903 55.4882 17.8833 55.6535C17.8172 55.7087 17.7518 55.7647 17.6863 55.8207C17.5393 55.946 17.3907 56.069 17.2411 56.1911C17.1462 56.2693 17.0524 56.3488 16.9588 56.4286C16.8134 56.5524 16.667 56.6748 16.5188 56.7954C16.4519 56.8501 16.3854 56.905 16.319 56.9602C14.3901 58.5587 12.0207 59.703 9.51752 59.9696C9.49189 59.9725 9.46627 59.9753 9.43987 59.9783C7.81851 60.1383 6.18609 59.8673 4.6981 59.2097C4.67519 59.1997 4.65229 59.1897 4.62869 59.1794C3.47371 58.6698 2.32908 57.8674 1.54578 56.8693C1.51084 56.8265 1.51084 56.8265 1.47521 56.7827C0.193136 55.1757 -0.166581 53.1157 0.0232341 51.1069C0.21582 49.423 0.881405 47.8199 1.75795 46.383C1.78499 46.338 1.81202 46.2931 1.83906 46.2481C2.30278 45.4841 2.85852 44.7519 3.49561 44.1247C3.5491 44.0701 3.59886 44.0133 3.64859 43.9552C3.81925 43.7572 4.00466 43.5761 4.20283 43.4062C4.25911 43.3564 4.3139 43.3059 4.36835 43.2542C4.59374 43.0402 4.82487 42.8413 5.07191 42.653C5.11957 42.6162 5.16645 42.5784 5.21327 42.5406C6.36612 41.6176 7.82621 40.9501 9.27503 40.6687C9.29849 40.6638 9.32195 40.6589 9.34612 40.6539C10.4348 40.4342 11.6188 40.5518 12.6698 40.8815C12.6949 40.8892 12.7199 40.897 12.7457 40.9051C13.7641 41.2275 14.696 41.7459 15.4887 42.462C15.5048 42.4764 15.5209 42.4908 15.5374 42.5056C15.6544 42.6108 15.7689 42.7183 15.8828 42.8267C15.9026 42.8454 15.9224 42.8641 15.9428 42.8833C16.6444 43.5478 16.6444 43.5478 16.6781 43.9067C16.6865 44.2454 16.5985 44.5211 16.3678 44.772C16.2071 44.9322 16.0758 45.042 15.8449 45.0608C15.526 45.0477 15.2954 44.7414 15.0871 44.527C15.0576 44.4969 15.028 44.4668 14.9983 44.4367C14.9439 44.3813 14.8896 44.3259 14.8354 44.2703C14.7606 44.1939 14.6852 44.1182 14.6097 44.0426C14.5799 44.0121 14.5502 43.9815 14.5205 43.9509C13.3604 42.7635 11.7891 42.0604 10.1277 42.0352C9.46347 42.0371 8.81378 42.1652 8.18384 42.3708C8.15299 42.3808 8.15299 42.3808 8.1215 42.3909C6.66105 42.8732 5.27369 43.923 4.33437 45.1368C4.30672 45.1707 4.27897 45.2044 4.25113 45.2382C2.85098 46.9438 1.85257 49.1061 1.6064 51.307C1.60354 51.3312 1.60068 51.3554 1.59774 51.3804C1.42951 52.9729 1.71568 54.826 2.7279 56.1094C3.02063 56.4719 3.33294 56.7921 3.69784 57.0821C3.72676 57.1058 3.75567 57.1296 3.78546 57.1541C4.07132 57.3838 4.3804 57.5688 4.6981 57.7508C4.73093 57.7698 4.73093 57.7698 4.76442 57.7891C5.13033 57.9992 5.5144 58.1546 5.91053 58.2979C5.9353 58.3068 5.96008 58.3158 5.9856 58.3251C8.06399 59.0635 10.3961 58.6654 12.3481 57.7407C12.5475 57.6453 12.7453 57.5465 12.9426 57.4468C12.9682 57.434 12.9938 57.4212 13.0202 57.408C13.9959 56.9172 14.9005 56.272 15.7396 55.5752C15.8134 55.514 15.888 55.4537 15.9624 55.3932C16.3086 55.1081 16.6409 54.8115 16.9659 54.5022C17.0302 54.4418 17.0953 54.3824 17.1605 54.323C17.4369 54.0703 17.7006 53.8048 17.9647 53.5393C18.0466 53.4571 18.1286 53.375 18.2107 53.2929C18.2635 53.2399 18.3162 53.187 18.369 53.134C18.3932 53.1098 18.4174 53.0856 18.4423 53.0607C18.5691 52.9331 18.6912 52.8031 18.8082 52.6664C18.8755 52.5881 18.9459 52.513 19.0162 52.4373C19.1462 52.2961 19.2694 52.1508 19.3896 52.0011C19.4658 51.9071 19.5439 51.8151 19.6224 51.723C19.7666 51.5532 19.9046 51.3792 20.0412 51.2032C20.0981 51.1299 20.1558 51.0573 20.2143 50.9852C20.4492 50.6953 20.6687 50.3959 20.8841 50.0912C20.9109 50.0535 20.9377 50.0159 20.9645 49.9783C21.1882 49.6635 21.4026 49.3433 21.6134 49.0198C21.6465 48.9691 21.6796 48.9185 21.7127 48.8679C21.779 48.7664 21.8453 48.6649 21.9115 48.5634C21.997 48.4324 22.0829 48.3017 22.1688 48.1709C22.5596 47.5764 22.9409 46.9794 23.2786 46.3526C23.2943 46.3236 23.3099 46.2946 23.326 46.2647C23.3427 46.2339 23.3593 46.2031 23.3764 46.1713C23.3933 46.1399 23.4103 46.1085 23.4277 46.0762C23.4621 46.0123 23.4965 45.9484 23.5309 45.8845C23.6166 45.7253 23.704 45.5679 23.7958 45.4122C23.9646 45.1206 24.1027 44.8124 24.2459 44.5076C24.2666 44.4638 24.2876 44.4202 24.3092 44.3769C24.0046 44.2846 23.7008 44.1984 23.3891 44.1335C21.4915 43.7379 19.5707 42.8799 17.9742 41.7933C17.9545 41.7799 17.9349 41.7666 17.9146 41.7528C17.4751 41.4524 17.0602 41.1236 16.6709 40.7599C16.6437 40.7346 16.6437 40.7346 16.6159 40.7088C16.3893 40.4981 16.1656 40.2855 15.9485 40.0649C15.8676 39.985 15.7826 39.911 15.6967 39.8367C15.5084 39.6714 15.3517 39.4855 15.1955 39.2899C15.1526 39.2367 15.109 39.1843 15.0652 39.1318C14.6578 38.6413 14.3032 38.1139 13.9732 37.5684C13.9586 37.5444 13.944 37.5205 13.929 37.4958C12.7673 35.5727 12.1281 33.3242 11.9424 31.0942C11.9377 31.0417 11.9377 31.0417 11.9329 30.9882C11.8806 30.3792 11.8746 29.7693 11.8726 29.1585C11.8723 29.097 11.8719 29.0356 11.8714 28.9741C11.8666 28.2026 11.9263 27.4442 12.0542 26.6831C12.0579 26.6603 12.0617 26.6375 12.0655 26.6139C12.336 24.9779 12.8161 23.3867 13.5185 21.8845C13.5383 21.8417 13.5383 21.8417 13.5584 21.7981C13.89 21.0796 14.2671 20.3882 14.7007 19.7264C14.7139 19.7061 14.7271 19.6858 14.7408 19.6648C15.0131 19.2467 15.3028 18.8429 15.61 18.4498C15.6302 18.424 15.6504 18.3981 15.6712 18.3715C16.0519 17.8894 16.462 17.4378 16.8955 17.0032C16.9458 16.9526 16.9959 16.9018 17.046 16.851C17.245 16.6504 17.45 16.4679 17.6711 16.2918C17.7045 16.2634 17.7378 16.2348 17.7707 16.2058C18.0175 15.99 18.2785 15.7982 18.5457 15.6086C18.6047 15.5666 18.6633 15.5242 18.7218 15.4815C20.4717 14.2056 22.5633 13.3256 24.7335 13.1611C24.7674 13.1585 24.8012 13.1558 24.8361 13.1531C25.2149 13.127 25.5934 13.124 25.973 13.1234ZM22.8846 14.4073C22.858 14.4141 22.8315 14.421 22.8041 14.428C22.1904 14.59 21.5912 14.8385 21.0313 15.1373C20.9717 15.1689 20.9117 15.1996 20.8515 15.2301C19.7254 15.8073 18.6521 16.6408 17.8227 17.5988C17.7662 17.6612 17.7092 17.723 17.6522 17.785C17.2407 18.2348 16.8753 18.715 16.5193 19.2097C16.5002 19.2363 16.4811 19.2628 16.4614 19.2901C14.9212 21.4386 13.9779 23.9847 13.5712 31.7829C13.9427 34.0463 14.7685 36.1692 16.2571 37.9344C16.3034 37.9894 16.349 38.0449 16.3945 38.1005C16.7482 38.5289 17.1422 38.9291 17.5802 39.2705C17.6365 39.3185 17.6927 39.3667 17.7488 39.4149C18.3369 39.906 18.9905 40.3176 19.6589 40.6887C19.7049 40.7143 19.7508 40.74 19.7966 40.766C20.4738 41.1499 21.2115 41.4235 21.9439 41.6805C21.9856 41.6951 22.0273 41.7098 22.0689 41.7245C22.6107 41.9157 23.155 42.0893 23.7106 42.2359C23.7342 42.2422 23.7578 42.2485 23.7822 42.2549C24.237 42.3747 24.6867 42.471 25.1579 42.4924C25.2793 42.2597 25.3828 42.028 25.4686 41.78C25.4807 41.7455 25.4928 41.711 25.5053 41.6754C25.7294 41.0349 25.9445 40.3911 26.1608 39.7478C26.1845 39.6775 26.2084 39.6074 26.2325 39.5372C26.3387 39.2257 26.4266 38.9099 26.5124 38.5923C26.5202 38.5634 26.5281 38.5345 26.5362 38.5047C27.1778 36.131 27.6263 33.6984 27.8252 31.2462C27.8275 31.2187 27.8298 31.1912 27.8322 31.1628C27.9299 29.975 27.9286 28.7895 27.9162 27.5988C27.9159 27.5637 27.9155 27.5285 27.9152 27.4923C27.8999 25.8446 27.7464 24.2003 27.2681 22.617C27.2265 22.4754 27.1922 22.332 27.1584 22.1884C28.2891 22.1087 29.4404 23.0434 30.2501 23.7386C30.2765 23.7606 30.3029 23.7826 30.33 23.8053C30.592 24.0308 30.7951 24.272 30.8563 24.6201C30.8809 24.9743 30.8289 25.3302 30.7909 25.6818C30.7839 25.7473 30.7769 25.8128 30.77 25.8783C30.7553 26.0159 30.7405 26.1535 30.7255 26.2911C30.7106 26.429 30.6959 26.5669 30.6814 26.7048C30.5815 27.6553 30.4613 28.6003 30.3107 29.5441C30.3071 29.5669 30.3035 29.5896 30.2997 29.6131C30.2546 29.8957 30.2068 30.1779 30.1573 30.4597C30.1505 30.4987 30.1437 30.5376 30.1366 30.5778C29.8615 32.1482 29.5358 33.7093 29.1589 35.2584C29.1463 35.3101 29.1463 35.3101 29.1335 35.363C28.657 37.3181 28.1168 39.2696 27.3703 41.1403C27.3092 41.294 27.2487 41.4479 27.188 41.6017C27.1086 41.8032 27.029 42.0047 26.9491 42.206C26.9368 42.2369 26.9246 42.2678 26.912 42.2996C26.8887 42.3582 26.8654 42.4167 26.8421 42.4753C26.8318 42.5012 26.8216 42.5271 26.811 42.5538C26.8019 42.5765 26.7929 42.5993 26.7836 42.6227C26.7626 42.6703 26.7626 42.6703 26.7644 42.7052C26.9808 42.7267 27.1972 42.7477 27.4137 42.7684C27.4869 42.7755 27.5601 42.7826 27.6332 42.7899C28.4934 42.8752 29.3518 42.8938 30.2156 42.8933C30.2798 42.8932 30.3439 42.8933 30.4081 42.8933C31.0242 42.8932 31.6379 42.8805 32.2527 42.8388C32.3844 42.8303 32.5158 42.8248 32.6477 42.8211C33.17 42.8064 33.6874 42.769 34.2073 42.7195C34.3182 42.7089 34.4291 42.6988 34.5401 42.6887C34.627 42.6808 34.7138 42.6727 34.8007 42.6646C34.8613 42.6589 34.9219 42.6534 34.9825 42.6479C35.0192 42.6443 35.0559 42.6408 35.0937 42.6371C35.1257 42.6341 35.1577 42.6311 35.1908 42.628C35.2882 42.613 35.3727 42.5916 35.4636 42.5532C35.546 42.3793 35.5234 42.2123 35.5047 42.0248C35.502 41.9942 35.4992 41.9635 35.4965 41.9319C35.4878 41.8337 35.4786 41.7356 35.4693 41.6375C35.4319 41.2373 35.4003 40.8391 35.3899 40.4372C35.3752 39.9008 35.3265 39.3678 35.2793 38.8335C35.2608 38.6241 35.2427 38.4147 35.2246 38.2052C35.2199 38.1514 35.2153 38.0976 35.2106 38.0438C35.1825 37.7209 35.1564 37.398 35.1336 37.0747C35.0626 36.0711 34.9649 35.0715 34.8552 34.0715C34.8392 33.9251 34.8234 33.7787 34.8078 33.6323C34.6848 32.479 34.5419 31.3299 34.3724 30.1824C34.365 30.1323 34.3577 30.0822 34.3503 30.0322C34.3113 29.7679 34.2706 29.5039 34.2284 29.2401C34.2193 29.1826 34.2193 29.1826 34.2099 29.1239C33.798 26.5362 33.2813 23.9812 32.4628 21.4894C32.4502 21.4508 32.4502 21.4508 32.4373 21.4116C31.8775 19.7029 31.1613 17.9924 30.0076 16.5957C29.993 16.5779 29.9783 16.5601 29.9632 16.5417C29.5543 16.0478 29.1169 15.6094 28.5891 15.2439C28.5286 15.2019 28.469 15.1589 28.4094 15.1154C27.8058 14.683 27.0973 14.4221 26.3779 14.261C26.3382 14.2521 26.3382 14.2521 26.2977 14.243C25.8587 14.1512 25.4214 14.1221 24.9741 14.1242C24.9376 14.1243 24.9376 14.1243 24.9003 14.1244C24.2066 14.1274 23.556 14.2327 22.8846 14.4073ZM70.0899 32.4785C69.9786 32.6779 69.9774 32.8617 69.9781 33.0851C69.9776 33.1161 69.9771 33.1471 69.9766 33.179C69.9765 33.3959 70.0004 33.5347 70.1543 33.6968C70.3798 33.8705 70.6839 33.9153 70.9575 33.9571C71.0031 33.9646 71.0031 33.9646 71.0497 33.9722C71.3842 34.0257 71.7099 34.0474 72.0487 34.0426C72.0172 33.9167 71.9854 33.7908 71.9535 33.665C71.9427 33.6225 71.9319 33.5799 71.9213 33.5373C71.8225 33.1428 71.7205 32.7444 71.5315 32.3822C71.5217 32.3624 71.5118 32.3425 71.5017 32.322C71.3924 32.1073 71.2698 31.9529 71.0485 31.8541C70.6382 31.7616 70.295 32.1804 70.0899 32.4785Z" fill="#B79F7C"/>
<path d="M56.075 0.334349C56.1105 0.346691 56.146 0.359033 56.1826 0.371749C56.926 0.649551 57.6464 1.10675 58.2574 1.61094C58.2732 1.62381 58.2891 1.63667 58.3054 1.64992C59.0039 2.21702 59.4969 2.88973 59.9245 3.67781C60.1726 3.44452 60.3624 3.16404 60.5477 2.87994C60.5901 2.81573 60.6325 2.75154 60.6749 2.68736C60.6962 2.65505 60.7175 2.62273 60.7395 2.58944C61.295 1.74746 61.295 1.74746 61.5309 1.51976C61.5533 1.49809 61.5757 1.47642 61.5988 1.4541C61.6756 1.38265 61.7542 1.3142 61.834 1.2462C61.8578 1.22564 61.8578 1.22564 61.8821 1.20466C62.7503 0.458137 63.8203 0.0295956 64.9667 0.0242235C65.0111 0.0239637 65.0111 0.0239637 65.0564 0.0236985C65.1189 0.0234128 65.1814 0.0232133 65.2439 0.0230956C65.337 0.0228042 65.4301 0.0218613 65.5232 0.0208991C65.9467 0.0185955 66.357 0.0509498 66.7747 0.121583C66.8271 0.130384 66.8271 0.130384 66.8805 0.139363C67.1346 0.193099 67.3655 0.308391 67.5975 0.422047C67.6665 0.455677 67.7359 0.488293 67.8053 0.520875C68.107 0.665496 68.3499 0.834647 68.5934 1.06383C68.6168 1.08537 68.6402 1.1069 68.6644 1.12909C68.9402 1.38701 69.178 1.65748 69.3814 1.97569C69.4006 2.00448 69.4197 2.03328 69.4395 2.06295C69.5515 2.2414 69.633 2.42692 69.7073 2.62348C69.7201 2.65693 69.7201 2.65693 69.7332 2.69106C69.868 3.06545 69.9139 3.44492 69.9119 3.84119C69.9118 3.86211 69.9117 3.88302 69.9117 3.90458C69.9017 5.37343 69.1341 6.77051 68.2902 7.93313C68.2738 7.95599 68.2573 7.97884 68.2403 8.00238C67.7097 8.73683 67.1402 9.44323 66.5323 10.1149C66.4773 10.1761 66.4231 10.2379 66.3693 10.3002C66.2387 10.4504 66.1037 10.5966 65.9691 10.7433C65.9281 10.788 65.8873 10.8328 65.8464 10.8777C65.2109 11.5757 65.2109 11.5757 64.9295 11.8484C64.8731 11.9067 64.8204 11.9664 64.7676 12.0279C64.6295 12.1874 64.4793 12.3337 64.3291 12.4816C64.2065 12.6032 64.0903 12.7276 63.9779 12.8586C63.8892 12.959 63.7936 13.0521 63.6982 13.1459C63.5631 13.2798 63.4318 13.414 63.3092 13.5597C63.2449 13.6327 63.1762 13.7005 63.1071 13.769C63.0015 13.8738 62.9015 13.9805 62.8051 14.0937C62.7389 14.1693 62.6706 14.2425 62.602 14.3158C62.4409 14.4878 62.2868 14.6623 62.1398 14.8467C62.0795 14.9204 62.0165 14.9895 61.9515 15.0589C61.6256 15.4183 61.3405 15.8256 61.0814 16.2357C61.0574 16.2737 61.0332 16.3115 61.0087 16.3492C60.7776 16.7075 60.6182 17.0868 60.4704 17.4862C60.4458 17.5521 60.4202 17.6173 60.3938 17.6824C60.1477 18.3497 60.3791 19.1855 60.6581 19.8079C60.9074 20.3292 61.2262 20.8086 61.5518 21.2842C61.9806 21.9113 62.3292 22.5351 62.5009 23.2827C62.5063 23.3057 62.5117 23.3287 62.5172 23.3524C62.6744 24.0614 62.671 24.9252 62.4706 25.6231C62.4641 25.6465 62.4576 25.6699 62.4508 25.694C62.3174 26.1568 62.0962 26.585 61.8824 27.0145C61.8417 27.0969 61.8021 27.1797 61.7634 27.263C61.6359 27.5348 61.482 27.7656 61.2885 27.9939C61.2749 28.0104 61.2613 28.0269 61.2473 28.0438C61.0431 28.2905 60.8421 28.4899 60.5117 28.5353C60.4611 28.5382 60.4611 28.5382 60.4094 28.541C60.4253 28.3124 60.4678 28.097 60.5225 27.8748C60.5395 27.8045 60.5564 27.7342 60.5733 27.6638C60.5822 27.6274 60.591 27.591 60.6001 27.5536C60.672 27.2563 60.7415 26.9585 60.8114 26.6608C60.8252 26.6019 60.8391 26.543 60.853 26.4842C61.066 25.5839 61.0695 24.7119 60.9247 23.7994C60.9198 23.765 60.9198 23.765 60.9149 23.73C60.8272 23.1366 60.4955 22.5815 60.2403 22.0455C60.2051 21.9716 60.1699 21.8976 60.1347 21.8237C60.1231 21.7992 60.1114 21.7747 60.0994 21.7494C59.255 19.9716 58.6519 18.0231 59.3182 16.079C59.6934 15.0526 60.3479 14.2043 61.0763 13.4043C61.1145 13.3617 61.1145 13.3617 61.1535 13.3183C61.3191 13.1345 61.4901 12.9575 61.6658 12.7833C61.7493 12.7002 61.8301 12.6168 61.906 12.5266C62.0298 12.38 62.1683 12.2477 62.3043 12.1127C62.4206 11.9967 62.5323 11.8791 62.6382 11.7534C62.6862 11.6982 62.7368 11.647 62.7888 11.5957C62.8789 11.5069 62.9618 11.4138 63.0442 11.3178C63.1075 11.2457 63.1724 11.1754 63.2378 11.1052C63.3907 10.941 63.5362 10.7735 63.6766 10.5982C63.7469 10.5127 63.8203 10.4311 63.8952 10.3495C64.0435 10.1875 64.1823 10.0195 64.3195 9.84803C64.3468 9.81433 64.3741 9.78066 64.4015 9.74699C64.9823 9.02854 65.5272 8.27992 65.9866 7.47721C65.9992 7.45539 66.0117 7.43358 66.0246 7.4111C66.0936 7.29048 66.1614 7.16922 66.2282 7.04734C66.2585 6.99259 66.2894 6.9383 66.3205 6.88403C66.9093 5.8396 67.2804 4.58768 66.9566 3.40426C66.8696 3.10007 66.7564 2.84388 66.5322 2.61398C66.5032 2.58413 66.5032 2.58413 66.4735 2.55367C66.1482 2.24588 65.7304 2.13714 65.291 2.14749C64.0219 2.23463 62.8622 3.13625 61.925 3.92097C61.9074 3.93563 61.8897 3.95028 61.8716 3.96538C61.6587 4.14259 61.4521 4.32543 61.2493 4.51415C61.1814 4.57657 61.1126 4.63663 61.0422 4.69605C60.6785 5.01698 60.4716 5.37172 60.2608 5.80191C60.2459 5.83238 60.2309 5.86285 60.2155 5.89425C60.186 5.95468 60.1568 6.01527 60.1281 6.07604C60.1147 6.10363 60.1014 6.13122 60.0876 6.15965C60.0759 6.18441 60.0641 6.20917 60.052 6.23468C60.0154 6.2918 60.0154 6.2918 59.9245 6.32219C59.9061 6.29606 59.8877 6.26992 59.8688 6.243C59.4525 5.65296 59.0123 5.05613 58.4931 4.55251C58.4389 4.49816 58.39 4.44146 58.3407 4.3826C58.1955 4.21401 58.0292 4.06845 57.8633 3.92097C57.8471 3.90639 57.8309 3.8918 57.8142 3.87678C56.8105 2.97659 55.6198 2.3179 54.2448 2.36606C53.8326 2.39078 53.4888 2.50221 53.1955 2.79635C53.1789 2.81297 53.1623 2.82958 53.1453 2.8467C52.8409 3.17684 52.7059 3.69625 52.6972 4.13944C52.7006 4.1984 52.7051 4.2573 52.7105 4.31611C52.7138 4.37606 52.7138 4.37606 52.7171 4.43722C52.743 4.81442 52.851 5.14949 52.9833 5.50152C52.9955 5.53439 53.0078 5.56726 53.0204 5.60112C53.4386 6.71497 53.9545 7.66476 54.6807 8.60183C55.0082 9.0261 55.3314 9.45362 55.6431 9.88982C55.8109 10.1244 55.9852 10.3528 56.1659 10.5775C56.1889 10.6061 56.2119 10.6347 56.2355 10.6642C56.3709 10.8312 56.5091 10.9958 56.6482 11.1598C56.7376 11.2654 56.8254 11.3722 56.9123 11.4799C57.0208 11.6137 57.1344 11.7417 57.2502 11.8691C57.3171 11.9446 57.38 12.0221 57.4428 12.1011C57.58 12.2714 57.7283 12.4301 57.8787 12.5886C57.973 12.6881 58.0651 12.7884 58.154 12.8928C58.216 12.9647 58.2778 13.0296 58.351 13.09C58.4798 13.1989 58.5771 13.2819 58.6153 13.4534C58.6205 13.7554 58.5814 14.1102 58.3786 14.3465C58.1354 14.5832 58.1354 14.5832 57.9846 14.6505C57.9106 14.6416 57.8737 14.6304 57.8205 14.5773C57.8076 14.5592 57.7948 14.5411 57.7815 14.5225C57.7669 14.5023 57.7523 14.4822 57.7372 14.4615C57.7143 14.429 57.7143 14.429 57.6909 14.3959C57.6584 14.3511 57.6257 14.3063 57.593 14.2615C57.5771 14.2395 57.5611 14.2176 57.5447 14.1949C57.4442 14.0586 57.3357 13.929 57.2268 13.7994C57.2135 13.7835 57.2003 13.7676 57.1866 13.7513C56.7752 13.2594 56.3292 12.8031 55.8761 12.3498C55.8045 12.2781 55.733 12.2064 55.6616 12.1345C55.5921 12.0647 55.5225 11.995 55.4529 11.9253C55.4276 11.8999 55.4024 11.8746 55.3764 11.8484C55.2457 11.7179 55.1129 11.5919 54.9728 11.4716C54.9128 11.4195 54.857 11.3642 54.8019 11.307C54.7043 11.2075 54.6023 11.1157 54.4968 11.0248C54.4396 10.9739 54.3857 10.921 54.3321 10.8663C54.2603 10.7929 54.1864 10.7242 54.1086 10.6573C53.995 10.5592 53.8899 10.4545 53.7856 10.3467C53.7258 10.2883 53.6653 10.2339 53.602 10.1796C53.4599 10.0553 53.3266 9.9231 53.1935 9.78925C53.1681 9.76382 53.1427 9.73839 53.1165 9.71218C53.0632 9.6587 53.0098 9.60519 52.9566 9.55164C52.8755 9.47022 52.7944 9.38897 52.7132 9.30774C52.6611 9.25549 52.609 9.20323 52.5569 9.15096C52.5329 9.12695 52.5089 9.10294 52.4842 9.07821C52.3413 8.93435 52.2058 8.78624 52.074 8.63222C52.0437 8.59812 52.0134 8.56407 51.983 8.53011C51.5759 8.07078 51.209 7.57767 50.8918 7.05167C50.8788 7.02999 50.8657 7.00831 50.8522 6.98597C50.5538 6.4846 50.3335 5.94725 50.1947 5.37994C50.1897 5.36036 50.1848 5.34078 50.1797 5.32061C50.014 4.63636 50.0529 3.83799 50.225 3.1611C50.231 3.13645 50.237 3.11181 50.2432 3.08641C50.4382 2.30615 50.7796 1.54583 51.3465 0.972647C51.3761 0.940734 51.3761 0.940734 51.4063 0.908176C52.5394 -0.297894 54.6498 -0.167721 56.075 0.334349Z" fill="#B79F7C"/>
</g>
<defs>
<clipPath id="clip0_2502_4125">
<rect width="118" height="60" fill="white"/>
</clipPath>
</defs>
</svg>
