<svg width="22" height="22" viewBox="0 0 22 22" fill="none" xmlns="http://www.w3.org/2000/svg">
<path d="M21.9844 20.2031C21.9844 20.4688 21.8828 20.6953 21.6797 20.8828C21.4922 21.0859 21.2656 21.1875 21 21.1875H0.984375C0.71875 21.1875 0.484375 21.0859 0.28125 20.8828C0.09375 20.6953 0 20.4688 0 20.2031C0 19.9219 0.09375 19.6875 0.28125 19.5C0.484375 19.2969 0.71875 19.1953 0.984375 19.1953H21C21.2656 19.1953 21.4922 19.2969 21.6797 19.5C21.8828 19.6875 21.9844 19.9219 21.9844 20.2031ZM1.17188 8.39062C1.20312 8.39062 1.23438 8.39062 1.26562 8.39062C1.29688 8.39062 1.32812 8.39062 1.35938 8.39062H1.33594C1.50781 8.34375 1.66406 8.3125 1.80469 8.29688C1.96094 8.26562 2.10938 8.23438 2.25 8.20312C2.96875 8.09375 3.64844 7.92188 4.28906 7.6875C4.92969 7.4375 5.53125 7.13281 6.09375 6.77344L6.07031 6.79688C6.78906 6.20312 7.45312 5.57812 8.0625 4.92188C8.67188 4.25 9.22656 3.54688 9.72656 2.8125L9.77344 2.74219L10.0547 4.80469C10.0859 4.99219 10.1719 5.14844 10.3125 5.27344C10.4531 5.39844 10.6172 5.46094 10.8047 5.46094C10.8203 5.46094 10.8359 5.46094 10.8516 5.46094C10.8672 5.46094 10.8828 5.46094 10.8984 5.46094C11.0859 5.42969 11.2422 5.34375 11.3672 5.20312C11.4922 5.0625 11.5547 4.89844 11.5547 4.71094C11.5547 4.69531 11.5547 4.67969 11.5547 4.66406C11.5547 4.64844 11.5547 4.63281 11.5547 4.61719L10.9922 0.65625C10.9922 0.640625 10.9922 0.632812 10.9922 0.632812C10.9922 0.632812 10.9922 0.625 10.9922 0.609375C10.9922 0.59375 10.9844 0.578125 10.9688 0.5625C10.9688 0.546875 10.9609 0.53125 10.9453 0.515625C10.9453 0.484375 10.9375 0.453125 10.9219 0.421875C10.9219 0.390625 10.9141 0.367187 10.8984 0.351562C10.8828 0.335938 10.8672 0.320312 10.8516 0.304688C10.8359 0.289063 10.8203 0.273437 10.8047 0.257812C10.8047 0.242188 10.7891 0.226562 10.7578 0.210938C10.7422 0.195313 10.7266 0.171875 10.7109 0.140625C10.7109 0.140625 10.7031 0.140625 10.6875 0.140625C10.6875 0.125 10.6797 0.117188 10.6641 0.117188C10.6641 0.117188 10.6562 0.117188 10.6406 0.117188C10.625 0.101563 10.6094 0.09375 10.5938 0.09375C10.5625 0.078125 10.5312 0.0625 10.5 0.046875C10.4844 0.03125 10.4609 0.0234375 10.4297 0.0234375C10.4141 0.0234375 10.3906 0.0234375 10.3594 0.0234375C10.3438 0.0234375 10.3281 0.0234375 10.3125 0.0234375C10.3125 0.0234375 10.3047 0.0234375 10.2891 0.0234375C10.2734 0.0078125 10.2578 0 10.2422 0C10.2266 0 10.2031 0 10.1719 0C10.1719 0 10.1641 0 10.1484 0L6.23438 0.539062C6.04688 0.570313 5.89062 0.65625 5.76562 0.796875C5.64062 0.9375 5.57812 1.10156 5.57812 1.28906C5.57812 1.49219 5.64844 1.67188 5.78906 1.82812C5.94531 1.96875 6.125 2.03906 6.32812 2.03906C6.35938 2.03906 6.38281 2.03906 6.39844 2.03906C6.41406 2.03906 6.42969 2.03906 6.44531 2.03906L8.64844 1.73438C8.16406 2.45312 7.64062 3.125 7.07812 3.75C6.51562 4.375 5.92188 4.96094 5.29688 5.50781L5.25 5.53125C4.78125 5.82812 4.27344 6.08594 3.72656 6.30469C3.17969 6.50781 2.60938 6.64844 2.01562 6.72656H1.96875C1.8125 6.75781 1.65625 6.78906 1.5 6.82031C1.34375 6.85156 1.17969 6.88281 1.00781 6.91406C0.851562 6.96094 0.710938 7.05469 0.585938 7.19531C0.476562 7.32031 0.421875 7.46875 0.421875 7.64062C0.421875 7.85938 0.492188 8.03906 0.632812 8.17969C0.789062 8.32031 0.96875 8.39062 1.17188 8.39062ZM1.99219 17.6953C1.85156 17.6953 1.73438 17.6484 1.64062 17.5547C1.54688 17.4609 1.5 17.3438 1.5 17.2031V15.1875C1.5 14.7812 1.64062 14.4297 1.92188 14.1328C2.21875 13.8359 2.57812 13.6875 3 13.6875H4.99219C5.39844 13.6875 5.75 13.8359 6.04688 14.1328C6.34375 14.4297 6.49219 14.7812 6.49219 15.1875V17.2031C6.49219 17.3438 6.44531 17.4609 6.35156 17.5547C6.25781 17.6484 6.14062 17.6953 6 17.6953H1.99219ZM9 17.6953C8.85938 17.6953 8.73438 17.6484 8.625 17.5547C8.53125 17.4609 8.48438 17.3438 8.48438 17.2031V10.1953C8.48438 9.78906 8.63281 9.4375 8.92969 9.14062C9.22656 8.84375 9.57812 8.69531 9.98438 8.69531H12C12.4062 8.69531 12.7578 8.84375 13.0547 9.14062C13.3516 9.4375 13.5 9.78906 13.5 10.1953V17.2031C13.5 17.3438 13.4453 17.4609 13.3359 17.5547C13.2422 17.6484 13.125 17.6953 12.9844 17.6953H9ZM15.9844 17.6953C15.8594 17.6953 15.7422 17.6484 15.6328 17.5547C15.5391 17.4609 15.4922 17.3438 15.4922 17.2031V3.1875C15.4922 2.78125 15.6406 2.42969 15.9375 2.13281C16.2344 1.83594 16.5859 1.6875 16.9922 1.6875H18.9844C19.4062 1.6875 19.7578 1.83594 20.0391 2.13281C20.3359 2.42969 20.4844 2.78125 20.4844 3.1875V17.2031C20.4844 17.3438 20.4375 17.4609 20.3438 17.5547C20.25 17.6484 20.1328 17.6953 19.9922 17.6953H15.9844Z" fill="#8091A7"/>
</svg>
