<svg width="78" height="40" viewBox="0 0 78 40" fill="none" xmlns="http://www.w3.org/2000/svg">
<g clip-path="url(#clip0_10103_472)">
<path d="M17.1684 8.74893C17.2414 8.74873 17.3143 8.7481 17.3873 8.74746C17.7804 8.74565 18.1687 8.77175 18.5506 8.87158C18.5713 8.87683 18.592 8.88209 18.6134 8.8875C19.2155 9.0436 19.7748 9.31396 20.2762 9.68591C20.2931 9.6984 20.2931 9.6984 20.3103 9.71113C20.5769 9.90954 20.8204 10.1315 21.0551 10.3673C21.0725 10.3847 21.0899 10.4021 21.1078 10.42C21.4266 10.7439 21.6968 11.1246 21.9392 11.5096C21.9489 11.525 21.9587 11.5403 21.9687 11.5562C22.375 12.1986 22.7111 12.8851 22.9811 13.5968C22.9897 13.6194 22.9984 13.6421 23.0073 13.6655C23.2898 14.4114 23.5212 15.1753 23.7224 15.9473C23.7276 15.9675 23.7329 15.9876 23.7383 16.0084C24.0672 17.2733 24.3042 18.5548 24.499 19.8473C24.5047 19.8852 24.5105 19.9231 24.5162 19.961C24.5437 20.1433 24.5699 20.3259 24.5956 20.5085C24.6049 20.5737 24.6142 20.639 24.6235 20.7042C24.7437 21.5473 24.839 22.3911 24.9188 23.239C24.9291 23.3485 24.9397 23.458 24.9503 23.5676C25.0159 24.2419 25.0777 24.9156 25.1161 25.5922C25.1254 25.7512 25.1386 25.9098 25.1524 26.0685C25.181 26.3985 25.1981 26.7285 25.2104 27.0596C25.2186 27.2745 25.2342 27.4875 25.2556 27.7014C25.2689 27.8359 25.2774 27.9705 25.2852 28.1054C25.3005 28.1021 25.3157 28.0989 25.3314 28.0956C25.4091 28.0792 25.4867 28.0631 25.5644 28.0471C25.5796 28.044 25.5948 28.0409 25.6104 28.0377C25.8216 27.9944 26.0333 27.9547 26.2458 27.9182C26.2797 27.9124 26.2797 27.9124 26.3144 27.9064C26.3375 27.9025 26.3606 27.8985 26.3844 27.8944C26.9881 27.7906 27.5837 27.6642 28.1808 27.5272C28.2241 27.5173 28.2674 27.5074 28.3106 27.4975C28.3323 27.4925 28.3541 27.4875 28.3764 27.4824C28.4393 27.468 28.5023 27.4538 28.5652 27.4397C28.593 27.4333 28.593 27.4333 28.6213 27.4268C28.7896 27.3893 28.9614 27.3567 29.1246 27.4278C29.2389 27.5464 29.2669 27.6449 29.2742 27.8085C29.2663 28.1292 29.1586 28.4808 28.9317 28.7133C28.8557 28.7821 28.7786 28.821 28.6835 28.8554C28.6694 28.8606 28.6552 28.8659 28.6407 28.8712C28.5013 28.9214 28.3597 28.9589 28.2155 28.9919C28.2014 28.9952 28.1874 28.9985 28.1729 29.0018C27.3732 29.1882 26.5611 29.3241 25.7538 29.4724C25.7227 29.4782 25.7227 29.4782 25.6909 29.484C25.6729 29.4873 25.6549 29.4906 25.6364 29.494C25.586 29.5035 25.5358 29.5135 25.4856 29.5238C25.5093 30.8863 26.2063 32.7421 27.1551 33.7049C27.4374 33.9747 27.7538 34.114 28.1413 34.1076C28.6973 34.0877 29.1555 33.8133 29.5529 33.4346C29.5649 33.4235 29.577 33.4124 29.5894 33.4009C30.9089 32.138 31.1361 29.8615 31.4937 28.0321C31.505 27.974 31.5164 27.9159 31.5277 27.8578C31.5421 27.7841 31.5565 27.7104 31.5709 27.6368C31.5738 27.6221 31.5767 27.6073 31.5796 27.5922C31.6112 27.4309 31.6426 27.2695 31.6738 27.1081C31.7997 26.4573 31.9302 25.8083 32.0809 25.1628C32.2011 24.647 32.3128 24.1298 32.398 23.6069C32.3805 23.6047 32.363 23.6026 32.345 23.6004C32.0923 23.5486 31.8919 23.3297 31.7443 23.1282C31.4474 22.6702 31.3163 22.166 31.296 21.6211C31.2947 21.5896 31.2947 21.5896 31.2935 21.5576C31.2764 20.6596 31.5178 19.7538 31.9371 18.9666C31.9443 18.9529 31.9516 18.9393 31.959 18.9253C32.0466 18.7609 32.1451 18.608 32.2577 18.46C32.273 18.4387 32.2883 18.4173 32.304 18.3954C32.4668 18.2231 32.6371 18.1155 32.8726 18.1066C32.9483 18.1053 32.9874 18.1082 33.0521 18.1488C33.5437 18.6468 33.5619 19.7057 33.5641 20.3557C33.5643 20.3837 33.5644 20.4116 33.5645 20.4395C33.5648 20.5134 33.565 20.5873 33.565 20.6612C33.565 20.6916 33.5651 20.722 33.5651 20.7524C33.5659 21.24 33.5524 21.7235 33.4999 22.2087C34.6604 22.1301 35.9041 21.6531 36.7591 20.8348C36.7966 20.7991 36.8347 20.7655 36.874 20.7319C37.0048 20.6166 37.1247 20.4894 37.2467 20.3647C37.5298 20.0753 37.5298 20.0753 37.6551 19.9679C37.722 19.9086 37.7801 19.8403 37.8398 19.7739C37.8878 19.7366 37.8878 19.7366 37.9386 19.7363C38.1511 19.8245 38.31 20.1246 38.3987 20.328C38.4965 20.608 38.4451 20.9488 38.3286 21.2158C38.2526 21.3659 38.1657 21.5062 38.0686 21.6433C36.9868 23.2126 36.5034 25.1797 35.7647 31.2522C35.7641 31.3021 35.7633 31.352 35.7626 31.402C35.7425 32.8059 35.832 34.7402 36.8459 35.8055C36.8724 35.8338 36.8724 35.8338 36.8993 35.8626C37.2166 36.1944 37.5992 36.3613 38.0546 36.3733C38.4359 36.3709 38.736 36.1398 39.0011 35.884C39.5031 35.3578 39.8139 34.6466 40.0554 33.9668C40.0742 33.9141 40.093 33.8614 40.1118 33.8087C40.1576 33.6803 40.203 33.5518 40.2483 33.4232C40.2557 33.4023 40.2631 33.3814 40.2707 33.3599C40.5173 32.6821 40.5173 32.6821 40.4698 31.975C40.0857 30.4199 40.1619 28.7574 40.5326 26.6667C40.5354 26.6527 40.5382 26.6388 40.541 26.6244C40.8131 25.276 41.2677 23.8389 42.1354 22.7558C42.1497 22.7375 42.1641 22.7191 42.1788 22.7002C42.3455 22.489 42.5258 22.275 42.7365 22.1074C42.7473 22.0987 42.7581 22.09 42.7693 22.081C43.0123 21.8863 43.2647 21.7296 43.548 21.6021C43.5607 21.5963 43.5734 21.5906 43.5865 21.5847C43.7337 21.521 43.905 21.46 44.0631 21.5148C44.1677 21.5633 44.1677 21.5633 44.2031 21.6168C44.2488 21.7443 44.2346 21.889 44.1804 22.0111C44.0962 22.1605 43.9632 22.2525 43.8272 22.3506C43.1953 22.8113 42.9467 23.7966 42.7365 24.5187C42.7308 24.5381 42.7251 24.5574 42.7192 24.5774C42.2862 26.0617 42.0127 27.7468 42.0119 29.296C42.0118 29.326 42.0117 29.3559 42.0117 29.3859C42.0115 29.4484 42.0115 29.5109 42.0115 29.5734C42.0115 29.6361 42.0114 29.6988 42.0111 29.7615C42.0089 30.2689 42.0177 30.7759 42.0904 31.2791C42.0937 31.303 42.0971 31.3268 42.1006 31.3514C42.2177 32.1424 42.4505 32.9695 43.017 33.5562C43.0424 33.5826 43.0424 33.5826 43.0684 33.6094C43.0845 33.6253 43.1006 33.6412 43.1172 33.6575C43.1279 33.6695 43.1386 33.6815 43.1497 33.6939C43.4089 33.9756 43.8084 34.152 44.1865 34.1705C44.6803 34.1853 45.0995 34.0307 45.4882 33.7242C45.5219 33.6978 45.5562 33.672 45.5905 33.6464C45.862 33.441 46.0952 33.1981 46.2969 32.9229C46.3229 32.8876 46.3496 32.8527 46.3763 32.8179C47.1113 31.8492 47.568 30.5671 47.7639 29.3691C47.7761 29.2954 47.7888 29.2219 47.8026 29.1485C47.9399 28.41 47.9452 27.6827 47.9393 26.9346C47.9385 26.8205 47.9381 26.7064 47.9381 26.5923C47.9384 25.554 47.9384 25.554 47.8657 24.5187C47.8631 24.4943 47.8631 24.4943 47.8605 24.4693C47.8424 24.3 47.8235 24.1309 47.803 23.9619C47.7884 23.8402 47.778 23.7187 47.7706 23.5964C47.7685 23.5461 47.7685 23.5461 47.7455 23.5056C47.6976 23.4985 47.6516 23.4941 47.6034 23.4912C47.5732 23.489 47.5429 23.4867 47.5127 23.4845C47.4888 23.4829 47.4888 23.4829 47.4644 23.4812C46.7404 23.4303 45.8654 23.3492 45.3412 22.7761C45.3318 22.7664 45.3224 22.7568 45.3127 22.7469C45.0804 22.4956 45.0293 22.1694 45.0331 21.8376C45.0333 21.8118 45.0336 21.786 45.0338 21.7593C45.0368 21.5713 45.0504 21.3976 45.1008 21.2158C45.1045 21.2018 45.1083 21.1878 45.1122 21.1734C45.2029 20.8447 45.3494 20.5148 45.5816 20.2634C45.597 20.2462 45.6125 20.229 45.6283 20.2113C45.8634 19.9605 46.1619 19.806 46.5076 19.7932C46.9233 19.7862 47.2745 19.8738 47.6053 20.1418C47.6259 20.1573 47.6466 20.1728 47.6679 20.1887C48.2086 20.6999 48.503 21.5446 48.6559 22.2568C48.6592 22.2721 48.6625 22.2874 48.6659 22.3032C48.6854 22.4016 48.69 22.4933 48.6872 22.5937C49.4798 22.4732 50.2572 22.3036 51.0334 22.1022C51.1659 22.068 51.2987 22.0361 51.4321 22.0061C51.4307 21.9855 51.4293 21.9649 51.4278 21.9437C51.4074 21.614 51.409 21.284 51.4095 20.9538C51.4096 20.87 51.4095 20.7863 51.4094 20.7025C51.4093 20.6369 51.4094 20.5713 51.4094 20.5057C51.4094 20.4749 51.4094 20.444 51.4094 20.4131C51.4086 19.7903 51.4086 19.7903 51.4922 19.6555C51.7338 19.4211 52.103 19.4456 52.4122 19.4485C52.754 19.456 53.2743 19.4854 53.5359 19.7366C53.6114 19.8221 53.6008 19.9113 53.596 20.0203C53.5884 20.1065 53.5779 20.1923 53.5673 20.2782C53.5626 20.3176 53.5578 20.3569 53.5531 20.3963C53.5481 20.4386 53.5429 20.481 53.5378 20.5234C53.5192 20.6771 53.5011 20.8309 53.4832 20.9847C53.4812 21.0011 53.4793 21.0174 53.4774 21.0342C53.43 21.4412 53.3872 21.8487 53.3451 22.2562C53.3394 22.3117 53.3336 22.3671 53.3279 22.4226C53.2659 23.0193 53.2062 23.6162 53.1697 24.2151C53.1522 24.4986 53.1307 24.7811 53.1014 25.0636C53.0223 25.8307 52.9679 26.6044 52.9661 27.3759C52.966 27.3957 52.9659 27.4154 52.9658 27.4358C52.9639 27.869 52.9639 27.869 53.1151 28.2675C53.1284 28.2742 53.1416 28.2808 53.1552 28.2877C53.2992 27.9895 53.3714 27.6682 53.4543 27.3486C53.7016 26.4006 53.9802 25.458 54.2818 24.5262C54.298 24.4761 54.314 24.4259 54.3301 24.3757C54.6464 23.3891 55.0084 22.4207 55.4393 21.4792C55.45 21.4558 55.4608 21.4324 55.4718 21.4082C55.7322 20.8423 56.0116 20.292 56.452 19.8472C56.4818 19.8171 56.5112 19.7866 56.5399 19.7554C56.8639 19.4093 57.2453 19.2244 57.7172 19.2049C58.1061 19.196 58.4307 19.2694 58.7211 19.5488C59.2844 20.1337 59.2893 21.1029 59.3063 21.8642C59.3067 21.8834 59.3072 21.9026 59.3077 21.9223C59.3468 23.7281 58.9289 25.5768 58.1292 29.9987C58.0006 30.6383 58.0006 30.6383 57.9438 31.2867C57.9433 31.309 57.9427 31.3312 57.9422 31.3541C57.941 31.4371 57.941 31.5104 57.9639 31.5907C58.061 31.5757 58.1076 31.5669 58.178 31.4957C58.3203 31.2606 58.3672 30.9466 58.4341 30.6829C58.7613 29.3968 59.127 28.1203 59.5066 26.849C59.5105 26.836 59.5144 26.8229 59.5184 26.8095C59.7898 25.9013 60.0829 25.0017 60.3943 24.1068C60.4348 23.9906 60.4748 23.8743 60.5145 23.7579C61.728 20.2129 61.728 20.2129 62.9627 19.2653C63.2444 19.1498 63.5987 19.1829 63.8752 19.2952C64.2242 19.4559 64.434 19.7724 64.5757 20.1216C64.7189 20.5108 64.7844 20.9249 64.8161 21.3374C64.8173 21.3521 64.8185 21.3669 64.8197 21.3821C64.9376 22.9665 64.6256 24.5748 64.3879 26.1335C64.1444 27.7305 63.9054 29.3291 63.7943 30.9422C63.7931 30.9592 63.7919 30.9761 63.7907 30.9936C63.7303 31.8552 63.7124 32.7362 63.7943 33.5968C63.7956 33.6101 63.7968 33.6234 63.7981 33.6372C63.9154 34.9744 63.9154 34.9744 64.5757 36.0892C64.6398 36.1362 64.7055 36.1746 64.7761 36.2107C64.7881 36.2176 64.8001 36.2245 64.8125 36.2316C64.9866 36.3167 65.2343 36.2907 65.4147 36.2386C65.6233 36.1635 65.7903 36.0509 65.9582 35.9068C65.9767 35.8922 65.9767 35.8922 65.9955 35.8773C66.107 35.7873 66.1915 35.6755 66.2788 35.5623C66.2932 35.5439 66.3077 35.5256 66.3226 35.5067C67.1131 34.4773 67.4766 33.1327 67.7654 31.8832C67.7841 31.8024 67.8028 31.7216 67.8216 31.6408C67.8637 31.4594 67.9057 31.2779 67.9477 31.0964C67.9554 31.063 67.9631 31.0296 67.9708 30.9962C67.9931 30.8997 68.0154 30.8032 68.0376 30.7067C68.0444 30.677 68.0513 30.6473 68.0581 30.6176C68.1491 30.2459 68.1491 30.2459 68.1961 29.8671C68.1973 29.8465 68.1973 29.8465 68.1984 29.8256C68.2007 29.7828 68.2027 29.7401 68.2047 29.6973C68.2062 29.6696 68.2077 29.6419 68.2092 29.6142C68.2159 29.4872 68.222 29.3603 68.2249 29.2331C68.2334 28.9067 68.2723 28.5869 68.3189 28.2641C68.325 28.2212 68.3311 28.1783 68.3372 28.1354C68.6053 26.2459 69.164 24.3651 70.4395 22.5475C70.4655 22.5136 70.4911 22.4795 70.5165 22.4451C70.8033 22.0587 71.1305 21.6981 71.4881 21.3779C71.5044 21.3627 71.5208 21.3474 71.5376 21.3317C71.675 21.2035 71.8204 21.0872 71.969 20.9726C71.9808 20.9635 71.9926 20.9543 72.0048 20.9449C72.7366 20.3807 73.6512 19.8737 74.5937 19.8582C74.6323 19.8573 74.6323 19.8573 74.6717 19.8565C74.766 19.8552 74.8601 19.8563 74.9543 19.8582C74.9733 19.8585 74.9922 19.8589 75.0117 19.8592C75.7311 19.8754 76.586 19.9486 77.1439 20.4675C77.2821 20.6244 77.3273 20.7732 77.3254 20.9798C77.3073 21.1765 77.1805 21.3314 77.0352 21.455C76.6997 21.7082 76.26 21.831 75.8434 21.825C75.8267 21.8248 75.8099 21.8246 75.7926 21.8244C75.7744 21.8241 75.7744 21.8241 75.7558 21.8237C75.7519 21.8102 75.7479 21.7967 75.7439 21.7828C75.648 21.4841 75.4388 21.2557 75.1704 21.1013C74.7598 20.9003 74.2844 20.8963 73.8524 21.0334C73.8389 21.0377 73.8255 21.0419 73.8116 21.0463C73.4703 21.1575 73.1713 21.3372 72.8906 21.5603C72.8624 21.5824 72.8624 21.5824 72.8335 21.605C72.4903 21.881 72.1913 22.1988 71.9289 22.5532C71.9196 22.5657 71.9103 22.5783 71.9007 22.5912C70.8319 24.0441 70.3537 25.8818 70.1257 31.4894C70.262 32.3849 70.5413 33.4878 71.2815 34.0767C71.5932 34.3033 71.9457 34.4283 72.3334 34.3744C72.8305 34.2726 73.1884 33.8897 73.458 33.4787C74.1868 32.3435 74.5099 30.9199 74.754 29.6049C74.7572 29.5878 74.7604 29.5707 74.7636 29.553C74.8962 28.8393 74.9645 28.1362 74.9964 27.4112C75.0452 26.3058 75.1342 25.2019 75.2291 24.0996C75.2347 24.034 75.2402 23.9684 75.2457 23.9027C75.3405 22.7726 75.3405 22.7726 75.4552 22.5937C75.7855 22.3558 76.2955 22.3832 76.6798 22.4437C76.8871 22.4823 77.0938 22.5288 77.2384 22.695C77.3402 22.8619 77.2718 23.1208 77.2432 23.3027C77.2366 23.3454 77.2301 23.3881 77.2238 23.4307C77.2101 23.522 77.1961 23.6132 77.1821 23.7044C77.1125 24.1575 77.054 24.6086 77.0181 25.0659C77.0169 25.0809 77.0157 25.096 77.0144 25.1116C77.0002 25.2928 76.9865 25.474 76.9731 25.6553C76.9598 25.8337 76.9455 26.012 76.931 26.1904C76.8011 27.7902 76.7135 29.4178 76.8346 31.0216C76.8378 31.0648 76.8409 31.108 76.8439 31.1512C76.9221 32.5567 76.9221 32.5567 77.5801 33.7354C77.7009 33.8267 77.8331 33.8543 77.9798 33.8804C78.0405 34.5009 78.0405 34.5009 77.9197 34.7112C77.9131 34.724 77.9065 34.7367 77.8998 34.7499C77.807 34.906 77.6233 35.0019 77.4531 35.0457C77.0869 35.1133 76.7404 35.0495 76.4251 34.8475C75.6943 34.3172 75.3696 33.1885 75.224 32.3376C75.2051 32.2172 75.1891 32.0967 75.1747 31.9757C75.1703 31.9876 75.166 31.9995 75.1614 32.0118C74.8191 32.9371 74.4561 33.8712 73.7993 34.6196C73.7722 34.6505 73.7454 34.6817 73.7186 34.7129C73.338 35.1505 72.8169 35.5115 72.2295 35.5623C71.2849 35.6056 70.4537 35.3786 69.745 34.7315C69.0438 34.0819 68.692 33.1428 68.4427 32.2391C68.4393 32.251 68.4359 32.2629 68.4325 32.2752C67.5202 35.4993 67.5202 35.4993 66.419 36.6971C66.4063 36.711 66.3936 36.725 66.3805 36.7393C65.9796 37.1632 65.4356 37.3713 64.8635 37.3908C64.3886 37.3996 64.0391 37.2656 63.6741 36.9605C63.6601 36.9492 63.646 36.9379 63.6316 36.9262C62.551 36.033 62.2864 34.1329 62.1514 32.8267C62.1329 32.6379 62.1208 32.4488 62.1113 32.2594C62.1102 32.2385 62.109 32.2176 62.1079 32.1961C62.0154 30.4316 62.2085 28.672 62.4721 26.9308C62.498 26.7602 62.5234 26.5896 62.5485 26.4189C62.6357 25.8248 62.7309 25.2329 62.8378 24.6421C62.9827 23.8409 63.109 23.042 63.2007 22.2328C63.2034 22.2093 63.2034 22.2093 63.2061 22.1854C63.2164 22.0946 63.2266 22.0037 63.2366 21.9128C63.2411 21.8718 63.2457 21.8309 63.2503 21.79C63.3492 21.0691 63.3492 21.0691 63.1732 20.385C63.108 20.3206 63.0544 20.2987 62.9653 20.2913C62.8543 20.2971 62.7906 20.3499 62.7124 20.4255C62.6994 20.4381 62.6864 20.4506 62.6731 20.4635C62.4584 20.6901 62.3294 20.9903 62.1948 21.269C62.1738 21.3122 62.1525 21.3551 62.1309 21.3979C62.0901 21.4787 62.0504 21.5599 62.0111 21.6413C61.9995 21.6654 61.9995 21.6654 61.9876 21.6899C61.6273 22.4415 61.3736 23.2428 61.1095 24.0324C61.1008 24.0583 61.0922 24.0841 61.0835 24.11C60.8304 24.8666 60.586 25.6256 60.3514 26.3883C60.3317 26.4524 60.3119 26.5164 60.2921 26.5805C59.8601 27.9796 59.4494 29.3852 59.0394 30.791C58.986 30.974 58.9324 31.157 58.8787 31.34C58.8507 31.4355 58.8227 31.5311 58.7948 31.6267C58.7794 31.679 58.7641 31.7314 58.7487 31.7838C58.6782 32.0243 58.608 32.2648 58.5437 32.5071C58.5392 32.5242 58.5346 32.5412 58.5299 32.5588C58.51 32.6338 58.4904 32.7089 58.4716 32.7843C58.4121 33.0119 58.322 33.3019 58.1284 33.4497C57.8407 33.6152 57.484 33.6153 57.1696 33.5355C56.8957 33.4581 56.5188 33.3214 56.361 33.0699C56.297 32.9303 56.2654 32.7976 56.2608 32.6444C56.2596 32.6088 56.2596 32.6088 56.2584 32.5724C56.2338 31.4195 56.3971 30.2283 56.5702 29.0911C56.5821 29.0121 56.5939 28.9331 56.6055 28.8541C56.7154 28.1105 56.8325 27.3682 56.9541 26.6266C56.9566 26.6115 56.9591 26.5964 56.9617 26.5808C57.0118 26.275 57.062 25.9693 57.1127 25.6637C57.2177 25.0311 57.3195 24.3982 57.4128 23.7637C57.4149 23.7495 57.4169 23.7354 57.4191 23.7208C57.5328 22.9472 57.6339 22.1763 57.692 21.3961C57.6977 21.32 57.7045 21.2443 57.7141 21.1685C57.7475 20.9021 57.7463 20.6096 57.5832 20.385C57.5089 20.3206 57.4283 20.2877 57.3286 20.2937C56.9463 20.3786 56.7104 20.7835 56.5112 21.0944C56.4206 21.2389 56.34 21.3888 56.2608 21.54C56.2484 21.5634 56.2484 21.5634 56.2357 21.5873C55.9296 22.1685 55.7006 22.7929 55.4688 23.4073C55.4438 23.4735 55.4185 23.5395 55.3931 23.6055C55.1407 24.266 54.9294 24.9438 54.7147 25.6176C54.6747 25.743 54.6344 25.8683 54.5938 25.9935C54.3302 26.8072 54.0859 27.626 53.8487 28.4479C53.8368 28.489 53.8249 28.5301 53.813 28.5712C53.5367 29.5251 53.3146 30.4765 53.1778 31.4615C53.1756 31.477 53.1734 31.4926 53.1712 31.5086C53.1236 31.8774 53.1293 32.2505 53.1256 32.6217C53.1221 32.9554 53.1099 33.2851 53.0751 33.617C53.0713 33.6549 53.0713 33.6549 53.0675 33.6935C52.9799 34.5388 52.9799 34.5388 52.6744 34.8126C52.4714 34.9503 52.2344 34.9793 51.9969 34.9417C51.7975 34.8965 51.6262 34.804 51.5123 34.6302C51.4435 34.4944 51.4205 34.3745 51.4223 34.2232C51.4222 34.2036 51.4221 34.1839 51.422 34.1637C51.4218 34.0981 51.4221 34.0326 51.4225 33.967C51.4225 33.9194 51.4224 33.8719 51.4223 33.8243C51.4221 33.7074 51.4223 33.5906 51.4227 33.4737C51.4231 33.3337 51.4231 33.1936 51.423 33.0536C51.4229 32.7952 51.4232 32.5368 51.4236 32.2783C51.4241 32.0225 51.4244 31.7667 51.4245 31.5109C51.4245 31.495 51.4245 31.4791 51.4245 31.4627C51.4246 31.3819 51.4246 31.301 51.4246 31.2202C51.4248 30.648 51.4253 30.0757 51.4261 29.5035C51.4268 28.9476 51.4274 28.3917 51.4277 27.8358C51.4277 27.8101 51.4277 27.8101 51.4278 27.7839C51.4279 27.6118 51.428 27.4397 51.4281 27.2675C51.4283 26.9169 51.4285 26.5663 51.4287 26.2157C51.4287 26.1996 51.4288 26.1835 51.4288 26.1668C51.4295 25.0906 51.4308 24.0144 51.4321 22.9382C51.3987 22.9476 51.3987 22.9476 51.3646 22.9572C51.28 22.9811 51.1953 23.0048 51.1106 23.0286C51.0743 23.0387 51.0381 23.0489 51.0018 23.0592C50.2941 23.2589 49.579 23.3953 48.8475 23.465C48.8489 23.4807 48.8503 23.4963 48.8518 23.5124C48.8654 23.6627 48.879 23.8131 48.8924 23.9635C48.8994 24.0408 48.9063 24.118 48.9133 24.1953C48.931 24.3904 48.948 24.5856 48.9642 24.7809C48.9675 24.8201 48.9709 24.8593 48.9743 24.8985C49.0157 25.3872 49.014 25.876 49.013 26.3661C49.0128 26.4832 49.0129 26.6003 49.0131 26.7173C49.0139 27.1444 49.0131 27.571 48.9897 27.9975C48.9889 28.012 48.9881 28.0266 48.9873 28.0416C48.9082 29.4438 48.5513 30.8327 47.9459 32.0973C47.9378 32.1145 47.9297 32.1317 47.9213 32.1494C47.6103 32.8098 47.2182 33.465 46.7237 34.002C46.7002 34.0294 46.6768 34.0568 46.6535 34.0843C46.5086 34.2514 46.3515 34.3913 46.1758 34.5237C46.1443 34.5478 46.1136 34.5728 46.0828 34.5977C45.4482 35.1116 44.7645 35.3367 43.9587 35.3597C43.9359 35.3605 43.9132 35.3613 43.8897 35.3622C43.0649 35.3789 42.354 34.9882 41.7702 34.4267C41.4546 34.1171 41.217 33.754 40.9934 33.3739C40.9419 33.5018 40.8926 33.6305 40.8437 33.7595C40.6927 34.1575 40.5393 34.5517 40.3522 34.9341C40.3379 34.9638 40.3379 34.9638 40.3232 34.994C40.1301 35.389 39.908 35.7684 39.6309 36.1094C39.6151 36.1295 39.5993 36.1496 39.583 36.1703C39.1117 36.7601 38.5337 37.2178 37.7739 37.3202C37.7451 37.3224 37.7163 37.3241 37.6875 37.3252C37.6687 37.326 37.65 37.3268 37.6307 37.3277C36.9934 37.3412 36.4345 37.1144 35.9653 36.6832C34.936 35.6815 34.7412 34.0515 34.6648 32.6868C34.6604 32.6082 34.6559 32.5296 34.6512 32.4509C34.6476 32.3892 34.6441 32.3274 34.6406 32.2657C34.639 32.2367 34.6373 32.2078 34.6356 32.1788C34.6264 32.0232 34.6204 31.868 34.6197 31.7121C34.6196 31.6983 34.6195 31.6845 34.6194 31.6702C34.6195 31.6013 34.6231 31.5342 34.6319 31.4659C34.6402 31.4017 34.6447 31.341 34.6452 31.2764C34.6454 31.2559 34.6456 31.2354 34.6458 31.2143C34.6459 31.1925 34.6461 31.1707 34.6462 31.1482C34.6468 31.1002 34.6474 31.0521 34.6479 31.0041C34.6488 30.9298 34.6495 30.8555 34.65 30.7812C34.6531 30.3878 34.6788 30.0002 34.7177 29.6091C34.7221 29.5642 34.7265 29.5193 34.7309 29.4744C34.752 29.259 34.7743 29.0437 34.7973 28.8285C34.799 28.8122 34.8007 28.7959 34.8025 28.7792C34.8584 28.2574 34.9209 27.7384 35.0108 27.2213C35.0218 27.1582 35.0326 27.095 35.0435 27.0319C35.245 25.8598 35.4868 24.7058 35.7805 23.5538C35.8499 23.2814 35.9174 23.0086 35.9844 22.7356C35.9671 22.7494 35.9498 22.7633 35.932 22.7776C35.7822 22.8972 35.6293 23.0043 35.4635 23.1003C35.4513 23.1075 35.4391 23.1147 35.4266 23.122C34.8024 23.4871 34.0648 23.6589 33.3516 23.7212C33.2975 23.7267 33.2514 23.7346 33.1994 23.7487C33.1971 23.7607 33.1948 23.7728 33.1924 23.7851C33.1265 24.1265 33.0602 24.4679 32.9935 24.8091C32.9802 24.8772 32.967 24.9453 32.9537 25.0135C32.7074 26.2793 32.4219 27.5437 32.0614 28.7814C31.9218 29.2638 31.8193 29.7556 31.7117 30.246C31.4856 31.2747 31.4856 31.2747 31.316 31.773C31.309 31.7938 31.3021 31.8146 31.2949 31.836C31.0869 32.4467 30.792 33.0346 30.4144 33.5562C30.406 33.568 30.3976 33.5798 30.3889 33.592C29.8874 34.2894 29.1672 34.7477 28.3257 34.8911C27.9126 34.9525 27.4556 34.944 27.0484 34.8531C27.0328 34.8497 27.0171 34.8463 27.0011 34.8429C26.2022 34.6654 25.4981 34.1697 25.0047 33.5157C24.995 33.5028 24.9852 33.4899 24.9752 33.4766C24.7329 33.1531 24.5351 32.8082 24.3635 32.4417C24.3564 32.4266 24.3492 32.4114 24.3418 32.3958C24.2154 32.1271 24.1143 31.8531 24.0229 31.5704C24.0142 31.544 24.0142 31.544 24.0053 31.5171C23.8331 30.9952 23.6222 30.3417 23.6222 29.7872C23.1549 29.8277 22.6879 29.8693 22.2218 29.9228C22.2075 29.9245 22.1932 29.9261 22.1784 29.9278C22.1406 29.9321 22.1027 29.9365 22.0649 29.9409C21.8313 29.9653 21.5971 29.9747 21.3626 29.9819C21.3391 29.9826 21.3391 29.9826 21.3151 29.9833C21.1963 29.987 21.0775 29.9904 20.9587 29.9937C20.9412 29.9941 20.9237 29.9946 20.9057 29.9951C20.3674 30.0098 19.8336 30.0103 19.2959 29.9757C19.1932 29.9693 19.0904 29.9651 18.9876 29.9613C18.4719 29.9415 17.9612 29.8904 17.452 29.8043C17.3375 29.7859 17.2262 29.783 17.1105 29.7872C17.1043 29.7993 17.0981 29.8114 17.0916 29.8239C16.8606 30.2724 16.8606 30.2724 16.7468 30.4897C16.7008 30.578 16.6554 30.6666 16.6106 30.7556C16.3633 31.2461 16.0793 31.7134 15.7881 32.1783C15.7693 32.2086 15.7693 32.2086 15.75 32.2395C15.3083 32.9477 14.8362 33.638 14.3363 34.3054C14.3152 34.3335 14.2942 34.3617 14.2732 34.3898C14.1376 34.572 13.9989 34.7501 13.8515 34.9228C13.8055 34.9769 13.76 35.0315 13.7144 35.0861C13.6589 35.1525 13.6034 35.2189 13.5477 35.2851C13.529 35.3074 13.5103 35.3298 13.4915 35.3521C13.4776 35.3686 13.4776 35.3686 13.4635 35.3854C13.4071 35.4526 13.3527 35.521 13.2987 35.5902C13.2099 35.7009 13.1112 35.7998 13.0109 35.8996C12.9345 35.9758 12.8614 36.0531 12.7921 36.136C12.7503 36.1847 12.7046 36.2292 12.6591 36.2743C12.6248 36.3096 12.5931 36.346 12.5614 36.3837C12.4768 36.4821 12.3866 36.5746 12.2954 36.6668C12.267 36.6956 12.2388 36.7245 12.2106 36.7534C12.087 36.8787 11.9579 36.9921 11.821 37.1023C11.7773 37.1391 11.7341 37.1764 11.6908 37.2138C11.5936 37.2973 11.4954 37.3793 11.3965 37.4607C11.3338 37.5129 11.2718 37.5659 11.2099 37.619C11.1138 37.7016 11.017 37.7832 10.9191 37.8636C10.8749 37.9 10.8309 37.9367 10.787 37.9735C9.51196 39.0391 7.94575 39.802 6.29111 39.9797C6.27417 39.9816 6.25723 39.9836 6.23978 39.9855C5.16803 40.0922 4.08897 39.9115 3.10539 39.4731C3.09025 39.4665 3.0751 39.4598 3.0595 39.4529C2.29605 39.1132 1.53942 38.5783 1.02165 37.9129C0.998557 37.8843 0.998557 37.8843 0.975001 37.8552C0.12753 36.7838 -0.110249 35.4105 0.0152216 34.0712C0.142524 32.9486 0.582487 31.8799 1.1619 30.922C1.17977 30.892 1.19764 30.862 1.21551 30.8321C1.52204 30.3227 1.88939 29.8346 2.31052 29.4165C2.34588 29.38 2.37877 29.3422 2.41164 29.3034C2.52445 29.1715 2.64701 29.0508 2.778 28.9374C2.81521 28.9043 2.85142 28.8706 2.88742 28.8361C3.03641 28.6935 3.18919 28.5609 3.35248 28.4353C3.38399 28.4108 3.41497 28.3856 3.44592 28.3604C4.20798 27.745 5.17312 27.3001 6.13082 27.1125C6.14632 27.1092 6.16183 27.1059 6.17781 27.1026C6.89746 26.9561 7.68006 27.0345 8.37485 27.2543C8.3914 27.2595 8.40796 27.2647 8.42501 27.27C9.09814 27.485 9.71418 27.8306 10.2382 28.308C10.2488 28.3176 10.2594 28.3272 10.2704 28.3371C10.3477 28.4072 10.4234 28.4788 10.4987 28.5512C10.5117 28.5636 10.5248 28.576 10.5383 28.5889C11.0021 29.0319 11.0021 29.0319 11.0244 29.2711C11.0299 29.4969 10.9717 29.6807 10.8192 29.848C10.713 29.9548 10.6262 30.028 10.4736 30.0405C10.2628 30.0318 10.1103 29.8276 9.97271 29.6846C9.95316 29.6646 9.93359 29.6445 9.91401 29.6244C9.87802 29.5876 9.84213 29.5506 9.8063 29.5135C9.7569 29.4626 9.70705 29.4121 9.65715 29.3617C9.63744 29.3414 9.61776 29.321 9.59813 29.3006C8.83131 28.509 7.79264 28.0403 6.69446 28.0234C6.25538 28.0248 5.82592 28.1101 5.40952 28.2472C5.38913 28.2538 5.38913 28.2538 5.36832 28.2606C4.40293 28.5821 3.48586 29.282 2.86496 30.0912C2.84668 30.1138 2.82833 30.1363 2.80994 30.1588C1.88441 31.2958 1.22445 32.7374 1.06172 34.2047C1.05983 34.2208 1.05794 34.237 1.056 34.2536C0.944793 35.3153 1.13396 36.5507 1.80305 37.4063C1.99655 37.6479 2.20299 37.8614 2.4442 38.0547C2.46331 38.0706 2.48243 38.0864 2.50212 38.1028C2.69108 38.2559 2.89538 38.3792 3.10539 38.5005C3.12709 38.5132 3.12709 38.5132 3.14923 38.5261C3.3911 38.6661 3.64497 38.7697 3.90683 38.8652C3.9232 38.8712 3.93957 38.8772 3.95645 38.8834C5.3303 39.3757 6.87185 39.1103 8.16214 38.4938C8.294 38.4302 8.42471 38.3643 8.55517 38.2979C8.57208 38.2893 8.58898 38.2808 8.6064 38.272C9.25137 37.9448 9.84934 37.5147 10.404 37.0501C10.4528 37.0093 10.5021 36.9691 10.5513 36.9288C10.7801 36.7387 10.9998 36.541 11.2146 36.3348C11.2571 36.2946 11.3001 36.2549 11.3432 36.2153C11.526 36.0469 11.7003 35.8699 11.8748 35.6929C11.929 35.638 11.9832 35.5833 12.0374 35.5286C12.0723 35.4933 12.1072 35.458 12.1421 35.4227C12.1581 35.4065 12.1741 35.3904 12.1905 35.3738C12.2743 35.2887 12.3551 35.2021 12.4324 35.1109C12.4769 35.0587 12.5234 35.0086 12.5699 34.9582C12.6558 34.8641 12.7372 34.7672 12.8167 34.6674C12.8671 34.6047 12.9187 34.5434 12.9706 34.482C13.0659 34.3688 13.1571 34.2528 13.2474 34.1355C13.2851 34.0866 13.3232 34.0382 13.3618 33.9901C13.5171 33.7968 13.6622 33.5973 13.8046 33.3941C13.8223 33.369 13.84 33.3439 13.8578 33.3188C14.0056 33.109 14.1473 32.8955 14.2867 32.6798C14.3086 32.6461 14.3304 32.6123 14.3523 32.5786C14.3962 32.511 14.44 32.4433 14.4837 32.3756C14.5403 32.2883 14.597 32.2011 14.6538 32.114C14.9122 31.7176 15.1642 31.3196 15.3874 30.9017C15.3978 30.8824 15.4081 30.8631 15.4188 30.8432C15.4298 30.8226 15.4407 30.802 15.4521 30.7808C15.4633 30.7599 15.4744 30.739 15.486 30.7175C15.5087 30.6749 15.5315 30.6323 15.5542 30.5897C15.6108 30.4836 15.6686 30.3786 15.7293 30.2748C15.8408 30.0804 15.9322 29.8749 16.0268 29.6717C16.0405 29.6425 16.0544 29.6135 16.0687 29.5846C15.8673 29.5231 15.6665 29.4656 15.4605 29.4223C14.2061 29.1586 12.9364 28.5866 11.8811 27.8622C11.8681 27.8533 11.8551 27.8444 11.8417 27.8352C11.5512 27.6349 11.2769 27.4157 11.0196 27.1732C11.0016 27.1564 11.0016 27.1564 10.9833 27.1392C10.8335 26.9987 10.6856 26.857 10.5421 26.71C10.4886 26.6567 10.4324 26.6074 10.3756 26.5578C10.2512 26.4476 10.1476 26.3236 10.0443 26.1932C10.016 26.1578 9.98716 26.1228 9.95823 26.0879C9.68894 25.7608 9.4545 25.4092 9.23639 25.0456C9.22674 25.0296 9.2171 25.0136 9.20716 24.9972C8.43929 23.7151 8.01677 22.2161 7.89398 20.7295C7.89089 20.6945 7.89089 20.6945 7.88773 20.6588C7.85312 20.2528 7.84921 19.8462 7.84783 19.439C7.84765 19.398 7.84738 19.357 7.84707 19.316C7.84389 18.8017 7.88334 18.2961 7.96786 17.7887C7.97035 17.7735 7.97283 17.7583 7.97539 17.7426C8.15419 16.6519 8.47149 15.5912 8.93585 14.5897C8.94888 14.5611 8.94888 14.5611 8.96218 14.5321C9.18136 14.0531 9.43066 13.5921 9.71725 13.151C9.726 13.1374 9.73475 13.1238 9.74376 13.1099C9.92376 12.8311 10.1153 12.5619 10.3183 12.2999C10.3317 12.2827 10.345 12.2654 10.3588 12.2477C10.6104 11.9263 10.8815 11.6252 11.168 11.3355C11.2013 11.3018 11.2345 11.2679 11.2676 11.234C11.3991 11.1003 11.5346 10.9786 11.6808 10.8612C11.7029 10.8423 11.7248 10.8232 11.7466 10.8039C11.9098 10.66 12.0823 10.5321 12.2589 10.4057C12.2979 10.3777 12.3367 10.3494 12.3753 10.321C13.532 9.4704 14.9146 8.88376 16.3492 8.77406C16.3715 8.7723 16.3939 8.77054 16.417 8.76872C16.6673 8.75135 16.9175 8.74933 17.1684 8.74893ZM15.127 9.60486C15.1094 9.60942 15.0919 9.61399 15.0738 9.61869C14.6681 9.72666 14.272 9.89233 13.9019 10.0916C13.8625 10.1126 13.8228 10.133 13.7831 10.1534C13.0387 10.5382 12.3292 11.0938 11.781 11.7325C11.7436 11.7741 11.7059 11.8154 11.6683 11.8566C11.3962 12.1565 11.1547 12.4766 10.9194 12.8065C10.9068 12.8242 10.8941 12.8418 10.8811 12.8601C9.86301 14.2924 9.23951 15.9898 8.97069 21.1886C9.21625 22.6975 9.76211 24.1128 10.7461 25.2896C10.7767 25.3263 10.8068 25.3633 10.8369 25.4004C11.0707 25.6859 11.3311 25.9527 11.6207 26.1803C11.6579 26.2124 11.695 26.2444 11.7321 26.2766C12.1209 26.604 12.5529 26.8784 12.9947 27.1258C13.0251 27.1428 13.0555 27.16 13.0858 27.1773C13.5334 27.4333 14.021 27.6157 14.5051 27.787C14.5327 27.7967 14.5603 27.8065 14.5878 27.8163C14.9459 27.9438 15.3057 28.0596 15.6729 28.1573C15.6886 28.1615 15.7042 28.1656 15.7203 28.1699C16.0209 28.2498 16.3182 28.314 16.6297 28.3283C16.7099 28.1731 16.7784 28.0187 16.835 27.8533C16.843 27.8303 16.8511 27.8073 16.8593 27.7836C17.0075 27.3566 17.1496 26.9274 17.2926 26.4985C17.3082 26.4517 17.3241 26.4049 17.34 26.3582C17.4102 26.1505 17.4683 25.94 17.525 25.7282C17.5302 25.7089 17.5354 25.6897 17.5407 25.6698C17.9649 24.0873 18.2613 22.4656 18.3928 20.8308C18.3943 20.8124 18.3958 20.7941 18.3974 20.7752C18.462 19.9834 18.4611 19.193 18.4529 18.3992C18.4527 18.3758 18.4525 18.3523 18.4523 18.3282C18.4422 17.2297 18.3407 16.1335 18.0245 15.078C17.997 14.9836 17.9744 14.888 17.952 14.7923C18.6994 14.7391 19.4605 15.3622 19.9957 15.8257C20.0131 15.8404 20.0306 15.8551 20.0485 15.8702C20.2217 16.0205 20.3559 16.1813 20.3964 16.4134C20.4127 16.6495 20.3783 16.8868 20.3531 17.1212C20.3485 17.1648 20.3439 17.2085 20.3393 17.2522C20.3296 17.344 20.3198 17.4357 20.31 17.5274C20.3001 17.6193 20.2903 17.7113 20.2808 17.8032C20.2148 18.4368 20.1353 19.0669 20.0358 19.696C20.0334 19.7112 20.031 19.7264 20.0285 19.7421C19.9987 19.9305 19.9671 20.1186 19.9343 20.3065C19.9298 20.3324 19.9253 20.3584 19.9207 20.3852C19.7388 21.4321 19.5236 22.4729 19.2744 23.5056C19.2661 23.5401 19.2661 23.5401 19.2576 23.5753C18.9426 24.8788 18.5855 26.1797 18.0921 27.4269C18.0517 27.5293 18.0117 27.6319 17.9716 27.7344C17.9191 27.8688 17.8665 28.0031 17.8137 28.1373C17.8056 28.1579 17.7975 28.1785 17.7891 28.1997C17.7738 28.2388 17.7584 28.2778 17.743 28.3168C17.7362 28.3341 17.7294 28.3514 17.7224 28.3692C17.7164 28.3843 17.7104 28.3995 17.7043 28.4151C17.6904 28.4468 17.6904 28.4468 17.6916 28.4701C17.8346 28.4844 17.9777 28.4985 18.1208 28.5123C18.1692 28.517 18.2175 28.5218 18.2659 28.5266C18.8345 28.5835 19.4019 28.5959 19.9729 28.5955C20.0153 28.5955 20.0577 28.5955 20.1001 28.5955C20.5074 28.5955 20.9131 28.587 21.3195 28.5592C21.4065 28.5535 21.4934 28.5499 21.5805 28.5474C21.9258 28.5376 22.2678 28.5127 22.6115 28.4796C22.6848 28.4726 22.7581 28.4658 22.8315 28.4592C22.8889 28.4539 22.9463 28.4485 23.0037 28.443C23.0437 28.4393 23.0838 28.4356 23.1239 28.4319C23.1481 28.4296 23.1724 28.4272 23.1974 28.4248C23.2186 28.4227 23.2397 28.4207 23.2615 28.4187C23.326 28.4086 23.3818 28.3944 23.4419 28.3688C23.4964 28.2529 23.4814 28.1415 23.469 28.0166C23.4673 27.9961 23.4655 27.9757 23.4636 27.9546C23.4579 27.8892 23.4518 27.8238 23.4456 27.7584C23.421 27.4915 23.4001 27.2261 23.3932 26.9581C23.3835 26.6005 23.3513 26.2452 23.3201 25.889C23.3078 25.7494 23.2959 25.6098 23.2839 25.4702C23.2808 25.4343 23.2778 25.3984 23.2747 25.3625C23.2561 25.1473 23.2389 24.932 23.2238 24.7165C23.1768 24.0474 23.1123 23.381 23.0397 22.7143C23.0291 22.6167 23.0187 22.5191 23.0084 22.4215C22.9271 21.6527 22.8326 20.8866 22.7206 20.1216C22.7157 20.0882 22.7109 20.0548 22.706 20.0214C22.6802 19.8452 22.6533 19.6693 22.6254 19.4934C22.6194 19.455 22.6194 19.455 22.6132 19.4159C22.3409 17.6908 21.9994 15.9874 21.4583 14.3262C21.45 14.3006 21.45 14.3006 21.4415 14.2744C21.0714 13.1352 20.598 11.9949 19.8354 11.0638C19.8257 11.0519 19.816 11.04 19.806 11.0278C19.5358 10.6985 19.2466 10.4063 18.8977 10.1626C18.8577 10.1346 18.8183 10.1059 18.779 10.0769C18.38 9.78866 17.9116 9.61473 17.4361 9.50734C17.4099 9.50141 17.4099 9.50141 17.3831 9.49536C17.0929 9.4341 16.8039 9.4147 16.5082 9.41616C16.484 9.41622 16.484 9.41622 16.4594 9.41629C16.0008 9.41827 15.5708 9.48845 15.127 9.60486ZM46.3305 21.6523C46.2569 21.7853 46.2561 21.9078 46.2566 22.0567C46.2563 22.0774 46.2559 22.0981 46.2556 22.1193C46.2555 22.2639 46.2713 22.3565 46.373 22.4645C46.5221 22.5803 46.7231 22.6102 46.904 22.638C46.9341 22.643 46.9341 22.643 46.9649 22.6481C47.1861 22.6838 47.4013 22.6983 47.6253 22.695C47.6044 22.6111 47.5834 22.5272 47.5623 22.4433C47.5552 22.415 47.5481 22.3866 47.541 22.3582C47.4757 22.0952 47.4083 21.8296 47.2834 21.5881C47.2769 21.5749 47.2704 21.5617 47.2637 21.548C47.1915 21.4048 47.1104 21.3019 46.9641 21.2361C46.6929 21.1744 46.466 21.4536 46.3305 21.6523Z" fill="#B79F7C"/>
<path d="M37.0666 0.222884C37.09 0.231112 37.1135 0.23934 37.1377 0.247818C37.6291 0.433019 38.1053 0.737815 38.5092 1.07395C38.5196 1.08252 38.5301 1.0911 38.5409 1.09993C39.0026 1.478 39.3285 1.92647 39.6111 2.45186C39.7752 2.29633 39.9006 2.10935 40.0231 1.91995C40.0511 1.87714 40.0791 1.83434 40.1072 1.79156C40.1213 1.77001 40.1353 1.74847 40.1499 1.72628C40.5171 1.16496 40.5171 1.16496 40.673 1.01316C40.6878 0.998713 40.7026 0.984268 40.7179 0.969385C40.7686 0.921753 40.8206 0.876121 40.8734 0.830787C40.8891 0.817078 40.8891 0.817078 40.9051 0.803093C41.4791 0.30541 42.1863 0.0197151 42.9441 0.0161338C42.9735 0.0159605 42.9735 0.0159605 43.0034 0.0157838C43.0447 0.0155932 43.086 0.0154603 43.1274 0.0153818C43.1889 0.0151875 43.2504 0.0145589 43.312 0.0139175C43.5919 0.0123818 43.8631 0.0339513 44.1393 0.08104C44.1739 0.0869074 44.1739 0.0869074 44.2092 0.0928934C44.3771 0.128718 44.5298 0.205579 44.6831 0.281349C44.7287 0.30377 44.7746 0.325514 44.8205 0.347235C45.0199 0.443649 45.1805 0.556416 45.3414 0.709206C45.3569 0.723563 45.3724 0.73792 45.3884 0.752711C45.5707 0.924657 45.7278 1.10497 45.8624 1.31711C45.875 1.33631 45.8877 1.35551 45.9007 1.37529C45.9748 1.49425 46.0287 1.61793 46.0777 1.74897C46.0862 1.77127 46.0862 1.77127 46.0949 1.79403C46.1839 2.04362 46.2143 2.2966 46.213 2.56078C46.2129 2.57472 46.2129 2.58867 46.2128 2.60304C46.2063 3.58227 45.6989 4.51366 45.1411 5.28874C45.1302 5.30397 45.1193 5.31921 45.108 5.33491C44.7573 5.82454 44.3809 6.29547 43.979 6.74327C43.9426 6.78404 43.9069 6.82525 43.8713 6.86675C43.785 6.96693 43.6957 7.06441 43.6067 7.16216C43.5796 7.19196 43.5527 7.22186 43.5257 7.25176C43.1056 7.7171 43.1056 7.7171 42.9196 7.89892C42.8822 7.93778 42.8474 7.97756 42.8125 8.0186C42.7212 8.12489 42.6219 8.22246 42.5227 8.32105C42.4416 8.40212 42.3648 8.48503 42.2905 8.5724C42.2319 8.63931 42.1687 8.70137 42.1056 8.76392C42.0164 8.85321 41.9295 8.94268 41.8485 9.03977C41.806 9.08844 41.7606 9.13367 41.7149 9.17932C41.6451 9.24918 41.579 9.32033 41.5153 9.3958C41.4715 9.44616 41.4264 9.495 41.381 9.54386C41.2746 9.65852 41.1727 9.77486 41.0755 9.8978C41.0357 9.94689 40.994 9.99297 40.951 10.0392C40.7356 10.2789 40.5471 10.5504 40.3759 10.8238C40.36 10.8491 40.344 10.8743 40.3279 10.8994C40.175 11.1383 40.0697 11.3912 39.972 11.6575C39.9558 11.7014 39.9388 11.7448 39.9214 11.7882C39.7587 12.2331 39.9116 12.7903 40.0961 13.2052C40.2609 13.5528 40.4716 13.8724 40.6868 14.1894C40.9703 14.6075 41.2007 15.0234 41.3142 15.5218C41.3178 15.5371 41.3213 15.5524 41.325 15.5683C41.4289 16.0409 41.4266 16.6168 41.2942 17.0821C41.2898 17.0976 41.2855 17.1132 41.2811 17.1293C41.1929 17.4378 41.0467 17.7233 40.9054 18.0096C40.8785 18.0646 40.8523 18.1198 40.8267 18.1753C40.7424 18.3565 40.6407 18.5104 40.5128 18.6626C40.5038 18.6736 40.4948 18.6846 40.4856 18.6959C40.3506 18.8603 40.2177 18.9933 39.9993 19.0235C39.9659 19.0254 39.9659 19.0254 39.9317 19.0273C39.9422 18.8749 39.9703 18.7313 40.0065 18.5832C40.0177 18.5363 40.0289 18.4894 40.0401 18.4425C40.0459 18.4183 40.0517 18.394 40.0577 18.369C40.1052 18.1709 40.1512 17.9723 40.1974 17.7738C40.2065 17.7346 40.2157 17.6953 40.2249 17.6561C40.3657 17.0559 40.368 16.4746 40.2723 15.8662C40.2691 15.8433 40.2691 15.8433 40.2658 15.82C40.2078 15.4244 39.9886 15.0543 39.8199 14.697C39.7966 14.6477 39.7734 14.5984 39.7501 14.5491C39.7424 14.5328 39.7347 14.5164 39.7268 14.4996C39.1686 13.3144 38.7699 12.0154 39.2104 10.7193C39.4584 10.0351 39.891 9.4695 40.3725 8.93616C40.3978 8.90779 40.3978 8.90779 40.4235 8.87885C40.533 8.75631 40.646 8.63831 40.7622 8.52219C40.8173 8.46679 40.8708 8.41118 40.921 8.35105C41.0028 8.25332 41.0943 8.16513 41.1842 8.07509C41.2611 7.99779 41.335 7.91939 41.405 7.8356C41.4367 7.79878 41.4701 7.76468 41.5045 7.73048C41.564 7.67122 41.6189 7.60918 41.6733 7.54518C41.7152 7.49712 41.7581 7.45026 41.8013 7.40346C41.9024 7.29396 41.9986 7.18231 42.0914 7.06543C42.1379 7.00845 42.1864 6.95403 42.2358 6.89968C42.3339 6.79168 42.4257 6.67968 42.5163 6.56534C42.5344 6.54288 42.5524 6.52042 42.5705 6.49798C42.9545 6.01901 43.3146 5.51993 43.6183 4.98479C43.6266 4.97025 43.6349 4.9557 43.6434 4.94072C43.6891 4.8603 43.7339 4.77947 43.778 4.69821C43.798 4.66171 43.8185 4.62552 43.839 4.58934C44.2282 3.89305 44.4735 3.05844 44.2595 2.26949C44.202 2.0667 44.1271 1.8959 43.979 1.74264C43.9598 1.72274 43.9598 1.72274 43.9402 1.70243C43.7251 1.49724 43.4489 1.42474 43.1585 1.43164C42.3196 1.48973 41.553 2.09082 40.9335 2.61397C40.9219 2.62374 40.9102 2.63351 40.8982 2.64357C40.7575 2.76171 40.6209 2.8836 40.4868 3.00942C40.442 3.05103 40.3965 3.09107 40.35 3.13069C40.1095 3.34464 39.9728 3.58113 39.8335 3.86793C39.8236 3.88824 39.8137 3.90855 39.8035 3.92948C39.784 3.96977 39.7647 4.01017 39.7457 4.05068C39.7369 4.06907 39.7281 4.08747 39.719 4.10642C39.7112 4.12292 39.7034 4.13943 39.6954 4.15644C39.6712 4.19452 39.6712 4.19452 39.6111 4.21478C39.599 4.19736 39.5869 4.17993 39.5743 4.16198C39.2991 3.76862 39.0082 3.37074 38.665 3.03499C38.6292 2.99876 38.5968 2.96096 38.5643 2.92172C38.4683 2.80933 38.3583 2.71229 38.2487 2.61397C38.238 2.60424 38.2272 2.59452 38.2162 2.5845C37.5528 1.98438 36.7657 1.54525 35.8568 1.57736C35.5843 1.59384 35.357 1.66812 35.1631 1.86422C35.1522 1.8753 35.1412 1.88637 35.13 1.89778C34.9288 2.11788 34.8395 2.46415 34.8338 2.75961C34.836 2.79892 34.839 2.83819 34.8426 2.87739C34.8447 2.91736 34.8447 2.91736 34.847 2.95813C34.864 3.2096 34.9354 3.43298 35.0229 3.66767C35.031 3.68958 35.0391 3.71149 35.0474 3.73407C35.3239 4.47663 35.6649 5.10982 36.1449 5.73454C36.3614 6.01739 36.5751 6.3024 36.7811 6.5932C36.892 6.7496 37.0072 6.90183 37.1267 7.05166C37.1419 7.07073 37.157 7.08979 37.1727 7.10944C37.2622 7.22081 37.3535 7.33054 37.4454 7.43986C37.5045 7.51027 37.5626 7.58144 37.6201 7.65323C37.6918 7.74243 37.7668 7.82777 37.8434 7.91269C37.8876 7.96302 37.9292 8.01474 37.9707 8.06736C38.0614 8.18091 38.1594 8.2867 38.2589 8.39242C38.3212 8.45872 38.382 8.52562 38.4408 8.59516C38.4818 8.64313 38.5226 8.68638 38.5711 8.72664C38.6562 8.79926 38.7205 8.85461 38.7458 8.96893C38.7492 9.17022 38.7233 9.40677 38.5893 9.56432C38.4285 9.72215 38.4285 9.72215 38.3288 9.76696C38.28 9.76102 38.2555 9.75358 38.2204 9.71817C38.2119 9.70611 38.2034 9.69405 38.1946 9.68163C38.1849 9.66821 38.1753 9.6548 38.1653 9.64097C38.1502 9.61933 38.1502 9.61933 38.1347 9.59725C38.1132 9.56736 38.0916 9.53749 38.07 9.50765C38.0595 9.49301 38.0489 9.47837 38.038 9.46328C37.9717 9.37236 37.8999 9.28597 37.8279 9.19958C37.8192 9.189 37.8104 9.17841 37.8014 9.1675C37.5294 8.83958 37.2346 8.53537 36.9351 8.23319C36.8878 8.18541 36.8405 8.13756 36.7933 8.08967C36.7474 8.04314 36.7014 7.99668 36.6554 7.95021C36.6387 7.93328 36.622 7.91635 36.6048 7.89891C36.5184 7.8119 36.4306 7.72792 36.338 7.64773C36.2983 7.61301 36.2615 7.57614 36.2251 7.53798C36.1605 7.47168 36.0931 7.41046 36.0234 7.34983C35.9855 7.31589 35.9499 7.28064 35.9145 7.24416C35.867 7.19526 35.8182 7.14948 35.7667 7.10485C35.6917 7.03947 35.6222 6.96968 35.5532 6.89778C35.5137 6.85883 35.4737 6.82262 35.4319 6.78637C35.3379 6.70349 35.2498 6.61539 35.1618 6.52615C35.145 6.5092 35.1282 6.49224 35.111 6.47477C35.0757 6.43912 35.0405 6.40344 35.0052 6.36774C34.9517 6.31347 34.898 6.2593 34.8443 6.20515C34.8099 6.17031 34.7755 6.13547 34.7411 6.10062C34.7252 6.08462 34.7093 6.06861 34.693 6.05212C34.5986 5.95622 34.509 5.85748 34.4218 5.7548C34.4018 5.73206 34.3818 5.70936 34.3617 5.68673C34.0926 5.38051 33.8501 5.05176 33.6404 4.7011C33.6318 4.68665 33.6231 4.67219 33.6142 4.6573C33.4169 4.32305 33.2713 3.96482 33.1796 3.58661C33.1763 3.57356 33.173 3.5605 33.1696 3.54706C33.0601 3.09089 33.0859 2.55865 33.1996 2.10738C33.2036 2.09095 33.2076 2.07452 33.2117 2.05759C33.3406 1.53742 33.5662 1.03054 33.941 0.648416C33.9605 0.627141 33.9605 0.627141 33.9805 0.605435C34.7295 -0.198611 36.1245 -0.11183 37.0666 0.222884Z" fill="#B79F7C"/>
</g>
<defs>
<clipPath id="clip0_10103_472">
<rect width="78" height="40" fill="white"/>
</clipPath>
</defs>
</svg>
