<svg width="18" height="18" viewBox="0 0 18 18" fill="none" xmlns="http://www.w3.org/2000/svg">
<path d="M14.5078 18H3.49219C2.53906 18 1.71875 17.6641 1.03125 16.9922C0.34375 16.3047 0 15.4766 0 14.5078V3.51562C0 2.54687 0.34375 1.71875 1.03125 1.03125C1.71875 0.34375 2.53906 0 3.49219 0H14.5078C15.4609 0 16.2812 0.34375 16.9688 1.03125C17.6562 1.71875 18 2.54687 18 3.51562V14.5078C18 15.4766 17.6562 16.3047 16.9688 16.9922C16.2812 17.6641 15.4609 18 14.5078 18ZM3.49219 2.01562C3.08594 2.01562 2.73438 2.16406 2.4375 2.46094C2.14062 2.74219 1.99219 3.09375 1.99219 3.51562V14.5078C1.99219 14.9141 2.14062 15.2656 2.4375 15.5625C2.73438 15.8594 3.08594 16.0078 3.49219 16.0078H14.5078C14.9141 16.0078 15.2656 15.8594 15.5625 15.5625C15.8594 15.2656 16.0078 14.9141 16.0078 14.5078V3.51562C16.0078 3.09375 15.8594 2.74219 15.5625 2.46094C15.2656 2.16406 14.9141 2.01562 14.5078 2.01562H3.49219ZM13.9922 5.01562C13.9922 4.73438 13.8906 4.5 13.6875 4.3125C13.5 4.10938 13.2734 4.00781 13.0078 4.00781H4.99219C4.72656 4.00781 4.49219 4.10938 4.28906 4.3125C4.10156 4.5 4.00781 4.73438 4.00781 5.01562C4.00781 5.28125 4.10156 5.51562 4.28906 5.71875C4.49219 5.90625 4.72656 6 4.99219 6H13.0078C13.2734 6 13.5 5.90625 13.6875 5.71875C13.8906 5.51562 13.9922 5.28125 13.9922 5.01562ZM13.9922 13.0078C13.9922 12.7266 13.8906 12.4922 13.6875 12.3047C13.5 12.1016 13.2734 12 13.0078 12H4.99219C4.72656 12 4.49219 12.1016 4.28906 12.3047C4.10156 12.4922 4.00781 12.7266 4.00781 13.0078C4.00781 13.2891 4.10156 13.5312 4.28906 13.7344C4.49219 13.9219 4.72656 14.0156 4.99219 14.0156H13.0078C13.2734 14.0156 13.5 13.9219 13.6875 13.7344C13.8906 13.5312 13.9922 13.2891 13.9922 13.0078ZM9 9C9 8.73438 8.89844 8.50781 8.69531 8.32031C8.50781 8.11719 8.27344 8.01562 7.99219 8.01562H4.99219C4.72656 8.01562 4.49219 8.11719 4.28906 8.32031C4.10156 8.50781 4.00781 8.73438 4.00781 9C4.00781 9.28125 4.10156 9.52344 4.28906 9.72656C4.49219 9.91406 4.72656 10.0078 4.99219 10.0078H7.99219C8.27344 10.0078 8.50781 9.91406 8.69531 9.72656C8.89844 9.52344 9 9.28125 9 9ZM13.9922 9C13.9922 8.73438 13.8906 8.50781 13.6875 8.32031C13.5 8.11719 13.2734 8.01562 13.0078 8.01562H12C11.7188 8.01562 11.4844 8.11719 11.2969 8.32031C11.1094 8.50781 11.0156 8.73438 11.0156 9C11.0156 9.28125 11.1094 9.52344 11.2969 9.72656C11.5 9.91406 11.7422 10.0078 12.0234 10.0078H13.0078C13.2734 10.0078 13.5 9.91406 13.6875 9.72656C13.8906 9.52344 13.9922 9.28125 13.9922 9Z" fill="#8091A7"/>
</svg>
