<svg width="16" height="4" viewBox="0 0 16 4" fill="none" xmlns="http://www.w3.org/2000/svg">
<path d="M7.9625 3.78574C7.44115 3.78574 6.99088 3.60208 6.61172 3.23477C6.2444 2.86745 6.06074 2.41719 6.06074 1.88399C6.06074 1.36263 6.2444 0.918295 6.61172 0.550978C6.99088 0.18366 7.44115 1.12876e-06 7.9625 1.12876e-06C8.48385 1.12876e-06 8.92819 0.18366 9.29551 0.550978C9.67467 0.918295 9.86426 1.36263 9.86426 1.88399C9.86426 2.40534 9.67467 2.8556 9.29551 3.23477C8.92819 3.60208 8.48385 3.78574 7.9625 3.78574ZM14.0232 3.78574C13.5019 3.78574 13.0576 3.60208 12.6902 3.23477C12.3229 2.86745 12.1393 2.41719 12.1393 1.88399C12.1393 1.36263 12.3229 0.918295 12.6902 0.550978C13.0576 0.18366 13.5019 1.12876e-06 14.0232 1.12876e-06C14.5564 1.12876e-06 15.0067 0.18366 15.374 0.550978C15.7413 0.918295 15.925 1.36263 15.925 1.88399C15.925 2.40534 15.7354 2.8556 15.3562 3.23477C14.9889 3.60208 14.5446 3.78574 14.0232 3.78574ZM1.90176 3.78574C1.36855 3.78574 0.918294 3.60208 0.550976 3.23477C0.183658 2.86745 -7.15256e-07 2.41719 -7.15256e-07 1.88399C-7.15256e-07 1.36263 0.183658 0.918295 0.550976 0.550978C0.918294 0.18366 1.36855 1.12876e-06 1.90176 1.12876e-06C2.42311 1.12876e-06 2.86745 0.18366 3.23477 0.550978C3.60208 0.918295 3.78574 1.36263 3.78574 1.88399C3.78574 2.40534 3.60208 2.8556 3.23477 3.23477C2.86745 3.60208 2.42311 3.78574 1.90176 3.78574Z" fill="#8091A7"/>
</svg>
