<svg width="19" height="19" viewBox="0 0 19 19" fill="none" xmlns="http://www.w3.org/2000/svg">
<path d="M4.21875 8.41797C3.64583 8.41797 3.08594 8.3724 2.53906 8.28125C2.00521 8.1901 1.48438 8.0599 0.976562 7.89062L1.05469 7.91016C0.924479 7.87109 0.807292 7.80599 0.703125 7.71484C0.611979 7.6237 0.546875 7.51302 0.507812 7.38281C0.351562 6.90104 0.227865 6.39323 0.136719 5.85938C0.0455729 5.32552 0 4.77214 0 4.19922C0 3.63932 0.0455729 3.08594 0.136719 2.53906C0.227865 1.99219 0.358073 1.46484 0.527344 0.957031L0.507812 1.03516C0.546875 0.904948 0.611979 0.794271 0.703125 0.703125C0.807292 0.611979 0.917969 0.540365 1.03516 0.488281H1.05469C1.52344 0.332031 2.02474 0.214844 2.55859 0.136719C3.09245 0.0455729 3.64583 0 4.21875 0C4.79167 0 5.34505 0.0455729 5.87891 0.136719C6.42578 0.214844 6.95312 0.338542 7.46094 0.507812L7.38281 0.488281C7.51302 0.540365 7.6237 0.611979 7.71484 0.703125C7.81901 0.794271 7.89062 0.904948 7.92969 1.03516C8.08594 1.50391 8.20964 2.01172 8.30078 2.55859C8.39193 3.09245 8.4375 3.63932 8.4375 4.19922C8.4375 4.77214 8.39193 5.33203 8.30078 5.87891C8.20964 6.41276 8.07943 6.93359 7.91016 7.44141L7.92969 7.38281C7.89062 7.51302 7.81901 7.6237 7.71484 7.71484C7.6237 7.80599 7.51953 7.87109 7.40234 7.91016H7.38281C6.91406 8.06641 6.41276 8.1901 5.87891 8.28125C5.34505 8.3724 4.79167 8.41797 4.21875 8.41797ZM1.97266 6.44531C2.3112 6.54948 2.66927 6.6276 3.04688 6.67969C3.42448 6.73177 3.8151 6.75781 4.21875 6.75781C4.6224 6.75781 5.01302 6.73177 5.39062 6.67969C5.78125 6.6276 6.15885 6.54948 6.52344 6.44531H6.46484C6.55599 6.10677 6.6276 5.7487 6.67969 5.37109C6.73177 4.99349 6.75781 4.60286 6.75781 4.19922C6.75781 3.80859 6.73177 3.41797 6.67969 3.02734C6.6276 2.63672 6.54948 2.25911 6.44531 1.89453L6.46484 1.95312C6.1263 1.86198 5.76823 1.79036 5.39062 1.73828C5.01302 1.6862 4.6224 1.66016 4.21875 1.66016C3.8151 1.66016 3.41797 1.6862 3.02734 1.73828C2.64974 1.79036 2.27865 1.86849 1.91406 1.97266L1.97266 1.95312C1.88151 2.29167 1.8099 2.65625 1.75781 3.04688C1.70573 3.42448 1.67969 3.80859 1.67969 4.19922C1.67969 4.60286 1.70573 5 1.75781 5.39062C1.8099 5.76823 1.88802 6.13932 1.99219 6.50391L1.97266 6.44531ZM14.2188 8.41797C13.6458 8.41797 13.0859 8.3724 12.5391 8.28125C12.0052 8.1901 11.4844 8.0599 10.9766 7.89062L11.0547 7.91016C10.9245 7.87109 10.8073 7.80599 10.7031 7.71484C10.612 7.6237 10.5469 7.51302 10.5078 7.38281C10.3516 6.90104 10.2279 6.39323 10.1367 5.85938C10.0456 5.32552 10 4.77214 10 4.19922C10 3.63932 10.0456 3.08594 10.1367 2.53906C10.2279 1.99219 10.3581 1.46484 10.5273 0.957031L10.5078 1.03516C10.5469 0.904948 10.612 0.794271 10.7031 0.703125C10.8073 0.611979 10.918 0.540365 11.0352 0.488281H11.0547C11.5234 0.332031 12.0247 0.214844 12.5586 0.136719C13.0924 0.0455729 13.6458 0 14.2188 0C14.7917 0 15.3451 0.0455729 15.8789 0.136719C16.4258 0.214844 16.9531 0.338542 17.4609 0.507812L17.3828 0.488281C17.513 0.540365 17.6237 0.611979 17.7148 0.703125C17.819 0.794271 17.8906 0.904948 17.9297 1.03516C18.0859 1.50391 18.2096 2.01172 18.3008 2.55859C18.3919 3.09245 18.4375 3.63932 18.4375 4.19922C18.4375 4.77214 18.3919 5.33203 18.3008 5.87891C18.2096 6.41276 18.0794 6.93359 17.9102 7.44141L17.9297 7.38281C17.8906 7.51302 17.819 7.6237 17.7148 7.71484C17.6237 7.80599 17.5195 7.87109 17.4023 7.91016H17.3828C16.9141 8.06641 16.4128 8.1901 15.8789 8.28125C15.3451 8.3724 14.7917 8.41797 14.2188 8.41797ZM11.9727 6.44531C12.3112 6.54948 12.6693 6.6276 13.0469 6.67969C13.4245 6.73177 13.8151 6.75781 14.2188 6.75781C14.6224 6.75781 15.013 6.73177 15.3906 6.67969C15.7812 6.6276 16.1589 6.54948 16.5234 6.44531H16.4648C16.556 6.10677 16.6276 5.7487 16.6797 5.37109C16.7318 4.99349 16.7578 4.60286 16.7578 4.19922C16.7578 3.80859 16.7318 3.41797 16.6797 3.02734C16.6276 2.63672 16.5495 2.25911 16.4453 1.89453L16.4648 1.95312C16.1263 1.86198 15.7682 1.79036 15.3906 1.73828C15.013 1.6862 14.6224 1.66016 14.2188 1.66016C13.8151 1.66016 13.418 1.6862 13.0273 1.73828C12.6497 1.79036 12.2786 1.86849 11.9141 1.97266L11.9727 1.95312C11.8815 2.29167 11.8099 2.65625 11.7578 3.04688C11.7057 3.42448 11.6797 3.80859 11.6797 4.19922C11.6797 4.60286 11.7057 5 11.7578 5.39062C11.8099 5.76823 11.888 6.13932 11.9922 6.50391L11.9727 6.44531ZM14.2188 18.418C13.6458 18.418 13.0859 18.3724 12.5391 18.2812C12.0052 18.1901 11.4844 18.0599 10.9766 17.8906L11.0547 17.9102C10.9245 17.8711 10.8073 17.806 10.7031 17.7148C10.612 17.6237 10.5469 17.513 10.5078 17.3828C10.3516 16.901 10.2279 16.3932 10.1367 15.8594C10.0456 15.3255 10 14.7721 10 14.1992C10 13.6393 10.0456 13.0859 10.1367 12.5391C10.2279 11.9922 10.3581 11.4648 10.5273 10.957L10.5078 11.0352C10.5469 10.9049 10.612 10.7943 10.7031 10.7031C10.8073 10.612 10.918 10.5404 11.0352 10.4883H11.0547C11.5234 10.332 12.0247 10.2148 12.5586 10.1367C13.0924 10.0456 13.6458 10 14.2188 10C14.7917 10 15.3451 10.0456 15.8789 10.1367C16.4258 10.2148 16.9531 10.3385 17.4609 10.5078L17.3828 10.4883C17.513 10.5404 17.6237 10.612 17.7148 10.7031C17.819 10.7943 17.8906 10.9049 17.9297 11.0352C18.0859 11.5039 18.2096 12.0117 18.3008 12.5586C18.3919 13.0924 18.4375 13.6393 18.4375 14.1992C18.4375 14.7721 18.3919 15.332 18.3008 15.8789C18.2096 16.4128 18.0794 16.9336 17.9102 17.4414L17.9297 17.3828C17.8906 17.513 17.819 17.6237 17.7148 17.7148C17.6237 17.806 17.5195 17.8711 17.4023 17.9102H17.3828C16.9141 18.0664 16.4128 18.1901 15.8789 18.2812C15.3451 18.3724 14.7917 18.418 14.2188 18.418ZM11.9727 16.4453C12.3112 16.5495 12.6693 16.6276 13.0469 16.6797C13.4245 16.7318 13.8151 16.7578 14.2188 16.7578C14.6224 16.7578 15.013 16.7318 15.3906 16.6797C15.7812 16.6276 16.1589 16.5495 16.5234 16.4453H16.4648C16.556 16.1068 16.6276 15.7487 16.6797 15.3711C16.7318 14.9935 16.7578 14.6029 16.7578 14.1992C16.7578 13.8086 16.7318 13.418 16.6797 13.0273C16.6276 12.6367 16.5495 12.2591 16.4453 11.8945L16.4648 11.9531C16.1263 11.862 15.7682 11.7904 15.3906 11.7383C15.013 11.6862 14.6224 11.6602 14.2188 11.6602C13.8151 11.6602 13.418 11.6862 13.0273 11.7383C12.6497 11.7904 12.2786 11.8685 11.9141 11.9727L11.9727 11.9531C11.8815 12.2917 11.8099 12.6562 11.7578 13.0469C11.7057 13.4245 11.6797 13.8086 11.6797 14.1992C11.6797 14.6029 11.7057 15 11.7578 15.3906C11.8099 15.7682 11.888 16.1393 11.9922 16.5039L11.9727 16.4453ZM4.21875 18.418C3.64583 18.418 3.08594 18.3724 2.53906 18.2812C2.00521 18.1901 1.48438 18.0599 0.976562 17.8906L1.05469 17.9102C0.924479 17.8711 0.807292 17.806 0.703125 17.7148C0.611979 17.6237 0.546875 17.513 0.507812 17.3828C0.351562 16.901 0.227865 16.3932 0.136719 15.8594C0.0455729 15.3255 0 14.7721 0 14.1992C0 13.6393 0.0455729 13.0859 0.136719 12.5391C0.227865 11.9922 0.358073 11.4648 0.527344 10.957L0.507812 11.0352C0.546875 10.9049 0.611979 10.7943 0.703125 10.7031C0.807292 10.612 0.917969 10.5404 1.03516 10.4883H1.05469C1.52344 10.332 2.02474 10.2148 2.55859 10.1367C3.09245 10.0456 3.64583 10 4.21875 10C4.79167 10 5.34505 10.0456 5.87891 10.1367C6.42578 10.2148 6.95312 10.3385 7.46094 10.5078L7.38281 10.4883C7.51302 10.5404 7.6237 10.612 7.71484 10.7031C7.81901 10.7943 7.89062 10.9049 7.92969 11.0352C8.08594 11.5039 8.20964 12.0117 8.30078 12.5586C8.39193 13.0924 8.4375 13.6393 8.4375 14.1992C8.4375 14.7721 8.39193 15.332 8.30078 15.8789C8.20964 16.4128 8.07943 16.9336 7.91016 17.4414L7.92969 17.3828C7.89062 17.513 7.81901 17.6237 7.71484 17.7148C7.6237 17.806 7.51953 17.8711 7.40234 17.9102H7.38281C6.91406 18.0664 6.41276 18.1901 5.87891 18.2812C5.34505 18.3724 4.79167 18.418 4.21875 18.418ZM1.97266 16.4453C2.3112 16.5495 2.66927 16.6276 3.04688 16.6797C3.42448 16.7318 3.8151 16.7578 4.21875 16.7578C4.6224 16.7578 5.01302 16.7318 5.39062 16.6797C5.78125 16.6276 6.15885 16.5495 6.52344 16.4453H6.46484C6.55599 16.1068 6.6276 15.7487 6.67969 15.3711C6.73177 14.9935 6.75781 14.6029 6.75781 14.1992C6.75781 13.8086 6.73177 13.418 6.67969 13.0273C6.6276 12.6367 6.54948 12.2591 6.44531 11.8945L6.46484 11.9531C6.1263 11.862 5.76823 11.7904 5.39062 11.7383C5.01302 11.6862 4.6224 11.6602 4.21875 11.6602C3.8151 11.6602 3.41797 11.6862 3.02734 11.7383C2.64974 11.7904 2.27865 11.8685 1.91406 11.9727L1.97266 11.9531C1.88151 12.2917 1.8099 12.6562 1.75781 13.0469C1.70573 13.4245 1.67969 13.8086 1.67969 14.1992C1.67969 14.6029 1.70573 15 1.75781 15.3906C1.8099 15.7682 1.88802 16.1393 1.99219 16.5039L1.97266 16.4453Z" fill="#8091A7"/>
</svg>
