<svg width="6" height="10" viewBox="0 0 6 10" fill="none" xmlns="http://www.w3.org/2000/svg">
<path d="M0.820312 9.98047C0.598958 9.98047 0.403646 9.90234 0.234375 9.74609C0.078125 9.57682 0 9.38151 0 9.16016C0 9.04297 0.0195312 8.93229 0.0585938 8.82812C0.0976562 8.72396 0.15625 8.63932 0.234375 8.57422L3.80859 4.98047L0.234375 1.40625C0.169271 1.32812 0.110677 1.24349 0.0585938 1.15234C0.0195312 1.04818 0 0.94401 0 0.839844C0 0.605469 0.078125 0.410156 0.234375 0.253906C0.403646 0.0846354 0.605469 0 0.839844 0C0.94401 0 1.04818 0.0195312 1.15234 0.0585938C1.25651 0.0976562 1.34766 0.15625 1.42578 0.234375L5.58594 4.39453C5.66406 4.47266 5.72266 4.5638 5.76172 4.66797C5.80078 4.75911 5.82031 4.86328 5.82031 4.98047C5.82031 5.09766 5.80078 5.20833 5.76172 5.3125C5.72266 5.41667 5.66406 5.5013 5.58594 5.56641L1.40625 9.74609C1.34115 9.82422 1.25651 9.88281 1.15234 9.92188C1.04818 9.96094 0.9375 9.98047 0.820312 9.98047Z" fill="#8091A7"/>
</svg>
