<svg width="14" height="14" viewBox="0 0 14 14" fill="none" xmlns="http://www.w3.org/2000/svg">
<path d="M12.8422 11.9133L10.4504 9.52148C10.8465 9.02383 11.1563 8.46523 11.3797 7.8457C11.6133 7.21602 11.7301 6.55586 11.7301 5.86523C11.7301 5.05273 11.5777 4.29102 11.273 3.58008C10.9684 2.86914 10.5469 2.24961 10.0086 1.72148C9.48047 1.1832 8.86094 0.761718 8.15 0.457031C7.43906 0.152343 6.67734 -3.18512e-07 5.86484 -3.18512e-07C5.0625 -3.18512e-07 4.30586 0.152343 3.59492 0.457031C2.87383 0.761718 2.24922 1.1832 1.72109 1.72148C1.19297 2.24961 0.776562 2.86914 0.471875 3.58008C0.157031 4.29102 -0.000390785 5.05273 -0.000390785 5.86523C-0.000390785 6.66758 0.157031 7.4293 0.471875 8.15039C0.776562 8.86133 1.19297 9.48086 1.72109 10.009C2.24922 10.5371 2.87383 10.9535 3.59492 11.2582C4.30586 11.573 5.0625 11.7305 5.86484 11.7305C6.56563 11.7305 7.22578 11.6187 7.84531 11.3953C8.475 11.1617 9.03867 10.8418 9.53633 10.4355L11.9281 12.8273C11.9891 12.8883 12.0551 12.934 12.1262 12.9645C12.2074 12.9949 12.2887 13.0102 12.3699 13.0102C12.5527 13.0102 12.7051 12.9492 12.827 12.8273C12.959 12.6953 13.025 12.543 13.025 12.3703C13.025 12.2789 13.0098 12.1977 12.9793 12.1266C12.9488 12.0453 12.9031 11.9742 12.8422 11.9133ZM1.34023 5.88047C1.34023 5.87031 1.34023 5.86523 1.34023 5.86523C1.34023 5.2457 1.45703 4.65664 1.69062 4.09805C1.93437 3.54961 2.25937 3.07227 2.66562 2.66602C3.08203 2.24961 3.56445 1.91953 4.11289 1.67578C4.66133 1.44219 5.25039 1.32539 5.88008 1.32539C6.50977 1.32539 7.10391 1.44219 7.6625 1.67578C8.21094 1.91953 8.68828 2.24961 9.09453 2.66602C9.51094 3.07227 9.84102 3.54961 10.0848 4.09805C10.3184 4.65664 10.4352 5.2457 10.4352 5.86523C10.4352 6.49492 10.3133 7.08398 10.0695 7.63242C9.83594 8.18086 9.51602 8.66328 9.10977 9.07969C9.10977 9.07969 9.10469 9.07969 9.09453 9.07969C9.09453 9.07969 9.09453 9.08477 9.09453 9.09492C9.09453 9.09492 9.09453 9.1 9.09453 9.11016C8.67813 9.51641 8.1957 9.83633 7.64727 10.0699C7.09883 10.3035 6.50977 10.4203 5.88008 10.4203C5.25039 10.4203 4.66133 10.3035 4.11289 10.0699C3.56445 9.82617 3.08203 9.50117 2.66562 9.09492C2.25937 8.67852 1.93437 8.19609 1.69062 7.64766C1.45703 7.09922 1.34023 6.51016 1.34023 5.88047Z" fill="#8091A7"/>
</svg>
