<svg width="21" height="20" viewBox="0 0 21 20" fill="none" xmlns="http://www.w3.org/2000/svg">
<path d="M19.8984 3.39844L20.0156 14.7656C20.0156 15.3281 19.8281 15.8281 19.4531 16.2656C19.0938 16.6875 18.6172 17.0469 18.0234 17.3438C17.4297 17.625 16.75 17.8359 15.9844 17.9766C15.2188 18.1172 14.4453 18.1875 13.6641 18.1875C13.4297 18.1875 13.2031 18.1875 12.9844 18.1875C12.7656 18.1719 12.5547 18.1484 12.3516 18.1172C11.8516 18.7578 11.0391 19.2344 9.91406 19.5469C8.80469 19.8438 7.65625 19.9922 6.46875 19.9922C5.70312 19.9922 4.9375 19.9297 4.17188 19.8047C3.42188 19.6797 2.74219 19.4922 2.13281 19.2422C1.53906 18.9922 1.05469 18.6719 0.679688 18.2812C0.304688 17.8906 0.117188 17.4219 0.117188 16.875L0 10.3125V10.2891C0 9.75781 0.1875 9.29688 0.5625 8.90625C0.9375 8.51562 1.42188 8.19531 2.01562 7.94531C2.625 7.69531 3.3125 7.50781 4.07812 7.38281C4.82812 7.25781 5.58594 7.19531 6.35156 7.19531C6.50781 7.19531 6.66406 7.20312 6.82031 7.21875C6.97656 7.21875 7.13281 7.21875 7.28906 7.21875L7.21875 3.42188C7.21875 2.85938 7.39844 2.35937 7.75781 1.92188C8.11719 1.5 8.59375 1.14844 9.1875 0.867188C9.79688 0.570313 10.4766 0.351562 11.2266 0.210938C11.9922 0.0703125 12.7656 0 13.5469 0C14.3438 0 15.1172 0.0703125 15.8672 0.210938C16.6328 0.351562 17.3125 0.570313 17.9062 0.867188C18.5 1.14844 18.9844 1.5 19.3594 1.92188C19.7188 2.34375 19.8984 2.83594 19.8984 3.39844ZM2.03906 12.1641L2.0625 14.0391H2.03906C2.60156 14.3828 3.20312 14.6484 3.84375 14.8359C4.48438 15.0234 5.15625 15.1172 5.85938 15.1172C5.95312 15.1172 6.04688 15.1172 6.14062 15.1172C6.23438 15.1016 6.32031 15.0938 6.39844 15.0938H6.375C6.46875 15.0938 6.5625 15.1016 6.65625 15.1172C6.76562 15.1172 6.86719 15.1172 6.96094 15.1172C7.66406 15.1172 8.33594 15.0234 8.97656 14.8359C9.63281 14.6328 10.2266 14.3672 10.7578 14.0391L10.7344 12.1875L10.8047 12.1641C10.1641 12.4297 9.49219 12.6328 8.78906 12.7734C8.08594 12.9141 7.36719 12.9844 6.63281 12.9844C6.58594 12.9844 6.54688 12.9844 6.51562 12.9844C6.48438 12.9844 6.44531 12.9844 6.39844 12.9844H6.42188C6.375 12.9844 6.32812 12.9844 6.28125 12.9844C6.25 12.9844 6.21875 12.9844 6.1875 12.9844C5.4375 12.9844 4.71094 12.9141 4.00781 12.7734C3.30469 12.6328 2.64844 12.4297 2.03906 12.1641ZM17.9297 7.45312L17.9062 5.25L17.9766 5.22656C17.3359 5.50781 16.6641 5.72656 15.9609 5.88281C15.2578 6.02344 14.5312 6.09375 13.7812 6.09375C13.75 6.09375 13.7109 6.09375 13.6641 6.09375C13.6328 6.09375 13.6016 6.09375 13.5703 6.09375C13.5391 6.09375 13.5 6.09375 13.4531 6.09375C13.4219 6.09375 13.3906 6.09375 13.3594 6.09375C12.6094 6.09375 11.8828 6.02344 11.1797 5.88281C10.4922 5.72656 9.84375 5.52344 9.23438 5.27344L9.28125 7.45312C9.29688 7.46875 9.30469 7.48438 9.30469 7.5C9.32031 7.5 9.33594 7.50781 9.35156 7.52344L9.39844 7.54688C9.77344 7.625 10.125 7.73438 10.4531 7.875C10.7969 8 11.1172 8.14844 11.4141 8.32031H11.3438C11.7031 8.39844 12.0703 8.46094 12.4453 8.50781C12.8203 8.53906 13.1953 8.55469 13.5703 8.55469C13.5859 8.55469 13.5938 8.55469 13.5938 8.55469C13.5938 8.55469 13.6016 8.55469 13.6172 8.55469H13.5938C13.6719 8.55469 13.7578 8.5625 13.8516 8.57812C13.9453 8.57812 14.0391 8.57812 14.1328 8.57812C14.8359 8.57812 15.5078 8.47656 16.1484 8.27344C16.8047 8.07031 17.3984 7.79688 17.9297 7.45312ZM12.7031 10.2891L12.7266 12.5391H12.6797C12.8828 12.5703 13.0859 12.5938 13.2891 12.6094C13.4922 12.6094 13.6953 12.6094 13.8984 12.6094C13.9453 12.6094 13.9844 12.6094 14.0156 12.6094C14.0625 12.6094 14.1016 12.6094 14.1328 12.6094C14.6953 12.6094 15.2344 12.5547 15.75 12.4453C16.2812 12.3203 16.7734 12.1641 17.2266 11.9766L17.25 11.9531C17.3906 11.9062 17.5156 11.8438 17.625 11.7656C17.75 11.6719 17.8672 11.5781 17.9766 11.4844L17.9531 9.21094L18.0234 9.1875C17.3828 9.46875 16.7109 9.6875 16.0078 9.84375C15.3047 9.98438 14.5781 10.0547 13.8281 10.0547C13.7969 10.0547 13.7578 10.0547 13.7109 10.0547C13.6797 10.0547 13.6484 10.0547 13.6172 10.0547C13.4609 10.0547 13.2969 10.0547 13.125 10.0547C12.9688 10.0391 12.8203 10.0234 12.6797 10.0078H12.6562C12.6719 10.0547 12.6797 10.1016 12.6797 10.1484C12.6953 10.1953 12.7031 10.2422 12.7031 10.2891ZM13.5469 1.99219C12.125 1.99219 11.0469 2.17969 10.3125 2.55469C9.57812 2.92969 9.21094 3.21094 9.21094 3.39844V3.49219H9.1875C9.73438 3.83594 10.3281 4.10938 10.9688 4.3125C11.625 4.51562 12.3047 4.61719 13.0078 4.61719C13.1172 4.61719 13.2188 4.61719 13.3125 4.61719C13.4062 4.60156 13.4922 4.59375 13.5703 4.59375H13.5469C13.6406 4.59375 13.7266 4.59375 13.8047 4.59375C13.8984 4.59375 13.9922 4.59375 14.0859 4.59375C14.7891 4.59375 15.4609 4.5 16.1016 4.3125C16.7578 4.125 17.3594 3.85937 17.9062 3.51562V3.42188C17.9062 3.23438 17.5312 2.95312 16.7812 2.57812C16.0469 2.1875 14.9688 1.99219 13.5469 1.99219ZM6.35156 9.1875C5.00781 9.1875 3.96875 9.33594 3.23438 9.63281C2.5 9.92969 2.09375 10.1562 2.01562 10.3125V10.3828C2.23438 10.6172 2.71094 10.8594 3.44531 11.1094C4.19531 11.3594 5.17969 11.4844 6.39844 11.4844H6.375C6.46875 11.5 6.55469 11.5078 6.63281 11.5078C6.72656 11.5078 6.82031 11.5078 6.91406 11.5078C7.61719 11.5078 8.28906 11.4219 8.92969 11.25C9.57031 11.0625 10.1562 10.8125 10.6875 10.5V10.3125C10.625 10.1562 10.2266 9.92969 9.49219 9.63281C8.75781 9.33594 7.71094 9.1875 6.35156 9.1875ZM6.46875 18C7.82812 18 8.875 17.8516 9.60938 17.5547C10.3438 17.2422 10.7422 17.0078 10.8047 16.8516V15.7734L10.875 15.7266C10.2188 16.0078 9.53125 16.2266 8.8125 16.3828C8.10938 16.5234 7.38281 16.5938 6.63281 16.5938C6.60156 16.5938 6.5625 16.5938 6.51562 16.5938C6.48438 16.5938 6.44531 16.5938 6.39844 16.5938H6.42188C6.375 16.5938 6.33594 16.5938 6.30469 16.5938C6.27344 16.5938 6.23438 16.5938 6.1875 16.5938C5.45312 16.5938 4.73438 16.5234 4.03125 16.3828C3.34375 16.2422 2.70312 16.0469 2.10938 15.7969V16.875C2.17188 17.0156 2.57031 17.2422 3.30469 17.5547C4.03906 17.8516 5.09375 18 6.46875 18ZM13.6641 16.1953C15.0859 16.1953 16.1641 16.0078 16.8984 15.6328C17.6328 15.2422 18 14.9609 18 14.7891V13.2656C17.9688 13.2656 17.9453 13.2734 17.9297 13.2891C17.9141 13.3047 17.8906 13.3203 17.8594 13.3359L17.9297 13.3125C17.3516 13.5625 16.7422 13.7578 16.1016 13.8984C15.4766 14.0391 14.8281 14.1094 14.1562 14.1094C14.1094 14.1094 14.0547 14.1094 13.9922 14.1094C13.9453 14.1094 13.8906 14.1094 13.8281 14.1094C13.6562 14.1094 13.4766 14.1094 13.2891 14.1094C13.1172 14.0938 12.9375 14.0781 12.75 14.0625L12.7969 16.1484C12.9375 16.1641 13.0781 16.1797 13.2188 16.1953C13.375 16.1953 13.5234 16.1953 13.6641 16.1953Z" fill="#8091A7"/>
</svg>
