<svg width="12" height="3" viewBox="0 0 12 3" fill="none" xmlns="http://www.w3.org/2000/svg">
<path d="M5.6875 2.7041C5.3151 2.7041 4.99349 2.57292 4.72266 2.31055C4.46029 2.04818 4.3291 1.72656 4.3291 1.3457C4.3291 0.973307 4.46029 0.655924 4.72266 0.393555C4.99349 0.131185 5.3151 0 5.6875 0C6.0599 0 6.37728 0.131185 6.63965 0.393555C6.91048 0.655924 7.0459 0.973307 7.0459 1.3457C7.0459 1.7181 6.91048 2.03971 6.63965 2.31055C6.37728 2.57292 6.0599 2.7041 5.6875 2.7041ZM10.0166 2.7041C9.64421 2.7041 9.32682 2.57292 9.06445 2.31055C8.80208 2.04818 8.6709 1.72656 8.6709 1.3457C8.6709 0.973307 8.80208 0.655924 9.06445 0.393555C9.32682 0.131185 9.64421 0 10.0166 0C10.3975 0 10.7191 0.131185 10.9814 0.393555C11.2438 0.655924 11.375 0.973307 11.375 1.3457C11.375 1.7181 11.2396 2.03971 10.9688 2.31055C10.7064 2.57292 10.389 2.7041 10.0166 2.7041ZM1.3584 2.7041C0.977539 2.7041 0.655924 2.57292 0.393555 2.31055C0.131185 2.04818 0 1.72656 0 1.3457C0 0.973307 0.131185 0.655924 0.393555 0.393555C0.655924 0.131185 0.977539 0 1.3584 0C1.73079 0 2.04818 0.131185 2.31055 0.393555C2.57292 0.655924 2.7041 0.973307 2.7041 1.3457C2.7041 1.7181 2.57292 2.03971 2.31055 2.31055C2.04818 2.57292 1.73079 2.7041 1.3584 2.7041Z" fill="#526484"/>
</svg>
