<svg width="10" height="6" viewBox="0 0 10 6" fill="none" xmlns="http://www.w3.org/2000/svg">
<path d="M4.98047 5.82031C4.86328 5.82031 4.7526 5.80078 4.64844 5.76172C4.55729 5.70964 4.47266 5.64453 4.39453 5.56641L0.234375 1.40625C0.15625 1.32812 0.0976562 1.24349 0.0585938 1.15234C0.0195312 1.04818 0 0.9375 0 0.820312C0 0.598958 0.078125 0.410156 0.234375 0.253906C0.403646 0.0846354 0.598958 0 0.820312 0C0.9375 0 1.04167 0.0195312 1.13281 0.0585938C1.23698 0.0976562 1.32812 0.15625 1.40625 0.234375L4.98047 3.80859L8.55469 0.234375C8.63281 0.15625 8.71745 0.0976562 8.80859 0.0585938C8.91276 0.0195312 9.02344 0 9.14062 0C9.36198 0 9.55078 0.0846354 9.70703 0.253906C9.8763 0.410156 9.96094 0.598958 9.96094 0.820312C9.96094 0.9375 9.94141 1.04818 9.90234 1.15234C9.86328 1.24349 9.80469 1.32812 9.72656 1.40625L5.56641 5.56641C5.48828 5.64453 5.39714 5.70964 5.29297 5.76172C5.20182 5.80078 5.09766 5.82031 4.98047 5.82031Z" fill="#526484"/>
</svg>
