<svg width="14" height="14" viewBox="0 0 14 14" fill="none" xmlns="http://www.w3.org/2000/svg">
<path d="M10.5039 12C10.3633 12 10.2422 11.9531 10.1406 11.8594C10.0469 11.7578 10 11.6367 10 11.4961V10.1719C10 9.59375 9.875 9.08984 9.625 8.66016C9.375 8.22266 9.08203 8.00391 8.74609 8.00391H5.25391C4.91797 8.00391 4.625 8.22266 4.375 8.66016C4.125 9.08984 4 9.59375 4 10.1719V11.4961C4 11.6367 3.94922 11.7578 3.84766 11.8594C3.75391 11.9531 3.63672 12 3.49609 12C3.36328 12 3.24609 11.9531 3.14453 11.8594C3.05078 11.7578 3.00391 11.6367 3.00391 11.4961V10.1719C3.00391 9.72656 3.0625 9.30859 3.17969 8.91797C3.28906 8.53516 3.44531 8.20312 3.64844 7.92188C3.85156 7.63281 4.08984 7.40625 4.36328 7.24219C4.63672 7.07812 4.93359 6.99609 5.25391 6.99609H8.74609C9.06641 6.99609 9.36328 7.07812 9.63672 7.24219C9.91016 7.40625 10.1484 7.63281 10.3516 7.92188C10.5547 8.20312 10.7109 8.53516 10.8203 8.91797C10.9375 9.30859 10.9961 9.72656 10.9961 10.1719V11.4961C10.9961 11.6367 10.9453 11.7578 10.8438 11.8594C10.75 11.9531 10.6367 12 10.5039 12ZM8.6875 5.17969C8.82031 5.03906 8.92578 4.87891 9.00391 4.69922C9.08203 4.51953 9.12109 4.32422 9.12109 4.11328C9.12109 4.08203 9.12109 4.05469 9.12109 4.03125C9.12109 4 9.11719 3.97266 9.10938 3.94922V3.96094C9.05469 3.41406 8.82812 2.95703 8.42969 2.58984C8.03125 2.21484 7.55469 2.01953 7 2.00391C6.44531 2.01953 5.96484 2.21875 5.55859 2.60156C5.16016 2.97656 4.9375 3.43359 4.89062 3.97266V3.98438C4.88281 4.00781 4.87891 4.03125 4.87891 4.05469C4.87891 4.07031 4.87891 4.08984 4.87891 4.11328C4.87891 4.32422 4.91797 4.52344 4.99609 4.71094C5.07422 4.89062 5.17969 5.04688 5.3125 5.17969C5.51562 5.35938 5.74609 5.50391 6.00391 5.61328C6.26953 5.71484 6.54688 5.76562 6.83594 5.76562C6.86719 5.76562 6.89453 5.76562 6.91797 5.76562C6.94922 5.76562 6.98047 5.76562 7.01172 5.76562H7C7.01562 5.76562 7.03125 5.76562 7.04688 5.76562C7.07031 5.76562 7.09375 5.76562 7.11719 5.76562C7.125 5.76562 7.13281 5.76562 7.14062 5.76562C7.15625 5.76562 7.17188 5.76562 7.1875 5.76562C7.47656 5.76562 7.75 5.71484 8.00781 5.61328C8.26562 5.50391 8.49219 5.35938 8.6875 5.17969ZM6.97656 4.75781C6.95312 4.76562 6.92969 4.76953 6.90625 4.76953C6.89062 4.76953 6.87109 4.76953 6.84766 4.76953C6.69141 4.76953 6.54297 4.74609 6.40234 4.69922C6.26172 4.64453 6.13672 4.57031 6.02734 4.47656C5.98047 4.42969 5.94141 4.37891 5.91016 4.32422C5.88672 4.26172 5.875 4.19531 5.875 4.125C5.875 4.11719 5.875 4.10938 5.875 4.10156C5.875 4.09375 5.875 4.08594 5.875 4.07812C5.90625 3.78906 6.02734 3.54297 6.23828 3.33984C6.44922 3.12891 6.70312 3.01563 7 3C7.28906 3.01563 7.53906 3.125 7.75 3.32812C7.96094 3.52344 8.08203 3.76172 8.11328 4.04297V4.05469C8.11328 4.0625 8.11328 4.07422 8.11328 4.08984C8.12109 4.09766 8.125 4.10547 8.125 4.11328C8.125 4.18359 8.10938 4.25 8.07812 4.3125C8.05469 4.375 8.01953 4.42969 7.97266 4.47656C7.86328 4.57031 7.73828 4.64453 7.59766 4.69922C7.45703 4.74609 7.30859 4.76953 7.15234 4.76953C7.12891 4.76953 7.10547 4.76953 7.08203 4.76953C7.06641 4.76953 7.04688 4.76562 7.02344 4.75781C7.02344 4.75781 7.01953 4.75781 7.01172 4.75781C7.01172 4.75781 7.00781 4.75781 7 4.75781C6.99219 4.75781 6.98438 4.75781 6.97656 4.75781Z" fill="white"/>
</svg>
